G04 #@! TF.GenerationSoftware,KiCad,Pcbnew,(6.0.10)*
G04 #@! TF.CreationDate,2022-12-31T14:29:49-08:00*
G04 #@! TF.ProjectId,corne-ultralight,636f726e-652d-4756-9c74-72616c696768,2.0*
G04 #@! TF.SameCoordinates,Original*
G04 #@! TF.FileFunction,AssemblyDrawing,Top*
%FSLAX46Y46*%
G04 Gerber Fmt 4.6, Leading zero omitted, Abs format (unit mm)*
G04 Created by KiCad (PCBNEW (6.0.10)) date 2022-12-31 14:29:49*
%MOMM*%
%LPD*%
G01*
G04 APERTURE LIST*
%ADD10C,0.150000*%
%ADD11C,0.100000*%
G04 APERTURE END LIST*
D10*
X158967261Y-80079336D02*
X159014880Y-79936479D01*
X159014880Y-79698384D01*
X158967261Y-79603146D01*
X158919642Y-79555527D01*
X158824404Y-79507908D01*
X158729166Y-79507908D01*
X158633928Y-79555527D01*
X158586309Y-79603146D01*
X158538690Y-79698384D01*
X158491071Y-79888860D01*
X158443452Y-79984098D01*
X158395833Y-80031717D01*
X158300595Y-80079336D01*
X158205357Y-80079336D01*
X158110119Y-80031717D01*
X158062500Y-79984098D01*
X158014880Y-79888860D01*
X158014880Y-79650765D01*
X158062500Y-79507908D01*
X158014880Y-79174574D02*
X159014880Y-78936479D01*
X158300595Y-78746003D01*
X159014880Y-78555527D01*
X158014880Y-78317432D01*
X159110119Y-78174574D02*
X159110119Y-77412670D01*
X159014880Y-77174574D02*
X158014880Y-77174574D01*
X158014880Y-76793622D01*
X158062500Y-76698384D01*
X158110119Y-76650765D01*
X158205357Y-76603146D01*
X158348214Y-76603146D01*
X158443452Y-76650765D01*
X158491071Y-76698384D01*
X158538690Y-76793622D01*
X158538690Y-77174574D01*
X158014880Y-76174574D02*
X158824404Y-76174574D01*
X158919642Y-76126955D01*
X158967261Y-76079336D01*
X159014880Y-75984098D01*
X159014880Y-75793622D01*
X158967261Y-75698384D01*
X158919642Y-75650765D01*
X158824404Y-75603146D01*
X158014880Y-75603146D01*
X158967261Y-75174574D02*
X159014880Y-75031717D01*
X159014880Y-74793622D01*
X158967261Y-74698384D01*
X158919642Y-74650765D01*
X158824404Y-74603146D01*
X158729166Y-74603146D01*
X158633928Y-74650765D01*
X158586309Y-74698384D01*
X158538690Y-74793622D01*
X158491071Y-74984098D01*
X158443452Y-75079336D01*
X158395833Y-75126955D01*
X158300595Y-75174574D01*
X158205357Y-75174574D01*
X158110119Y-75126955D01*
X158062500Y-75079336D01*
X158014880Y-74984098D01*
X158014880Y-74746003D01*
X158062500Y-74603146D01*
X159014880Y-74174574D02*
X158014880Y-74174574D01*
X158491071Y-74174574D02*
X158491071Y-73603146D01*
X159014880Y-73603146D02*
X158014880Y-73603146D01*
X275422942Y-54825193D02*
X275565799Y-54872812D01*
X275803894Y-54872812D01*
X275899132Y-54825193D01*
X275946751Y-54777574D01*
X275994370Y-54682336D01*
X275994370Y-54587098D01*
X275946751Y-54491860D01*
X275899132Y-54444241D01*
X275803894Y-54396622D01*
X275613418Y-54349003D01*
X275518180Y-54301384D01*
X275470561Y-54253765D01*
X275422942Y-54158527D01*
X275422942Y-54063289D01*
X275470561Y-53968051D01*
X275518180Y-53920432D01*
X275613418Y-53872812D01*
X275851513Y-53872812D01*
X275994370Y-53920432D01*
X276327704Y-53872812D02*
X276565799Y-54872812D01*
X276756275Y-54158527D01*
X276946751Y-54872812D01*
X277184847Y-53872812D01*
X277327704Y-54968051D02*
X278089608Y-54968051D01*
X278327704Y-54872812D02*
X278327704Y-53872812D01*
X278708656Y-53872812D01*
X278803894Y-53920432D01*
X278851513Y-53968051D01*
X278899132Y-54063289D01*
X278899132Y-54206146D01*
X278851513Y-54301384D01*
X278803894Y-54349003D01*
X278708656Y-54396622D01*
X278327704Y-54396622D01*
X279327704Y-53872812D02*
X279327704Y-54682336D01*
X279375323Y-54777574D01*
X279422942Y-54825193D01*
X279518180Y-54872812D01*
X279708656Y-54872812D01*
X279803894Y-54825193D01*
X279851513Y-54777574D01*
X279899132Y-54682336D01*
X279899132Y-53872812D01*
X280327704Y-54825193D02*
X280470561Y-54872812D01*
X280708656Y-54872812D01*
X280803894Y-54825193D01*
X280851513Y-54777574D01*
X280899132Y-54682336D01*
X280899132Y-54587098D01*
X280851513Y-54491860D01*
X280803894Y-54444241D01*
X280708656Y-54396622D01*
X280518180Y-54349003D01*
X280422942Y-54301384D01*
X280375323Y-54253765D01*
X280327704Y-54158527D01*
X280327704Y-54063289D01*
X280375323Y-53968051D01*
X280422942Y-53920432D01*
X280518180Y-53872812D01*
X280756275Y-53872812D01*
X280899132Y-53920432D01*
X281327704Y-54872812D02*
X281327704Y-53872812D01*
X281327704Y-54349003D02*
X281899132Y-54349003D01*
X281899132Y-54872812D02*
X281899132Y-53872812D01*
X256422942Y-54825193D02*
X256565799Y-54872812D01*
X256803894Y-54872812D01*
X256899132Y-54825193D01*
X256946751Y-54777574D01*
X256994370Y-54682336D01*
X256994370Y-54587098D01*
X256946751Y-54491860D01*
X256899132Y-54444241D01*
X256803894Y-54396622D01*
X256613418Y-54349003D01*
X256518180Y-54301384D01*
X256470561Y-54253765D01*
X256422942Y-54158527D01*
X256422942Y-54063289D01*
X256470561Y-53968051D01*
X256518180Y-53920432D01*
X256613418Y-53872812D01*
X256851513Y-53872812D01*
X256994370Y-53920432D01*
X257327704Y-53872812D02*
X257565799Y-54872812D01*
X257756275Y-54158527D01*
X257946751Y-54872812D01*
X258184847Y-53872812D01*
X258327704Y-54968051D02*
X259089608Y-54968051D01*
X259327704Y-54872812D02*
X259327704Y-53872812D01*
X259708656Y-53872812D01*
X259803894Y-53920432D01*
X259851513Y-53968051D01*
X259899132Y-54063289D01*
X259899132Y-54206146D01*
X259851513Y-54301384D01*
X259803894Y-54349003D01*
X259708656Y-54396622D01*
X259327704Y-54396622D01*
X260327704Y-53872812D02*
X260327704Y-54682336D01*
X260375323Y-54777574D01*
X260422942Y-54825193D01*
X260518180Y-54872812D01*
X260708656Y-54872812D01*
X260803894Y-54825193D01*
X260851513Y-54777574D01*
X260899132Y-54682336D01*
X260899132Y-53872812D01*
X261327704Y-54825193D02*
X261470561Y-54872812D01*
X261708656Y-54872812D01*
X261803894Y-54825193D01*
X261851513Y-54777574D01*
X261899132Y-54682336D01*
X261899132Y-54587098D01*
X261851513Y-54491860D01*
X261803894Y-54444241D01*
X261708656Y-54396622D01*
X261518180Y-54349003D01*
X261422942Y-54301384D01*
X261375323Y-54253765D01*
X261327704Y-54158527D01*
X261327704Y-54063289D01*
X261375323Y-53968051D01*
X261422942Y-53920432D01*
X261518180Y-53872812D01*
X261756275Y-53872812D01*
X261899132Y-53920432D01*
X262327704Y-54872812D02*
X262327704Y-53872812D01*
X262327704Y-54349003D02*
X262899132Y-54349003D01*
X262899132Y-54872812D02*
X262899132Y-53872812D01*
X237422942Y-50075193D02*
X237565799Y-50122812D01*
X237803894Y-50122812D01*
X237899132Y-50075193D01*
X237946751Y-50027574D01*
X237994370Y-49932336D01*
X237994370Y-49837098D01*
X237946751Y-49741860D01*
X237899132Y-49694241D01*
X237803894Y-49646622D01*
X237613418Y-49599003D01*
X237518180Y-49551384D01*
X237470561Y-49503765D01*
X237422942Y-49408527D01*
X237422942Y-49313289D01*
X237470561Y-49218051D01*
X237518180Y-49170432D01*
X237613418Y-49122812D01*
X237851513Y-49122812D01*
X237994370Y-49170432D01*
X238327704Y-49122812D02*
X238565799Y-50122812D01*
X238756275Y-49408527D01*
X238946751Y-50122812D01*
X239184847Y-49122812D01*
X239327704Y-50218051D02*
X240089608Y-50218051D01*
X240327704Y-50122812D02*
X240327704Y-49122812D01*
X240708656Y-49122812D01*
X240803894Y-49170432D01*
X240851513Y-49218051D01*
X240899132Y-49313289D01*
X240899132Y-49456146D01*
X240851513Y-49551384D01*
X240803894Y-49599003D01*
X240708656Y-49646622D01*
X240327704Y-49646622D01*
X241327704Y-49122812D02*
X241327704Y-49932336D01*
X241375323Y-50027574D01*
X241422942Y-50075193D01*
X241518180Y-50122812D01*
X241708656Y-50122812D01*
X241803894Y-50075193D01*
X241851513Y-50027574D01*
X241899132Y-49932336D01*
X241899132Y-49122812D01*
X242327704Y-50075193D02*
X242470561Y-50122812D01*
X242708656Y-50122812D01*
X242803894Y-50075193D01*
X242851513Y-50027574D01*
X242899132Y-49932336D01*
X242899132Y-49837098D01*
X242851513Y-49741860D01*
X242803894Y-49694241D01*
X242708656Y-49646622D01*
X242518180Y-49599003D01*
X242422942Y-49551384D01*
X242375323Y-49503765D01*
X242327704Y-49408527D01*
X242327704Y-49313289D01*
X242375323Y-49218051D01*
X242422942Y-49170432D01*
X242518180Y-49122812D01*
X242756275Y-49122812D01*
X242899132Y-49170432D01*
X243327704Y-50122812D02*
X243327704Y-49122812D01*
X243327704Y-49599003D02*
X243899132Y-49599003D01*
X243899132Y-50122812D02*
X243899132Y-49122812D01*
X218422942Y-47700193D02*
X218565799Y-47747812D01*
X218803894Y-47747812D01*
X218899132Y-47700193D01*
X218946751Y-47652574D01*
X218994370Y-47557336D01*
X218994370Y-47462098D01*
X218946751Y-47366860D01*
X218899132Y-47319241D01*
X218803894Y-47271622D01*
X218613418Y-47224003D01*
X218518180Y-47176384D01*
X218470561Y-47128765D01*
X218422942Y-47033527D01*
X218422942Y-46938289D01*
X218470561Y-46843051D01*
X218518180Y-46795432D01*
X218613418Y-46747812D01*
X218851513Y-46747812D01*
X218994370Y-46795432D01*
X219327704Y-46747812D02*
X219565799Y-47747812D01*
X219756275Y-47033527D01*
X219946751Y-47747812D01*
X220184847Y-46747812D01*
X220327704Y-47843051D02*
X221089608Y-47843051D01*
X221327704Y-47747812D02*
X221327704Y-46747812D01*
X221708656Y-46747812D01*
X221803894Y-46795432D01*
X221851513Y-46843051D01*
X221899132Y-46938289D01*
X221899132Y-47081146D01*
X221851513Y-47176384D01*
X221803894Y-47224003D01*
X221708656Y-47271622D01*
X221327704Y-47271622D01*
X222327704Y-46747812D02*
X222327704Y-47557336D01*
X222375323Y-47652574D01*
X222422942Y-47700193D01*
X222518180Y-47747812D01*
X222708656Y-47747812D01*
X222803894Y-47700193D01*
X222851513Y-47652574D01*
X222899132Y-47557336D01*
X222899132Y-46747812D01*
X223327704Y-47700193D02*
X223470561Y-47747812D01*
X223708656Y-47747812D01*
X223803894Y-47700193D01*
X223851513Y-47652574D01*
X223899132Y-47557336D01*
X223899132Y-47462098D01*
X223851513Y-47366860D01*
X223803894Y-47319241D01*
X223708656Y-47271622D01*
X223518180Y-47224003D01*
X223422942Y-47176384D01*
X223375323Y-47128765D01*
X223327704Y-47033527D01*
X223327704Y-46938289D01*
X223375323Y-46843051D01*
X223422942Y-46795432D01*
X223518180Y-46747812D01*
X223756275Y-46747812D01*
X223899132Y-46795432D01*
X224327704Y-47747812D02*
X224327704Y-46747812D01*
X224327704Y-47224003D02*
X224899132Y-47224003D01*
X224899132Y-47747812D02*
X224899132Y-46747812D01*
X199422942Y-50075193D02*
X199565799Y-50122812D01*
X199803894Y-50122812D01*
X199899132Y-50075193D01*
X199946751Y-50027574D01*
X199994370Y-49932336D01*
X199994370Y-49837098D01*
X199946751Y-49741860D01*
X199899132Y-49694241D01*
X199803894Y-49646622D01*
X199613418Y-49599003D01*
X199518180Y-49551384D01*
X199470561Y-49503765D01*
X199422942Y-49408527D01*
X199422942Y-49313289D01*
X199470561Y-49218051D01*
X199518180Y-49170432D01*
X199613418Y-49122812D01*
X199851513Y-49122812D01*
X199994370Y-49170432D01*
X200327704Y-49122812D02*
X200565799Y-50122812D01*
X200756275Y-49408527D01*
X200946751Y-50122812D01*
X201184847Y-49122812D01*
X201327704Y-50218051D02*
X202089608Y-50218051D01*
X202327704Y-50122812D02*
X202327704Y-49122812D01*
X202708656Y-49122812D01*
X202803894Y-49170432D01*
X202851513Y-49218051D01*
X202899132Y-49313289D01*
X202899132Y-49456146D01*
X202851513Y-49551384D01*
X202803894Y-49599003D01*
X202708656Y-49646622D01*
X202327704Y-49646622D01*
X203327704Y-49122812D02*
X203327704Y-49932336D01*
X203375323Y-50027574D01*
X203422942Y-50075193D01*
X203518180Y-50122812D01*
X203708656Y-50122812D01*
X203803894Y-50075193D01*
X203851513Y-50027574D01*
X203899132Y-49932336D01*
X203899132Y-49122812D01*
X204327704Y-50075193D02*
X204470561Y-50122812D01*
X204708656Y-50122812D01*
X204803894Y-50075193D01*
X204851513Y-50027574D01*
X204899132Y-49932336D01*
X204899132Y-49837098D01*
X204851513Y-49741860D01*
X204803894Y-49694241D01*
X204708656Y-49646622D01*
X204518180Y-49599003D01*
X204422942Y-49551384D01*
X204375323Y-49503765D01*
X204327704Y-49408527D01*
X204327704Y-49313289D01*
X204375323Y-49218051D01*
X204422942Y-49170432D01*
X204518180Y-49122812D01*
X204756275Y-49122812D01*
X204899132Y-49170432D01*
X205327704Y-50122812D02*
X205327704Y-49122812D01*
X205327704Y-49599003D02*
X205899132Y-49599003D01*
X205899132Y-50122812D02*
X205899132Y-49122812D01*
X180422942Y-52450193D02*
X180565799Y-52497812D01*
X180803894Y-52497812D01*
X180899132Y-52450193D01*
X180946751Y-52402574D01*
X180994370Y-52307336D01*
X180994370Y-52212098D01*
X180946751Y-52116860D01*
X180899132Y-52069241D01*
X180803894Y-52021622D01*
X180613418Y-51974003D01*
X180518180Y-51926384D01*
X180470561Y-51878765D01*
X180422942Y-51783527D01*
X180422942Y-51688289D01*
X180470561Y-51593051D01*
X180518180Y-51545432D01*
X180613418Y-51497812D01*
X180851513Y-51497812D01*
X180994370Y-51545432D01*
X181327704Y-51497812D02*
X181565799Y-52497812D01*
X181756275Y-51783527D01*
X181946751Y-52497812D01*
X182184847Y-51497812D01*
X182327704Y-52593051D02*
X183089608Y-52593051D01*
X183327704Y-52497812D02*
X183327704Y-51497812D01*
X183708656Y-51497812D01*
X183803894Y-51545432D01*
X183851513Y-51593051D01*
X183899132Y-51688289D01*
X183899132Y-51831146D01*
X183851513Y-51926384D01*
X183803894Y-51974003D01*
X183708656Y-52021622D01*
X183327704Y-52021622D01*
X184327704Y-51497812D02*
X184327704Y-52307336D01*
X184375323Y-52402574D01*
X184422942Y-52450193D01*
X184518180Y-52497812D01*
X184708656Y-52497812D01*
X184803894Y-52450193D01*
X184851513Y-52402574D01*
X184899132Y-52307336D01*
X184899132Y-51497812D01*
X185327704Y-52450193D02*
X185470561Y-52497812D01*
X185708656Y-52497812D01*
X185803894Y-52450193D01*
X185851513Y-52402574D01*
X185899132Y-52307336D01*
X185899132Y-52212098D01*
X185851513Y-52116860D01*
X185803894Y-52069241D01*
X185708656Y-52021622D01*
X185518180Y-51974003D01*
X185422942Y-51926384D01*
X185375323Y-51878765D01*
X185327704Y-51783527D01*
X185327704Y-51688289D01*
X185375323Y-51593051D01*
X185422942Y-51545432D01*
X185518180Y-51497812D01*
X185756275Y-51497812D01*
X185899132Y-51545432D01*
X186327704Y-52497812D02*
X186327704Y-51497812D01*
X186327704Y-51974003D02*
X186899132Y-51974003D01*
X186899132Y-52497812D02*
X186899132Y-51497812D01*
X275422942Y-73825193D02*
X275565799Y-73872812D01*
X275803894Y-73872812D01*
X275899132Y-73825193D01*
X275946751Y-73777574D01*
X275994370Y-73682336D01*
X275994370Y-73587098D01*
X275946751Y-73491860D01*
X275899132Y-73444241D01*
X275803894Y-73396622D01*
X275613418Y-73349003D01*
X275518180Y-73301384D01*
X275470561Y-73253765D01*
X275422942Y-73158527D01*
X275422942Y-73063289D01*
X275470561Y-72968051D01*
X275518180Y-72920432D01*
X275613418Y-72872812D01*
X275851513Y-72872812D01*
X275994370Y-72920432D01*
X276327704Y-72872812D02*
X276565799Y-73872812D01*
X276756275Y-73158527D01*
X276946751Y-73872812D01*
X277184847Y-72872812D01*
X277327704Y-73968051D02*
X278089608Y-73968051D01*
X278327704Y-73872812D02*
X278327704Y-72872812D01*
X278708656Y-72872812D01*
X278803894Y-72920432D01*
X278851513Y-72968051D01*
X278899132Y-73063289D01*
X278899132Y-73206146D01*
X278851513Y-73301384D01*
X278803894Y-73349003D01*
X278708656Y-73396622D01*
X278327704Y-73396622D01*
X279327704Y-72872812D02*
X279327704Y-73682336D01*
X279375323Y-73777574D01*
X279422942Y-73825193D01*
X279518180Y-73872812D01*
X279708656Y-73872812D01*
X279803894Y-73825193D01*
X279851513Y-73777574D01*
X279899132Y-73682336D01*
X279899132Y-72872812D01*
X280327704Y-73825193D02*
X280470561Y-73872812D01*
X280708656Y-73872812D01*
X280803894Y-73825193D01*
X280851513Y-73777574D01*
X280899132Y-73682336D01*
X280899132Y-73587098D01*
X280851513Y-73491860D01*
X280803894Y-73444241D01*
X280708656Y-73396622D01*
X280518180Y-73349003D01*
X280422942Y-73301384D01*
X280375323Y-73253765D01*
X280327704Y-73158527D01*
X280327704Y-73063289D01*
X280375323Y-72968051D01*
X280422942Y-72920432D01*
X280518180Y-72872812D01*
X280756275Y-72872812D01*
X280899132Y-72920432D01*
X281327704Y-73872812D02*
X281327704Y-72872812D01*
X281327704Y-73349003D02*
X281899132Y-73349003D01*
X281899132Y-73872812D02*
X281899132Y-72872812D01*
X256422942Y-73825193D02*
X256565799Y-73872812D01*
X256803894Y-73872812D01*
X256899132Y-73825193D01*
X256946751Y-73777574D01*
X256994370Y-73682336D01*
X256994370Y-73587098D01*
X256946751Y-73491860D01*
X256899132Y-73444241D01*
X256803894Y-73396622D01*
X256613418Y-73349003D01*
X256518180Y-73301384D01*
X256470561Y-73253765D01*
X256422942Y-73158527D01*
X256422942Y-73063289D01*
X256470561Y-72968051D01*
X256518180Y-72920432D01*
X256613418Y-72872812D01*
X256851513Y-72872812D01*
X256994370Y-72920432D01*
X257327704Y-72872812D02*
X257565799Y-73872812D01*
X257756275Y-73158527D01*
X257946751Y-73872812D01*
X258184847Y-72872812D01*
X258327704Y-73968051D02*
X259089608Y-73968051D01*
X259327704Y-73872812D02*
X259327704Y-72872812D01*
X259708656Y-72872812D01*
X259803894Y-72920432D01*
X259851513Y-72968051D01*
X259899132Y-73063289D01*
X259899132Y-73206146D01*
X259851513Y-73301384D01*
X259803894Y-73349003D01*
X259708656Y-73396622D01*
X259327704Y-73396622D01*
X260327704Y-72872812D02*
X260327704Y-73682336D01*
X260375323Y-73777574D01*
X260422942Y-73825193D01*
X260518180Y-73872812D01*
X260708656Y-73872812D01*
X260803894Y-73825193D01*
X260851513Y-73777574D01*
X260899132Y-73682336D01*
X260899132Y-72872812D01*
X261327704Y-73825193D02*
X261470561Y-73872812D01*
X261708656Y-73872812D01*
X261803894Y-73825193D01*
X261851513Y-73777574D01*
X261899132Y-73682336D01*
X261899132Y-73587098D01*
X261851513Y-73491860D01*
X261803894Y-73444241D01*
X261708656Y-73396622D01*
X261518180Y-73349003D01*
X261422942Y-73301384D01*
X261375323Y-73253765D01*
X261327704Y-73158527D01*
X261327704Y-73063289D01*
X261375323Y-72968051D01*
X261422942Y-72920432D01*
X261518180Y-72872812D01*
X261756275Y-72872812D01*
X261899132Y-72920432D01*
X262327704Y-73872812D02*
X262327704Y-72872812D01*
X262327704Y-73349003D02*
X262899132Y-73349003D01*
X262899132Y-73872812D02*
X262899132Y-72872812D01*
X237422942Y-69075193D02*
X237565799Y-69122812D01*
X237803894Y-69122812D01*
X237899132Y-69075193D01*
X237946751Y-69027574D01*
X237994370Y-68932336D01*
X237994370Y-68837098D01*
X237946751Y-68741860D01*
X237899132Y-68694241D01*
X237803894Y-68646622D01*
X237613418Y-68599003D01*
X237518180Y-68551384D01*
X237470561Y-68503765D01*
X237422942Y-68408527D01*
X237422942Y-68313289D01*
X237470561Y-68218051D01*
X237518180Y-68170432D01*
X237613418Y-68122812D01*
X237851513Y-68122812D01*
X237994370Y-68170432D01*
X238327704Y-68122812D02*
X238565799Y-69122812D01*
X238756275Y-68408527D01*
X238946751Y-69122812D01*
X239184847Y-68122812D01*
X239327704Y-69218051D02*
X240089608Y-69218051D01*
X240327704Y-69122812D02*
X240327704Y-68122812D01*
X240708656Y-68122812D01*
X240803894Y-68170432D01*
X240851513Y-68218051D01*
X240899132Y-68313289D01*
X240899132Y-68456146D01*
X240851513Y-68551384D01*
X240803894Y-68599003D01*
X240708656Y-68646622D01*
X240327704Y-68646622D01*
X241327704Y-68122812D02*
X241327704Y-68932336D01*
X241375323Y-69027574D01*
X241422942Y-69075193D01*
X241518180Y-69122812D01*
X241708656Y-69122812D01*
X241803894Y-69075193D01*
X241851513Y-69027574D01*
X241899132Y-68932336D01*
X241899132Y-68122812D01*
X242327704Y-69075193D02*
X242470561Y-69122812D01*
X242708656Y-69122812D01*
X242803894Y-69075193D01*
X242851513Y-69027574D01*
X242899132Y-68932336D01*
X242899132Y-68837098D01*
X242851513Y-68741860D01*
X242803894Y-68694241D01*
X242708656Y-68646622D01*
X242518180Y-68599003D01*
X242422942Y-68551384D01*
X242375323Y-68503765D01*
X242327704Y-68408527D01*
X242327704Y-68313289D01*
X242375323Y-68218051D01*
X242422942Y-68170432D01*
X242518180Y-68122812D01*
X242756275Y-68122812D01*
X242899132Y-68170432D01*
X243327704Y-69122812D02*
X243327704Y-68122812D01*
X243327704Y-68599003D02*
X243899132Y-68599003D01*
X243899132Y-69122812D02*
X243899132Y-68122812D01*
X218422942Y-66700193D02*
X218565799Y-66747812D01*
X218803894Y-66747812D01*
X218899132Y-66700193D01*
X218946751Y-66652574D01*
X218994370Y-66557336D01*
X218994370Y-66462098D01*
X218946751Y-66366860D01*
X218899132Y-66319241D01*
X218803894Y-66271622D01*
X218613418Y-66224003D01*
X218518180Y-66176384D01*
X218470561Y-66128765D01*
X218422942Y-66033527D01*
X218422942Y-65938289D01*
X218470561Y-65843051D01*
X218518180Y-65795432D01*
X218613418Y-65747812D01*
X218851513Y-65747812D01*
X218994370Y-65795432D01*
X219327704Y-65747812D02*
X219565799Y-66747812D01*
X219756275Y-66033527D01*
X219946751Y-66747812D01*
X220184847Y-65747812D01*
X220327704Y-66843051D02*
X221089608Y-66843051D01*
X221327704Y-66747812D02*
X221327704Y-65747812D01*
X221708656Y-65747812D01*
X221803894Y-65795432D01*
X221851513Y-65843051D01*
X221899132Y-65938289D01*
X221899132Y-66081146D01*
X221851513Y-66176384D01*
X221803894Y-66224003D01*
X221708656Y-66271622D01*
X221327704Y-66271622D01*
X222327704Y-65747812D02*
X222327704Y-66557336D01*
X222375323Y-66652574D01*
X222422942Y-66700193D01*
X222518180Y-66747812D01*
X222708656Y-66747812D01*
X222803894Y-66700193D01*
X222851513Y-66652574D01*
X222899132Y-66557336D01*
X222899132Y-65747812D01*
X223327704Y-66700193D02*
X223470561Y-66747812D01*
X223708656Y-66747812D01*
X223803894Y-66700193D01*
X223851513Y-66652574D01*
X223899132Y-66557336D01*
X223899132Y-66462098D01*
X223851513Y-66366860D01*
X223803894Y-66319241D01*
X223708656Y-66271622D01*
X223518180Y-66224003D01*
X223422942Y-66176384D01*
X223375323Y-66128765D01*
X223327704Y-66033527D01*
X223327704Y-65938289D01*
X223375323Y-65843051D01*
X223422942Y-65795432D01*
X223518180Y-65747812D01*
X223756275Y-65747812D01*
X223899132Y-65795432D01*
X224327704Y-66747812D02*
X224327704Y-65747812D01*
X224327704Y-66224003D02*
X224899132Y-66224003D01*
X224899132Y-66747812D02*
X224899132Y-65747812D01*
X199422942Y-69075193D02*
X199565799Y-69122812D01*
X199803894Y-69122812D01*
X199899132Y-69075193D01*
X199946751Y-69027574D01*
X199994370Y-68932336D01*
X199994370Y-68837098D01*
X199946751Y-68741860D01*
X199899132Y-68694241D01*
X199803894Y-68646622D01*
X199613418Y-68599003D01*
X199518180Y-68551384D01*
X199470561Y-68503765D01*
X199422942Y-68408527D01*
X199422942Y-68313289D01*
X199470561Y-68218051D01*
X199518180Y-68170432D01*
X199613418Y-68122812D01*
X199851513Y-68122812D01*
X199994370Y-68170432D01*
X200327704Y-68122812D02*
X200565799Y-69122812D01*
X200756275Y-68408527D01*
X200946751Y-69122812D01*
X201184847Y-68122812D01*
X201327704Y-69218051D02*
X202089608Y-69218051D01*
X202327704Y-69122812D02*
X202327704Y-68122812D01*
X202708656Y-68122812D01*
X202803894Y-68170432D01*
X202851513Y-68218051D01*
X202899132Y-68313289D01*
X202899132Y-68456146D01*
X202851513Y-68551384D01*
X202803894Y-68599003D01*
X202708656Y-68646622D01*
X202327704Y-68646622D01*
X203327704Y-68122812D02*
X203327704Y-68932336D01*
X203375323Y-69027574D01*
X203422942Y-69075193D01*
X203518180Y-69122812D01*
X203708656Y-69122812D01*
X203803894Y-69075193D01*
X203851513Y-69027574D01*
X203899132Y-68932336D01*
X203899132Y-68122812D01*
X204327704Y-69075193D02*
X204470561Y-69122812D01*
X204708656Y-69122812D01*
X204803894Y-69075193D01*
X204851513Y-69027574D01*
X204899132Y-68932336D01*
X204899132Y-68837098D01*
X204851513Y-68741860D01*
X204803894Y-68694241D01*
X204708656Y-68646622D01*
X204518180Y-68599003D01*
X204422942Y-68551384D01*
X204375323Y-68503765D01*
X204327704Y-68408527D01*
X204327704Y-68313289D01*
X204375323Y-68218051D01*
X204422942Y-68170432D01*
X204518180Y-68122812D01*
X204756275Y-68122812D01*
X204899132Y-68170432D01*
X205327704Y-69122812D02*
X205327704Y-68122812D01*
X205327704Y-68599003D02*
X205899132Y-68599003D01*
X205899132Y-69122812D02*
X205899132Y-68122812D01*
X180422942Y-71450193D02*
X180565799Y-71497812D01*
X180803894Y-71497812D01*
X180899132Y-71450193D01*
X180946751Y-71402574D01*
X180994370Y-71307336D01*
X180994370Y-71212098D01*
X180946751Y-71116860D01*
X180899132Y-71069241D01*
X180803894Y-71021622D01*
X180613418Y-70974003D01*
X180518180Y-70926384D01*
X180470561Y-70878765D01*
X180422942Y-70783527D01*
X180422942Y-70688289D01*
X180470561Y-70593051D01*
X180518180Y-70545432D01*
X180613418Y-70497812D01*
X180851513Y-70497812D01*
X180994370Y-70545432D01*
X181327704Y-70497812D02*
X181565799Y-71497812D01*
X181756275Y-70783527D01*
X181946751Y-71497812D01*
X182184847Y-70497812D01*
X182327704Y-71593051D02*
X183089608Y-71593051D01*
X183327704Y-71497812D02*
X183327704Y-70497812D01*
X183708656Y-70497812D01*
X183803894Y-70545432D01*
X183851513Y-70593051D01*
X183899132Y-70688289D01*
X183899132Y-70831146D01*
X183851513Y-70926384D01*
X183803894Y-70974003D01*
X183708656Y-71021622D01*
X183327704Y-71021622D01*
X184327704Y-70497812D02*
X184327704Y-71307336D01*
X184375323Y-71402574D01*
X184422942Y-71450193D01*
X184518180Y-71497812D01*
X184708656Y-71497812D01*
X184803894Y-71450193D01*
X184851513Y-71402574D01*
X184899132Y-71307336D01*
X184899132Y-70497812D01*
X185327704Y-71450193D02*
X185470561Y-71497812D01*
X185708656Y-71497812D01*
X185803894Y-71450193D01*
X185851513Y-71402574D01*
X185899132Y-71307336D01*
X185899132Y-71212098D01*
X185851513Y-71116860D01*
X185803894Y-71069241D01*
X185708656Y-71021622D01*
X185518180Y-70974003D01*
X185422942Y-70926384D01*
X185375323Y-70878765D01*
X185327704Y-70783527D01*
X185327704Y-70688289D01*
X185375323Y-70593051D01*
X185422942Y-70545432D01*
X185518180Y-70497812D01*
X185756275Y-70497812D01*
X185899132Y-70545432D01*
X186327704Y-71497812D02*
X186327704Y-70497812D01*
X186327704Y-70974003D02*
X186899132Y-70974003D01*
X186899132Y-71497812D02*
X186899132Y-70497812D01*
X275422942Y-92825193D02*
X275565799Y-92872812D01*
X275803894Y-92872812D01*
X275899132Y-92825193D01*
X275946751Y-92777574D01*
X275994370Y-92682336D01*
X275994370Y-92587098D01*
X275946751Y-92491860D01*
X275899132Y-92444241D01*
X275803894Y-92396622D01*
X275613418Y-92349003D01*
X275518180Y-92301384D01*
X275470561Y-92253765D01*
X275422942Y-92158527D01*
X275422942Y-92063289D01*
X275470561Y-91968051D01*
X275518180Y-91920432D01*
X275613418Y-91872812D01*
X275851513Y-91872812D01*
X275994370Y-91920432D01*
X276327704Y-91872812D02*
X276565799Y-92872812D01*
X276756275Y-92158527D01*
X276946751Y-92872812D01*
X277184847Y-91872812D01*
X277327704Y-92968051D02*
X278089608Y-92968051D01*
X278327704Y-92872812D02*
X278327704Y-91872812D01*
X278708656Y-91872812D01*
X278803894Y-91920432D01*
X278851513Y-91968051D01*
X278899132Y-92063289D01*
X278899132Y-92206146D01*
X278851513Y-92301384D01*
X278803894Y-92349003D01*
X278708656Y-92396622D01*
X278327704Y-92396622D01*
X279327704Y-91872812D02*
X279327704Y-92682336D01*
X279375323Y-92777574D01*
X279422942Y-92825193D01*
X279518180Y-92872812D01*
X279708656Y-92872812D01*
X279803894Y-92825193D01*
X279851513Y-92777574D01*
X279899132Y-92682336D01*
X279899132Y-91872812D01*
X280327704Y-92825193D02*
X280470561Y-92872812D01*
X280708656Y-92872812D01*
X280803894Y-92825193D01*
X280851513Y-92777574D01*
X280899132Y-92682336D01*
X280899132Y-92587098D01*
X280851513Y-92491860D01*
X280803894Y-92444241D01*
X280708656Y-92396622D01*
X280518180Y-92349003D01*
X280422942Y-92301384D01*
X280375323Y-92253765D01*
X280327704Y-92158527D01*
X280327704Y-92063289D01*
X280375323Y-91968051D01*
X280422942Y-91920432D01*
X280518180Y-91872812D01*
X280756275Y-91872812D01*
X280899132Y-91920432D01*
X281327704Y-92872812D02*
X281327704Y-91872812D01*
X281327704Y-92349003D02*
X281899132Y-92349003D01*
X281899132Y-92872812D02*
X281899132Y-91872812D01*
X256422942Y-92825193D02*
X256565799Y-92872812D01*
X256803894Y-92872812D01*
X256899132Y-92825193D01*
X256946751Y-92777574D01*
X256994370Y-92682336D01*
X256994370Y-92587098D01*
X256946751Y-92491860D01*
X256899132Y-92444241D01*
X256803894Y-92396622D01*
X256613418Y-92349003D01*
X256518180Y-92301384D01*
X256470561Y-92253765D01*
X256422942Y-92158527D01*
X256422942Y-92063289D01*
X256470561Y-91968051D01*
X256518180Y-91920432D01*
X256613418Y-91872812D01*
X256851513Y-91872812D01*
X256994370Y-91920432D01*
X257327704Y-91872812D02*
X257565799Y-92872812D01*
X257756275Y-92158527D01*
X257946751Y-92872812D01*
X258184847Y-91872812D01*
X258327704Y-92968051D02*
X259089608Y-92968051D01*
X259327704Y-92872812D02*
X259327704Y-91872812D01*
X259708656Y-91872812D01*
X259803894Y-91920432D01*
X259851513Y-91968051D01*
X259899132Y-92063289D01*
X259899132Y-92206146D01*
X259851513Y-92301384D01*
X259803894Y-92349003D01*
X259708656Y-92396622D01*
X259327704Y-92396622D01*
X260327704Y-91872812D02*
X260327704Y-92682336D01*
X260375323Y-92777574D01*
X260422942Y-92825193D01*
X260518180Y-92872812D01*
X260708656Y-92872812D01*
X260803894Y-92825193D01*
X260851513Y-92777574D01*
X260899132Y-92682336D01*
X260899132Y-91872812D01*
X261327704Y-92825193D02*
X261470561Y-92872812D01*
X261708656Y-92872812D01*
X261803894Y-92825193D01*
X261851513Y-92777574D01*
X261899132Y-92682336D01*
X261899132Y-92587098D01*
X261851513Y-92491860D01*
X261803894Y-92444241D01*
X261708656Y-92396622D01*
X261518180Y-92349003D01*
X261422942Y-92301384D01*
X261375323Y-92253765D01*
X261327704Y-92158527D01*
X261327704Y-92063289D01*
X261375323Y-91968051D01*
X261422942Y-91920432D01*
X261518180Y-91872812D01*
X261756275Y-91872812D01*
X261899132Y-91920432D01*
X262327704Y-92872812D02*
X262327704Y-91872812D01*
X262327704Y-92349003D02*
X262899132Y-92349003D01*
X262899132Y-92872812D02*
X262899132Y-91872812D01*
X237422942Y-88075193D02*
X237565799Y-88122812D01*
X237803894Y-88122812D01*
X237899132Y-88075193D01*
X237946751Y-88027574D01*
X237994370Y-87932336D01*
X237994370Y-87837098D01*
X237946751Y-87741860D01*
X237899132Y-87694241D01*
X237803894Y-87646622D01*
X237613418Y-87599003D01*
X237518180Y-87551384D01*
X237470561Y-87503765D01*
X237422942Y-87408527D01*
X237422942Y-87313289D01*
X237470561Y-87218051D01*
X237518180Y-87170432D01*
X237613418Y-87122812D01*
X237851513Y-87122812D01*
X237994370Y-87170432D01*
X238327704Y-87122812D02*
X238565799Y-88122812D01*
X238756275Y-87408527D01*
X238946751Y-88122812D01*
X239184847Y-87122812D01*
X239327704Y-88218051D02*
X240089608Y-88218051D01*
X240327704Y-88122812D02*
X240327704Y-87122812D01*
X240708656Y-87122812D01*
X240803894Y-87170432D01*
X240851513Y-87218051D01*
X240899132Y-87313289D01*
X240899132Y-87456146D01*
X240851513Y-87551384D01*
X240803894Y-87599003D01*
X240708656Y-87646622D01*
X240327704Y-87646622D01*
X241327704Y-87122812D02*
X241327704Y-87932336D01*
X241375323Y-88027574D01*
X241422942Y-88075193D01*
X241518180Y-88122812D01*
X241708656Y-88122812D01*
X241803894Y-88075193D01*
X241851513Y-88027574D01*
X241899132Y-87932336D01*
X241899132Y-87122812D01*
X242327704Y-88075193D02*
X242470561Y-88122812D01*
X242708656Y-88122812D01*
X242803894Y-88075193D01*
X242851513Y-88027574D01*
X242899132Y-87932336D01*
X242899132Y-87837098D01*
X242851513Y-87741860D01*
X242803894Y-87694241D01*
X242708656Y-87646622D01*
X242518180Y-87599003D01*
X242422942Y-87551384D01*
X242375323Y-87503765D01*
X242327704Y-87408527D01*
X242327704Y-87313289D01*
X242375323Y-87218051D01*
X242422942Y-87170432D01*
X242518180Y-87122812D01*
X242756275Y-87122812D01*
X242899132Y-87170432D01*
X243327704Y-88122812D02*
X243327704Y-87122812D01*
X243327704Y-87599003D02*
X243899132Y-87599003D01*
X243899132Y-88122812D02*
X243899132Y-87122812D01*
X218422942Y-85700193D02*
X218565799Y-85747812D01*
X218803894Y-85747812D01*
X218899132Y-85700193D01*
X218946751Y-85652574D01*
X218994370Y-85557336D01*
X218994370Y-85462098D01*
X218946751Y-85366860D01*
X218899132Y-85319241D01*
X218803894Y-85271622D01*
X218613418Y-85224003D01*
X218518180Y-85176384D01*
X218470561Y-85128765D01*
X218422942Y-85033527D01*
X218422942Y-84938289D01*
X218470561Y-84843051D01*
X218518180Y-84795432D01*
X218613418Y-84747812D01*
X218851513Y-84747812D01*
X218994370Y-84795432D01*
X219327704Y-84747812D02*
X219565799Y-85747812D01*
X219756275Y-85033527D01*
X219946751Y-85747812D01*
X220184847Y-84747812D01*
X220327704Y-85843051D02*
X221089608Y-85843051D01*
X221327704Y-85747812D02*
X221327704Y-84747812D01*
X221708656Y-84747812D01*
X221803894Y-84795432D01*
X221851513Y-84843051D01*
X221899132Y-84938289D01*
X221899132Y-85081146D01*
X221851513Y-85176384D01*
X221803894Y-85224003D01*
X221708656Y-85271622D01*
X221327704Y-85271622D01*
X222327704Y-84747812D02*
X222327704Y-85557336D01*
X222375323Y-85652574D01*
X222422942Y-85700193D01*
X222518180Y-85747812D01*
X222708656Y-85747812D01*
X222803894Y-85700193D01*
X222851513Y-85652574D01*
X222899132Y-85557336D01*
X222899132Y-84747812D01*
X223327704Y-85700193D02*
X223470561Y-85747812D01*
X223708656Y-85747812D01*
X223803894Y-85700193D01*
X223851513Y-85652574D01*
X223899132Y-85557336D01*
X223899132Y-85462098D01*
X223851513Y-85366860D01*
X223803894Y-85319241D01*
X223708656Y-85271622D01*
X223518180Y-85224003D01*
X223422942Y-85176384D01*
X223375323Y-85128765D01*
X223327704Y-85033527D01*
X223327704Y-84938289D01*
X223375323Y-84843051D01*
X223422942Y-84795432D01*
X223518180Y-84747812D01*
X223756275Y-84747812D01*
X223899132Y-84795432D01*
X224327704Y-85747812D02*
X224327704Y-84747812D01*
X224327704Y-85224003D02*
X224899132Y-85224003D01*
X224899132Y-85747812D02*
X224899132Y-84747812D01*
X199422942Y-88075193D02*
X199565799Y-88122812D01*
X199803894Y-88122812D01*
X199899132Y-88075193D01*
X199946751Y-88027574D01*
X199994370Y-87932336D01*
X199994370Y-87837098D01*
X199946751Y-87741860D01*
X199899132Y-87694241D01*
X199803894Y-87646622D01*
X199613418Y-87599003D01*
X199518180Y-87551384D01*
X199470561Y-87503765D01*
X199422942Y-87408527D01*
X199422942Y-87313289D01*
X199470561Y-87218051D01*
X199518180Y-87170432D01*
X199613418Y-87122812D01*
X199851513Y-87122812D01*
X199994370Y-87170432D01*
X200327704Y-87122812D02*
X200565799Y-88122812D01*
X200756275Y-87408527D01*
X200946751Y-88122812D01*
X201184847Y-87122812D01*
X201327704Y-88218051D02*
X202089608Y-88218051D01*
X202327704Y-88122812D02*
X202327704Y-87122812D01*
X202708656Y-87122812D01*
X202803894Y-87170432D01*
X202851513Y-87218051D01*
X202899132Y-87313289D01*
X202899132Y-87456146D01*
X202851513Y-87551384D01*
X202803894Y-87599003D01*
X202708656Y-87646622D01*
X202327704Y-87646622D01*
X203327704Y-87122812D02*
X203327704Y-87932336D01*
X203375323Y-88027574D01*
X203422942Y-88075193D01*
X203518180Y-88122812D01*
X203708656Y-88122812D01*
X203803894Y-88075193D01*
X203851513Y-88027574D01*
X203899132Y-87932336D01*
X203899132Y-87122812D01*
X204327704Y-88075193D02*
X204470561Y-88122812D01*
X204708656Y-88122812D01*
X204803894Y-88075193D01*
X204851513Y-88027574D01*
X204899132Y-87932336D01*
X204899132Y-87837098D01*
X204851513Y-87741860D01*
X204803894Y-87694241D01*
X204708656Y-87646622D01*
X204518180Y-87599003D01*
X204422942Y-87551384D01*
X204375323Y-87503765D01*
X204327704Y-87408527D01*
X204327704Y-87313289D01*
X204375323Y-87218051D01*
X204422942Y-87170432D01*
X204518180Y-87122812D01*
X204756275Y-87122812D01*
X204899132Y-87170432D01*
X205327704Y-88122812D02*
X205327704Y-87122812D01*
X205327704Y-87599003D02*
X205899132Y-87599003D01*
X205899132Y-88122812D02*
X205899132Y-87122812D01*
X208922942Y-107700193D02*
X209065799Y-107747812D01*
X209303894Y-107747812D01*
X209399132Y-107700193D01*
X209446751Y-107652574D01*
X209494370Y-107557336D01*
X209494370Y-107462098D01*
X209446751Y-107366860D01*
X209399132Y-107319241D01*
X209303894Y-107271622D01*
X209113418Y-107224003D01*
X209018180Y-107176384D01*
X208970561Y-107128765D01*
X208922942Y-107033527D01*
X208922942Y-106938289D01*
X208970561Y-106843051D01*
X209018180Y-106795432D01*
X209113418Y-106747812D01*
X209351513Y-106747812D01*
X209494370Y-106795432D01*
X209827704Y-106747812D02*
X210065799Y-107747812D01*
X210256275Y-107033527D01*
X210446751Y-107747812D01*
X210684847Y-106747812D01*
X210827704Y-107843051D02*
X211589608Y-107843051D01*
X211827704Y-107747812D02*
X211827704Y-106747812D01*
X212208656Y-106747812D01*
X212303894Y-106795432D01*
X212351513Y-106843051D01*
X212399132Y-106938289D01*
X212399132Y-107081146D01*
X212351513Y-107176384D01*
X212303894Y-107224003D01*
X212208656Y-107271622D01*
X211827704Y-107271622D01*
X212827704Y-106747812D02*
X212827704Y-107557336D01*
X212875323Y-107652574D01*
X212922942Y-107700193D01*
X213018180Y-107747812D01*
X213208656Y-107747812D01*
X213303894Y-107700193D01*
X213351513Y-107652574D01*
X213399132Y-107557336D01*
X213399132Y-106747812D01*
X213827704Y-107700193D02*
X213970561Y-107747812D01*
X214208656Y-107747812D01*
X214303894Y-107700193D01*
X214351513Y-107652574D01*
X214399132Y-107557336D01*
X214399132Y-107462098D01*
X214351513Y-107366860D01*
X214303894Y-107319241D01*
X214208656Y-107271622D01*
X214018180Y-107224003D01*
X213922942Y-107176384D01*
X213875323Y-107128765D01*
X213827704Y-107033527D01*
X213827704Y-106938289D01*
X213875323Y-106843051D01*
X213922942Y-106795432D01*
X214018180Y-106747812D01*
X214256275Y-106747812D01*
X214399132Y-106795432D01*
X214827704Y-107747812D02*
X214827704Y-106747812D01*
X214827704Y-107224003D02*
X215399132Y-107224003D01*
X215399132Y-107747812D02*
X215399132Y-106747812D01*
X190338811Y-110991015D02*
X190489125Y-111000037D01*
X190719107Y-110938413D01*
X190798775Y-110867767D01*
X190832447Y-110809446D01*
X190853794Y-110705129D01*
X190829145Y-110613136D01*
X190758499Y-110533467D01*
X190700177Y-110499796D01*
X190595860Y-110478449D01*
X190399549Y-110481751D01*
X190295232Y-110460404D01*
X190236910Y-110426732D01*
X190166265Y-110347064D01*
X190141615Y-110255071D01*
X190162962Y-110150753D01*
X190196634Y-110092432D01*
X190276302Y-110021786D01*
X190506284Y-109960163D01*
X190656599Y-109969185D01*
X190966249Y-109836916D02*
X191455050Y-110741218D01*
X191454166Y-110001972D01*
X191823022Y-110642620D01*
X191794186Y-109615071D01*
X192215643Y-110636015D02*
X192951587Y-110438820D01*
X193156920Y-110285203D02*
X192898101Y-109319277D01*
X193266072Y-109220680D01*
X193370390Y-109242027D01*
X193428711Y-109275699D01*
X193499357Y-109355367D01*
X193536331Y-109493356D01*
X193514984Y-109597674D01*
X193481313Y-109655995D01*
X193401644Y-109726641D01*
X193033673Y-109825239D01*
X193864027Y-109060458D02*
X194073547Y-109842398D01*
X194144193Y-109922067D01*
X194202514Y-109955738D01*
X194306831Y-109977085D01*
X194490817Y-109927787D01*
X194570486Y-109857141D01*
X194604157Y-109798819D01*
X194625504Y-109694502D01*
X194415984Y-108912562D01*
X195076447Y-109721569D02*
X195226761Y-109730591D01*
X195456743Y-109668967D01*
X195536411Y-109598322D01*
X195570083Y-109540000D01*
X195591430Y-109435683D01*
X195566781Y-109343690D01*
X195496135Y-109264022D01*
X195437814Y-109230350D01*
X195333496Y-109209003D01*
X195137185Y-109212305D01*
X195032868Y-109190958D01*
X194974547Y-109157286D01*
X194903901Y-109077618D01*
X194879251Y-108985625D01*
X194900598Y-108881308D01*
X194934270Y-108822986D01*
X195013938Y-108752341D01*
X195243921Y-108690717D01*
X195394235Y-108699739D01*
X196054697Y-109508746D02*
X195795878Y-108542820D01*
X195919125Y-109002785D02*
X196471083Y-108854888D01*
X196606655Y-109360850D02*
X196347836Y-108394924D01*
X180422942Y-90450193D02*
X180565799Y-90497812D01*
X180803894Y-90497812D01*
X180899132Y-90450193D01*
X180946751Y-90402574D01*
X180994370Y-90307336D01*
X180994370Y-90212098D01*
X180946751Y-90116860D01*
X180899132Y-90069241D01*
X180803894Y-90021622D01*
X180613418Y-89974003D01*
X180518180Y-89926384D01*
X180470561Y-89878765D01*
X180422942Y-89783527D01*
X180422942Y-89688289D01*
X180470561Y-89593051D01*
X180518180Y-89545432D01*
X180613418Y-89497812D01*
X180851513Y-89497812D01*
X180994370Y-89545432D01*
X181327704Y-89497812D02*
X181565799Y-90497812D01*
X181756275Y-89783527D01*
X181946751Y-90497812D01*
X182184847Y-89497812D01*
X182327704Y-90593051D02*
X183089608Y-90593051D01*
X183327704Y-90497812D02*
X183327704Y-89497812D01*
X183708656Y-89497812D01*
X183803894Y-89545432D01*
X183851513Y-89593051D01*
X183899132Y-89688289D01*
X183899132Y-89831146D01*
X183851513Y-89926384D01*
X183803894Y-89974003D01*
X183708656Y-90021622D01*
X183327704Y-90021622D01*
X184327704Y-89497812D02*
X184327704Y-90307336D01*
X184375323Y-90402574D01*
X184422942Y-90450193D01*
X184518180Y-90497812D01*
X184708656Y-90497812D01*
X184803894Y-90450193D01*
X184851513Y-90402574D01*
X184899132Y-90307336D01*
X184899132Y-89497812D01*
X185327704Y-90450193D02*
X185470561Y-90497812D01*
X185708656Y-90497812D01*
X185803894Y-90450193D01*
X185851513Y-90402574D01*
X185899132Y-90307336D01*
X185899132Y-90212098D01*
X185851513Y-90116860D01*
X185803894Y-90069241D01*
X185708656Y-90021622D01*
X185518180Y-89974003D01*
X185422942Y-89926384D01*
X185375323Y-89878765D01*
X185327704Y-89783527D01*
X185327704Y-89688289D01*
X185375323Y-89593051D01*
X185422942Y-89545432D01*
X185518180Y-89497812D01*
X185756275Y-89497812D01*
X185899132Y-89545432D01*
X186327704Y-90497812D02*
X186327704Y-89497812D01*
X186327704Y-89974003D02*
X186899132Y-89974003D01*
X186899132Y-90497812D02*
X186899132Y-89497812D01*
X113925595Y-52449761D02*
X114068452Y-52497380D01*
X114306547Y-52497380D01*
X114401785Y-52449761D01*
X114449404Y-52402142D01*
X114497023Y-52306904D01*
X114497023Y-52211666D01*
X114449404Y-52116428D01*
X114401785Y-52068809D01*
X114306547Y-52021190D01*
X114116071Y-51973571D01*
X114020833Y-51925952D01*
X113973214Y-51878333D01*
X113925595Y-51783095D01*
X113925595Y-51687857D01*
X113973214Y-51592619D01*
X114020833Y-51545000D01*
X114116071Y-51497380D01*
X114354166Y-51497380D01*
X114497023Y-51545000D01*
X114830357Y-51497380D02*
X115068452Y-52497380D01*
X115258928Y-51783095D01*
X115449404Y-52497380D01*
X115687500Y-51497380D01*
X115830357Y-52592619D02*
X116592261Y-52592619D01*
X116830357Y-52497380D02*
X116830357Y-51497380D01*
X117211309Y-51497380D01*
X117306547Y-51545000D01*
X117354166Y-51592619D01*
X117401785Y-51687857D01*
X117401785Y-51830714D01*
X117354166Y-51925952D01*
X117306547Y-51973571D01*
X117211309Y-52021190D01*
X116830357Y-52021190D01*
X117830357Y-51497380D02*
X117830357Y-52306904D01*
X117877976Y-52402142D01*
X117925595Y-52449761D01*
X118020833Y-52497380D01*
X118211309Y-52497380D01*
X118306547Y-52449761D01*
X118354166Y-52402142D01*
X118401785Y-52306904D01*
X118401785Y-51497380D01*
X118830357Y-52449761D02*
X118973214Y-52497380D01*
X119211309Y-52497380D01*
X119306547Y-52449761D01*
X119354166Y-52402142D01*
X119401785Y-52306904D01*
X119401785Y-52211666D01*
X119354166Y-52116428D01*
X119306547Y-52068809D01*
X119211309Y-52021190D01*
X119020833Y-51973571D01*
X118925595Y-51925952D01*
X118877976Y-51878333D01*
X118830357Y-51783095D01*
X118830357Y-51687857D01*
X118877976Y-51592619D01*
X118925595Y-51545000D01*
X119020833Y-51497380D01*
X119258928Y-51497380D01*
X119401785Y-51545000D01*
X119830357Y-52497380D02*
X119830357Y-51497380D01*
X119830357Y-51973571D02*
X120401785Y-51973571D01*
X120401785Y-52497380D02*
X120401785Y-51497380D01*
X94925595Y-50074761D02*
X95068452Y-50122380D01*
X95306547Y-50122380D01*
X95401785Y-50074761D01*
X95449404Y-50027142D01*
X95497023Y-49931904D01*
X95497023Y-49836666D01*
X95449404Y-49741428D01*
X95401785Y-49693809D01*
X95306547Y-49646190D01*
X95116071Y-49598571D01*
X95020833Y-49550952D01*
X94973214Y-49503333D01*
X94925595Y-49408095D01*
X94925595Y-49312857D01*
X94973214Y-49217619D01*
X95020833Y-49170000D01*
X95116071Y-49122380D01*
X95354166Y-49122380D01*
X95497023Y-49170000D01*
X95830357Y-49122380D02*
X96068452Y-50122380D01*
X96258928Y-49408095D01*
X96449404Y-50122380D01*
X96687500Y-49122380D01*
X96830357Y-50217619D02*
X97592261Y-50217619D01*
X97830357Y-50122380D02*
X97830357Y-49122380D01*
X98211309Y-49122380D01*
X98306547Y-49170000D01*
X98354166Y-49217619D01*
X98401785Y-49312857D01*
X98401785Y-49455714D01*
X98354166Y-49550952D01*
X98306547Y-49598571D01*
X98211309Y-49646190D01*
X97830357Y-49646190D01*
X98830357Y-49122380D02*
X98830357Y-49931904D01*
X98877976Y-50027142D01*
X98925595Y-50074761D01*
X99020833Y-50122380D01*
X99211309Y-50122380D01*
X99306547Y-50074761D01*
X99354166Y-50027142D01*
X99401785Y-49931904D01*
X99401785Y-49122380D01*
X99830357Y-50074761D02*
X99973214Y-50122380D01*
X100211309Y-50122380D01*
X100306547Y-50074761D01*
X100354166Y-50027142D01*
X100401785Y-49931904D01*
X100401785Y-49836666D01*
X100354166Y-49741428D01*
X100306547Y-49693809D01*
X100211309Y-49646190D01*
X100020833Y-49598571D01*
X99925595Y-49550952D01*
X99877976Y-49503333D01*
X99830357Y-49408095D01*
X99830357Y-49312857D01*
X99877976Y-49217619D01*
X99925595Y-49170000D01*
X100020833Y-49122380D01*
X100258928Y-49122380D01*
X100401785Y-49170000D01*
X100830357Y-50122380D02*
X100830357Y-49122380D01*
X100830357Y-49598571D02*
X101401785Y-49598571D01*
X101401785Y-50122380D02*
X101401785Y-49122380D01*
X75925595Y-47699761D02*
X76068452Y-47747380D01*
X76306547Y-47747380D01*
X76401785Y-47699761D01*
X76449404Y-47652142D01*
X76497023Y-47556904D01*
X76497023Y-47461666D01*
X76449404Y-47366428D01*
X76401785Y-47318809D01*
X76306547Y-47271190D01*
X76116071Y-47223571D01*
X76020833Y-47175952D01*
X75973214Y-47128333D01*
X75925595Y-47033095D01*
X75925595Y-46937857D01*
X75973214Y-46842619D01*
X76020833Y-46795000D01*
X76116071Y-46747380D01*
X76354166Y-46747380D01*
X76497023Y-46795000D01*
X76830357Y-46747380D02*
X77068452Y-47747380D01*
X77258928Y-47033095D01*
X77449404Y-47747380D01*
X77687500Y-46747380D01*
X77830357Y-47842619D02*
X78592261Y-47842619D01*
X78830357Y-47747380D02*
X78830357Y-46747380D01*
X79211309Y-46747380D01*
X79306547Y-46795000D01*
X79354166Y-46842619D01*
X79401785Y-46937857D01*
X79401785Y-47080714D01*
X79354166Y-47175952D01*
X79306547Y-47223571D01*
X79211309Y-47271190D01*
X78830357Y-47271190D01*
X79830357Y-46747380D02*
X79830357Y-47556904D01*
X79877976Y-47652142D01*
X79925595Y-47699761D01*
X80020833Y-47747380D01*
X80211309Y-47747380D01*
X80306547Y-47699761D01*
X80354166Y-47652142D01*
X80401785Y-47556904D01*
X80401785Y-46747380D01*
X80830357Y-47699761D02*
X80973214Y-47747380D01*
X81211309Y-47747380D01*
X81306547Y-47699761D01*
X81354166Y-47652142D01*
X81401785Y-47556904D01*
X81401785Y-47461666D01*
X81354166Y-47366428D01*
X81306547Y-47318809D01*
X81211309Y-47271190D01*
X81020833Y-47223571D01*
X80925595Y-47175952D01*
X80877976Y-47128333D01*
X80830357Y-47033095D01*
X80830357Y-46937857D01*
X80877976Y-46842619D01*
X80925595Y-46795000D01*
X81020833Y-46747380D01*
X81258928Y-46747380D01*
X81401785Y-46795000D01*
X81830357Y-47747380D02*
X81830357Y-46747380D01*
X81830357Y-47223571D02*
X82401785Y-47223571D01*
X82401785Y-47747380D02*
X82401785Y-46747380D01*
X56925595Y-50074761D02*
X57068452Y-50122380D01*
X57306547Y-50122380D01*
X57401785Y-50074761D01*
X57449404Y-50027142D01*
X57497023Y-49931904D01*
X57497023Y-49836666D01*
X57449404Y-49741428D01*
X57401785Y-49693809D01*
X57306547Y-49646190D01*
X57116071Y-49598571D01*
X57020833Y-49550952D01*
X56973214Y-49503333D01*
X56925595Y-49408095D01*
X56925595Y-49312857D01*
X56973214Y-49217619D01*
X57020833Y-49170000D01*
X57116071Y-49122380D01*
X57354166Y-49122380D01*
X57497023Y-49170000D01*
X57830357Y-49122380D02*
X58068452Y-50122380D01*
X58258928Y-49408095D01*
X58449404Y-50122380D01*
X58687500Y-49122380D01*
X58830357Y-50217619D02*
X59592261Y-50217619D01*
X59830357Y-50122380D02*
X59830357Y-49122380D01*
X60211309Y-49122380D01*
X60306547Y-49170000D01*
X60354166Y-49217619D01*
X60401785Y-49312857D01*
X60401785Y-49455714D01*
X60354166Y-49550952D01*
X60306547Y-49598571D01*
X60211309Y-49646190D01*
X59830357Y-49646190D01*
X60830357Y-49122380D02*
X60830357Y-49931904D01*
X60877976Y-50027142D01*
X60925595Y-50074761D01*
X61020833Y-50122380D01*
X61211309Y-50122380D01*
X61306547Y-50074761D01*
X61354166Y-50027142D01*
X61401785Y-49931904D01*
X61401785Y-49122380D01*
X61830357Y-50074761D02*
X61973214Y-50122380D01*
X62211309Y-50122380D01*
X62306547Y-50074761D01*
X62354166Y-50027142D01*
X62401785Y-49931904D01*
X62401785Y-49836666D01*
X62354166Y-49741428D01*
X62306547Y-49693809D01*
X62211309Y-49646190D01*
X62020833Y-49598571D01*
X61925595Y-49550952D01*
X61877976Y-49503333D01*
X61830357Y-49408095D01*
X61830357Y-49312857D01*
X61877976Y-49217619D01*
X61925595Y-49170000D01*
X62020833Y-49122380D01*
X62258928Y-49122380D01*
X62401785Y-49170000D01*
X62830357Y-50122380D02*
X62830357Y-49122380D01*
X62830357Y-49598571D02*
X63401785Y-49598571D01*
X63401785Y-50122380D02*
X63401785Y-49122380D01*
X37925595Y-54824761D02*
X38068452Y-54872380D01*
X38306547Y-54872380D01*
X38401785Y-54824761D01*
X38449404Y-54777142D01*
X38497023Y-54681904D01*
X38497023Y-54586666D01*
X38449404Y-54491428D01*
X38401785Y-54443809D01*
X38306547Y-54396190D01*
X38116071Y-54348571D01*
X38020833Y-54300952D01*
X37973214Y-54253333D01*
X37925595Y-54158095D01*
X37925595Y-54062857D01*
X37973214Y-53967619D01*
X38020833Y-53920000D01*
X38116071Y-53872380D01*
X38354166Y-53872380D01*
X38497023Y-53920000D01*
X38830357Y-53872380D02*
X39068452Y-54872380D01*
X39258928Y-54158095D01*
X39449404Y-54872380D01*
X39687500Y-53872380D01*
X39830357Y-54967619D02*
X40592261Y-54967619D01*
X40830357Y-54872380D02*
X40830357Y-53872380D01*
X41211309Y-53872380D01*
X41306547Y-53920000D01*
X41354166Y-53967619D01*
X41401785Y-54062857D01*
X41401785Y-54205714D01*
X41354166Y-54300952D01*
X41306547Y-54348571D01*
X41211309Y-54396190D01*
X40830357Y-54396190D01*
X41830357Y-53872380D02*
X41830357Y-54681904D01*
X41877976Y-54777142D01*
X41925595Y-54824761D01*
X42020833Y-54872380D01*
X42211309Y-54872380D01*
X42306547Y-54824761D01*
X42354166Y-54777142D01*
X42401785Y-54681904D01*
X42401785Y-53872380D01*
X42830357Y-54824761D02*
X42973214Y-54872380D01*
X43211309Y-54872380D01*
X43306547Y-54824761D01*
X43354166Y-54777142D01*
X43401785Y-54681904D01*
X43401785Y-54586666D01*
X43354166Y-54491428D01*
X43306547Y-54443809D01*
X43211309Y-54396190D01*
X43020833Y-54348571D01*
X42925595Y-54300952D01*
X42877976Y-54253333D01*
X42830357Y-54158095D01*
X42830357Y-54062857D01*
X42877976Y-53967619D01*
X42925595Y-53920000D01*
X43020833Y-53872380D01*
X43258928Y-53872380D01*
X43401785Y-53920000D01*
X43830357Y-54872380D02*
X43830357Y-53872380D01*
X43830357Y-54348571D02*
X44401785Y-54348571D01*
X44401785Y-54872380D02*
X44401785Y-53872380D01*
X113925595Y-90449761D02*
X114068452Y-90497380D01*
X114306547Y-90497380D01*
X114401785Y-90449761D01*
X114449404Y-90402142D01*
X114497023Y-90306904D01*
X114497023Y-90211666D01*
X114449404Y-90116428D01*
X114401785Y-90068809D01*
X114306547Y-90021190D01*
X114116071Y-89973571D01*
X114020833Y-89925952D01*
X113973214Y-89878333D01*
X113925595Y-89783095D01*
X113925595Y-89687857D01*
X113973214Y-89592619D01*
X114020833Y-89545000D01*
X114116071Y-89497380D01*
X114354166Y-89497380D01*
X114497023Y-89545000D01*
X114830357Y-89497380D02*
X115068452Y-90497380D01*
X115258928Y-89783095D01*
X115449404Y-90497380D01*
X115687500Y-89497380D01*
X115830357Y-90592619D02*
X116592261Y-90592619D01*
X116830357Y-90497380D02*
X116830357Y-89497380D01*
X117211309Y-89497380D01*
X117306547Y-89545000D01*
X117354166Y-89592619D01*
X117401785Y-89687857D01*
X117401785Y-89830714D01*
X117354166Y-89925952D01*
X117306547Y-89973571D01*
X117211309Y-90021190D01*
X116830357Y-90021190D01*
X117830357Y-89497380D02*
X117830357Y-90306904D01*
X117877976Y-90402142D01*
X117925595Y-90449761D01*
X118020833Y-90497380D01*
X118211309Y-90497380D01*
X118306547Y-90449761D01*
X118354166Y-90402142D01*
X118401785Y-90306904D01*
X118401785Y-89497380D01*
X118830357Y-90449761D02*
X118973214Y-90497380D01*
X119211309Y-90497380D01*
X119306547Y-90449761D01*
X119354166Y-90402142D01*
X119401785Y-90306904D01*
X119401785Y-90211666D01*
X119354166Y-90116428D01*
X119306547Y-90068809D01*
X119211309Y-90021190D01*
X119020833Y-89973571D01*
X118925595Y-89925952D01*
X118877976Y-89878333D01*
X118830357Y-89783095D01*
X118830357Y-89687857D01*
X118877976Y-89592619D01*
X118925595Y-89545000D01*
X119020833Y-89497380D01*
X119258928Y-89497380D01*
X119401785Y-89545000D01*
X119830357Y-90497380D02*
X119830357Y-89497380D01*
X119830357Y-89973571D02*
X120401785Y-89973571D01*
X120401785Y-90497380D02*
X120401785Y-89497380D01*
X138018297Y-112572273D02*
X138130965Y-112472364D01*
X138250013Y-112266168D01*
X138256392Y-112159880D01*
X138238963Y-112094831D01*
X138180294Y-112005973D01*
X138097815Y-111958354D01*
X137991527Y-111951974D01*
X137926478Y-111969404D01*
X137837620Y-112028073D01*
X137701142Y-112169220D01*
X137612284Y-112227889D01*
X137547235Y-112245319D01*
X137440947Y-112238940D01*
X137358468Y-112191320D01*
X137299799Y-112102462D01*
X137282369Y-112037413D01*
X137288749Y-111931125D01*
X137407797Y-111724929D01*
X137520465Y-111625020D01*
X137645892Y-111312536D02*
X138630965Y-111606339D01*
X138107614Y-111084239D01*
X138821441Y-111276425D01*
X138074463Y-110570228D01*
X139094396Y-110994129D02*
X139475348Y-110334300D01*
X139511917Y-110080485D02*
X138645892Y-109580485D01*
X138836368Y-109250570D01*
X138925227Y-109191901D01*
X138990275Y-109174471D01*
X139096564Y-109180851D01*
X139220281Y-109252280D01*
X139278951Y-109341138D01*
X139296380Y-109406187D01*
X139290001Y-109512475D01*
X139099524Y-109842390D01*
X139145892Y-108714459D02*
X139846960Y-109119221D01*
X139953248Y-109125601D01*
X140018297Y-109108171D01*
X140107156Y-109049502D01*
X140202394Y-108884545D01*
X140208773Y-108778257D01*
X140191344Y-108713208D01*
X140132675Y-108624350D01*
X139431606Y-108219588D01*
X140470678Y-108324624D02*
X140583346Y-108224716D01*
X140702394Y-108018520D01*
X140708773Y-107912231D01*
X140691344Y-107847183D01*
X140632675Y-107758324D01*
X140550196Y-107710705D01*
X140443908Y-107704325D01*
X140378859Y-107721755D01*
X140290001Y-107780424D01*
X140153523Y-107921572D01*
X140064665Y-107980241D01*
X139999616Y-107997671D01*
X139893328Y-107991291D01*
X139810849Y-107943672D01*
X139752180Y-107854814D01*
X139734750Y-107789765D01*
X139741130Y-107683477D01*
X139860178Y-107477280D01*
X139972846Y-107377372D01*
X141011917Y-107482409D02*
X140145892Y-106982409D01*
X140558285Y-107220504D02*
X140843999Y-106725632D01*
X141297632Y-106987537D02*
X140431606Y-106487537D01*
X18925595Y-92824761D02*
X19068452Y-92872380D01*
X19306547Y-92872380D01*
X19401785Y-92824761D01*
X19449404Y-92777142D01*
X19497023Y-92681904D01*
X19497023Y-92586666D01*
X19449404Y-92491428D01*
X19401785Y-92443809D01*
X19306547Y-92396190D01*
X19116071Y-92348571D01*
X19020833Y-92300952D01*
X18973214Y-92253333D01*
X18925595Y-92158095D01*
X18925595Y-92062857D01*
X18973214Y-91967619D01*
X19020833Y-91920000D01*
X19116071Y-91872380D01*
X19354166Y-91872380D01*
X19497023Y-91920000D01*
X19830357Y-91872380D02*
X20068452Y-92872380D01*
X20258928Y-92158095D01*
X20449404Y-92872380D01*
X20687500Y-91872380D01*
X20830357Y-92967619D02*
X21592261Y-92967619D01*
X21830357Y-92872380D02*
X21830357Y-91872380D01*
X22211309Y-91872380D01*
X22306547Y-91920000D01*
X22354166Y-91967619D01*
X22401785Y-92062857D01*
X22401785Y-92205714D01*
X22354166Y-92300952D01*
X22306547Y-92348571D01*
X22211309Y-92396190D01*
X21830357Y-92396190D01*
X22830357Y-91872380D02*
X22830357Y-92681904D01*
X22877976Y-92777142D01*
X22925595Y-92824761D01*
X23020833Y-92872380D01*
X23211309Y-92872380D01*
X23306547Y-92824761D01*
X23354166Y-92777142D01*
X23401785Y-92681904D01*
X23401785Y-91872380D01*
X23830357Y-92824761D02*
X23973214Y-92872380D01*
X24211309Y-92872380D01*
X24306547Y-92824761D01*
X24354166Y-92777142D01*
X24401785Y-92681904D01*
X24401785Y-92586666D01*
X24354166Y-92491428D01*
X24306547Y-92443809D01*
X24211309Y-92396190D01*
X24020833Y-92348571D01*
X23925595Y-92300952D01*
X23877976Y-92253333D01*
X23830357Y-92158095D01*
X23830357Y-92062857D01*
X23877976Y-91967619D01*
X23925595Y-91920000D01*
X24020833Y-91872380D01*
X24258928Y-91872380D01*
X24401785Y-91920000D01*
X24830357Y-92872380D02*
X24830357Y-91872380D01*
X24830357Y-92348571D02*
X25401785Y-92348571D01*
X25401785Y-92872380D02*
X25401785Y-91872380D01*
X104232019Y-109302096D02*
X104357684Y-109385067D01*
X104587666Y-109446691D01*
X104691984Y-109425344D01*
X104750305Y-109391672D01*
X104820951Y-109312004D01*
X104845601Y-109220011D01*
X104824254Y-109115693D01*
X104790582Y-109057372D01*
X104710914Y-108986726D01*
X104539252Y-108891431D01*
X104459584Y-108820785D01*
X104425912Y-108762464D01*
X104404565Y-108658146D01*
X104429215Y-108566153D01*
X104499861Y-108486485D01*
X104558182Y-108452813D01*
X104662500Y-108431466D01*
X104892482Y-108493089D01*
X105018147Y-108576060D01*
X105352447Y-108616337D02*
X105323610Y-109643886D01*
X105692466Y-109003238D01*
X105691582Y-109742484D01*
X106180383Y-108838182D01*
X106034904Y-109933074D02*
X106770847Y-110130270D01*
X107025479Y-110099901D02*
X107284298Y-109133975D01*
X107652270Y-109232572D01*
X107731938Y-109303218D01*
X107765610Y-109361540D01*
X107786957Y-109465857D01*
X107749983Y-109603847D01*
X107679337Y-109683515D01*
X107621016Y-109717187D01*
X107516698Y-109738534D01*
X107148726Y-109639936D01*
X108250224Y-109392794D02*
X108040704Y-110174734D01*
X108062051Y-110279051D01*
X108095723Y-110337373D01*
X108175391Y-110408018D01*
X108359377Y-110457317D01*
X108463694Y-110435970D01*
X108522016Y-110402299D01*
X108592661Y-110322630D01*
X108802182Y-109540690D01*
X108969656Y-110571542D02*
X109095320Y-110654513D01*
X109325303Y-110716136D01*
X109429620Y-110694789D01*
X109487941Y-110661118D01*
X109558587Y-110581449D01*
X109583237Y-110489456D01*
X109561890Y-110385139D01*
X109528218Y-110326818D01*
X109448550Y-110256172D01*
X109276889Y-110160876D01*
X109197220Y-110090230D01*
X109163549Y-110031909D01*
X109142202Y-109927592D01*
X109166851Y-109835599D01*
X109237497Y-109755930D01*
X109295818Y-109722259D01*
X109400136Y-109700912D01*
X109630118Y-109762535D01*
X109755783Y-109845506D01*
X109923257Y-110876358D02*
X110182076Y-109910432D01*
X110058829Y-110370397D02*
X110610786Y-110518293D01*
X110475214Y-111024254D02*
X110734033Y-110058328D01*
X85425595Y-107699761D02*
X85568452Y-107747380D01*
X85806547Y-107747380D01*
X85901785Y-107699761D01*
X85949404Y-107652142D01*
X85997023Y-107556904D01*
X85997023Y-107461666D01*
X85949404Y-107366428D01*
X85901785Y-107318809D01*
X85806547Y-107271190D01*
X85616071Y-107223571D01*
X85520833Y-107175952D01*
X85473214Y-107128333D01*
X85425595Y-107033095D01*
X85425595Y-106937857D01*
X85473214Y-106842619D01*
X85520833Y-106795000D01*
X85616071Y-106747380D01*
X85854166Y-106747380D01*
X85997023Y-106795000D01*
X86330357Y-106747380D02*
X86568452Y-107747380D01*
X86758928Y-107033095D01*
X86949404Y-107747380D01*
X87187500Y-106747380D01*
X87330357Y-107842619D02*
X88092261Y-107842619D01*
X88330357Y-107747380D02*
X88330357Y-106747380D01*
X88711309Y-106747380D01*
X88806547Y-106795000D01*
X88854166Y-106842619D01*
X88901785Y-106937857D01*
X88901785Y-107080714D01*
X88854166Y-107175952D01*
X88806547Y-107223571D01*
X88711309Y-107271190D01*
X88330357Y-107271190D01*
X89330357Y-106747380D02*
X89330357Y-107556904D01*
X89377976Y-107652142D01*
X89425595Y-107699761D01*
X89520833Y-107747380D01*
X89711309Y-107747380D01*
X89806547Y-107699761D01*
X89854166Y-107652142D01*
X89901785Y-107556904D01*
X89901785Y-106747380D01*
X90330357Y-107699761D02*
X90473214Y-107747380D01*
X90711309Y-107747380D01*
X90806547Y-107699761D01*
X90854166Y-107652142D01*
X90901785Y-107556904D01*
X90901785Y-107461666D01*
X90854166Y-107366428D01*
X90806547Y-107318809D01*
X90711309Y-107271190D01*
X90520833Y-107223571D01*
X90425595Y-107175952D01*
X90377976Y-107128333D01*
X90330357Y-107033095D01*
X90330357Y-106937857D01*
X90377976Y-106842619D01*
X90425595Y-106795000D01*
X90520833Y-106747380D01*
X90758928Y-106747380D01*
X90901785Y-106795000D01*
X91330357Y-107747380D02*
X91330357Y-106747380D01*
X91330357Y-107223571D02*
X91901785Y-107223571D01*
X91901785Y-107747380D02*
X91901785Y-106747380D01*
X94925595Y-88074761D02*
X95068452Y-88122380D01*
X95306547Y-88122380D01*
X95401785Y-88074761D01*
X95449404Y-88027142D01*
X95497023Y-87931904D01*
X95497023Y-87836666D01*
X95449404Y-87741428D01*
X95401785Y-87693809D01*
X95306547Y-87646190D01*
X95116071Y-87598571D01*
X95020833Y-87550952D01*
X94973214Y-87503333D01*
X94925595Y-87408095D01*
X94925595Y-87312857D01*
X94973214Y-87217619D01*
X95020833Y-87170000D01*
X95116071Y-87122380D01*
X95354166Y-87122380D01*
X95497023Y-87170000D01*
X95830357Y-87122380D02*
X96068452Y-88122380D01*
X96258928Y-87408095D01*
X96449404Y-88122380D01*
X96687500Y-87122380D01*
X96830357Y-88217619D02*
X97592261Y-88217619D01*
X97830357Y-88122380D02*
X97830357Y-87122380D01*
X98211309Y-87122380D01*
X98306547Y-87170000D01*
X98354166Y-87217619D01*
X98401785Y-87312857D01*
X98401785Y-87455714D01*
X98354166Y-87550952D01*
X98306547Y-87598571D01*
X98211309Y-87646190D01*
X97830357Y-87646190D01*
X98830357Y-87122380D02*
X98830357Y-87931904D01*
X98877976Y-88027142D01*
X98925595Y-88074761D01*
X99020833Y-88122380D01*
X99211309Y-88122380D01*
X99306547Y-88074761D01*
X99354166Y-88027142D01*
X99401785Y-87931904D01*
X99401785Y-87122380D01*
X99830357Y-88074761D02*
X99973214Y-88122380D01*
X100211309Y-88122380D01*
X100306547Y-88074761D01*
X100354166Y-88027142D01*
X100401785Y-87931904D01*
X100401785Y-87836666D01*
X100354166Y-87741428D01*
X100306547Y-87693809D01*
X100211309Y-87646190D01*
X100020833Y-87598571D01*
X99925595Y-87550952D01*
X99877976Y-87503333D01*
X99830357Y-87408095D01*
X99830357Y-87312857D01*
X99877976Y-87217619D01*
X99925595Y-87170000D01*
X100020833Y-87122380D01*
X100258928Y-87122380D01*
X100401785Y-87170000D01*
X100830357Y-88122380D02*
X100830357Y-87122380D01*
X100830357Y-87598571D02*
X101401785Y-87598571D01*
X101401785Y-88122380D02*
X101401785Y-87122380D01*
X75925595Y-85699761D02*
X76068452Y-85747380D01*
X76306547Y-85747380D01*
X76401785Y-85699761D01*
X76449404Y-85652142D01*
X76497023Y-85556904D01*
X76497023Y-85461666D01*
X76449404Y-85366428D01*
X76401785Y-85318809D01*
X76306547Y-85271190D01*
X76116071Y-85223571D01*
X76020833Y-85175952D01*
X75973214Y-85128333D01*
X75925595Y-85033095D01*
X75925595Y-84937857D01*
X75973214Y-84842619D01*
X76020833Y-84795000D01*
X76116071Y-84747380D01*
X76354166Y-84747380D01*
X76497023Y-84795000D01*
X76830357Y-84747380D02*
X77068452Y-85747380D01*
X77258928Y-85033095D01*
X77449404Y-85747380D01*
X77687500Y-84747380D01*
X77830357Y-85842619D02*
X78592261Y-85842619D01*
X78830357Y-85747380D02*
X78830357Y-84747380D01*
X79211309Y-84747380D01*
X79306547Y-84795000D01*
X79354166Y-84842619D01*
X79401785Y-84937857D01*
X79401785Y-85080714D01*
X79354166Y-85175952D01*
X79306547Y-85223571D01*
X79211309Y-85271190D01*
X78830357Y-85271190D01*
X79830357Y-84747380D02*
X79830357Y-85556904D01*
X79877976Y-85652142D01*
X79925595Y-85699761D01*
X80020833Y-85747380D01*
X80211309Y-85747380D01*
X80306547Y-85699761D01*
X80354166Y-85652142D01*
X80401785Y-85556904D01*
X80401785Y-84747380D01*
X80830357Y-85699761D02*
X80973214Y-85747380D01*
X81211309Y-85747380D01*
X81306547Y-85699761D01*
X81354166Y-85652142D01*
X81401785Y-85556904D01*
X81401785Y-85461666D01*
X81354166Y-85366428D01*
X81306547Y-85318809D01*
X81211309Y-85271190D01*
X81020833Y-85223571D01*
X80925595Y-85175952D01*
X80877976Y-85128333D01*
X80830357Y-85033095D01*
X80830357Y-84937857D01*
X80877976Y-84842619D01*
X80925595Y-84795000D01*
X81020833Y-84747380D01*
X81258928Y-84747380D01*
X81401785Y-84795000D01*
X81830357Y-85747380D02*
X81830357Y-84747380D01*
X81830357Y-85223571D02*
X82401785Y-85223571D01*
X82401785Y-85747380D02*
X82401785Y-84747380D01*
X56925595Y-88074761D02*
X57068452Y-88122380D01*
X57306547Y-88122380D01*
X57401785Y-88074761D01*
X57449404Y-88027142D01*
X57497023Y-87931904D01*
X57497023Y-87836666D01*
X57449404Y-87741428D01*
X57401785Y-87693809D01*
X57306547Y-87646190D01*
X57116071Y-87598571D01*
X57020833Y-87550952D01*
X56973214Y-87503333D01*
X56925595Y-87408095D01*
X56925595Y-87312857D01*
X56973214Y-87217619D01*
X57020833Y-87170000D01*
X57116071Y-87122380D01*
X57354166Y-87122380D01*
X57497023Y-87170000D01*
X57830357Y-87122380D02*
X58068452Y-88122380D01*
X58258928Y-87408095D01*
X58449404Y-88122380D01*
X58687500Y-87122380D01*
X58830357Y-88217619D02*
X59592261Y-88217619D01*
X59830357Y-88122380D02*
X59830357Y-87122380D01*
X60211309Y-87122380D01*
X60306547Y-87170000D01*
X60354166Y-87217619D01*
X60401785Y-87312857D01*
X60401785Y-87455714D01*
X60354166Y-87550952D01*
X60306547Y-87598571D01*
X60211309Y-87646190D01*
X59830357Y-87646190D01*
X60830357Y-87122380D02*
X60830357Y-87931904D01*
X60877976Y-88027142D01*
X60925595Y-88074761D01*
X61020833Y-88122380D01*
X61211309Y-88122380D01*
X61306547Y-88074761D01*
X61354166Y-88027142D01*
X61401785Y-87931904D01*
X61401785Y-87122380D01*
X61830357Y-88074761D02*
X61973214Y-88122380D01*
X62211309Y-88122380D01*
X62306547Y-88074761D01*
X62354166Y-88027142D01*
X62401785Y-87931904D01*
X62401785Y-87836666D01*
X62354166Y-87741428D01*
X62306547Y-87693809D01*
X62211309Y-87646190D01*
X62020833Y-87598571D01*
X61925595Y-87550952D01*
X61877976Y-87503333D01*
X61830357Y-87408095D01*
X61830357Y-87312857D01*
X61877976Y-87217619D01*
X61925595Y-87170000D01*
X62020833Y-87122380D01*
X62258928Y-87122380D01*
X62401785Y-87170000D01*
X62830357Y-88122380D02*
X62830357Y-87122380D01*
X62830357Y-87598571D02*
X63401785Y-87598571D01*
X63401785Y-88122380D02*
X63401785Y-87122380D01*
X37925595Y-92824761D02*
X38068452Y-92872380D01*
X38306547Y-92872380D01*
X38401785Y-92824761D01*
X38449404Y-92777142D01*
X38497023Y-92681904D01*
X38497023Y-92586666D01*
X38449404Y-92491428D01*
X38401785Y-92443809D01*
X38306547Y-92396190D01*
X38116071Y-92348571D01*
X38020833Y-92300952D01*
X37973214Y-92253333D01*
X37925595Y-92158095D01*
X37925595Y-92062857D01*
X37973214Y-91967619D01*
X38020833Y-91920000D01*
X38116071Y-91872380D01*
X38354166Y-91872380D01*
X38497023Y-91920000D01*
X38830357Y-91872380D02*
X39068452Y-92872380D01*
X39258928Y-92158095D01*
X39449404Y-92872380D01*
X39687500Y-91872380D01*
X39830357Y-92967619D02*
X40592261Y-92967619D01*
X40830357Y-92872380D02*
X40830357Y-91872380D01*
X41211309Y-91872380D01*
X41306547Y-91920000D01*
X41354166Y-91967619D01*
X41401785Y-92062857D01*
X41401785Y-92205714D01*
X41354166Y-92300952D01*
X41306547Y-92348571D01*
X41211309Y-92396190D01*
X40830357Y-92396190D01*
X41830357Y-91872380D02*
X41830357Y-92681904D01*
X41877976Y-92777142D01*
X41925595Y-92824761D01*
X42020833Y-92872380D01*
X42211309Y-92872380D01*
X42306547Y-92824761D01*
X42354166Y-92777142D01*
X42401785Y-92681904D01*
X42401785Y-91872380D01*
X42830357Y-92824761D02*
X42973214Y-92872380D01*
X43211309Y-92872380D01*
X43306547Y-92824761D01*
X43354166Y-92777142D01*
X43401785Y-92681904D01*
X43401785Y-92586666D01*
X43354166Y-92491428D01*
X43306547Y-92443809D01*
X43211309Y-92396190D01*
X43020833Y-92348571D01*
X42925595Y-92300952D01*
X42877976Y-92253333D01*
X42830357Y-92158095D01*
X42830357Y-92062857D01*
X42877976Y-91967619D01*
X42925595Y-91920000D01*
X43020833Y-91872380D01*
X43258928Y-91872380D01*
X43401785Y-91920000D01*
X43830357Y-92872380D02*
X43830357Y-91872380D01*
X43830357Y-92348571D02*
X44401785Y-92348571D01*
X44401785Y-92872380D02*
X44401785Y-91872380D01*
X113925595Y-71449761D02*
X114068452Y-71497380D01*
X114306547Y-71497380D01*
X114401785Y-71449761D01*
X114449404Y-71402142D01*
X114497023Y-71306904D01*
X114497023Y-71211666D01*
X114449404Y-71116428D01*
X114401785Y-71068809D01*
X114306547Y-71021190D01*
X114116071Y-70973571D01*
X114020833Y-70925952D01*
X113973214Y-70878333D01*
X113925595Y-70783095D01*
X113925595Y-70687857D01*
X113973214Y-70592619D01*
X114020833Y-70545000D01*
X114116071Y-70497380D01*
X114354166Y-70497380D01*
X114497023Y-70545000D01*
X114830357Y-70497380D02*
X115068452Y-71497380D01*
X115258928Y-70783095D01*
X115449404Y-71497380D01*
X115687500Y-70497380D01*
X115830357Y-71592619D02*
X116592261Y-71592619D01*
X116830357Y-71497380D02*
X116830357Y-70497380D01*
X117211309Y-70497380D01*
X117306547Y-70545000D01*
X117354166Y-70592619D01*
X117401785Y-70687857D01*
X117401785Y-70830714D01*
X117354166Y-70925952D01*
X117306547Y-70973571D01*
X117211309Y-71021190D01*
X116830357Y-71021190D01*
X117830357Y-70497380D02*
X117830357Y-71306904D01*
X117877976Y-71402142D01*
X117925595Y-71449761D01*
X118020833Y-71497380D01*
X118211309Y-71497380D01*
X118306547Y-71449761D01*
X118354166Y-71402142D01*
X118401785Y-71306904D01*
X118401785Y-70497380D01*
X118830357Y-71449761D02*
X118973214Y-71497380D01*
X119211309Y-71497380D01*
X119306547Y-71449761D01*
X119354166Y-71402142D01*
X119401785Y-71306904D01*
X119401785Y-71211666D01*
X119354166Y-71116428D01*
X119306547Y-71068809D01*
X119211309Y-71021190D01*
X119020833Y-70973571D01*
X118925595Y-70925952D01*
X118877976Y-70878333D01*
X118830357Y-70783095D01*
X118830357Y-70687857D01*
X118877976Y-70592619D01*
X118925595Y-70545000D01*
X119020833Y-70497380D01*
X119258928Y-70497380D01*
X119401785Y-70545000D01*
X119830357Y-71497380D02*
X119830357Y-70497380D01*
X119830357Y-70973571D02*
X120401785Y-70973571D01*
X120401785Y-71497380D02*
X120401785Y-70497380D01*
X94925595Y-69074761D02*
X95068452Y-69122380D01*
X95306547Y-69122380D01*
X95401785Y-69074761D01*
X95449404Y-69027142D01*
X95497023Y-68931904D01*
X95497023Y-68836666D01*
X95449404Y-68741428D01*
X95401785Y-68693809D01*
X95306547Y-68646190D01*
X95116071Y-68598571D01*
X95020833Y-68550952D01*
X94973214Y-68503333D01*
X94925595Y-68408095D01*
X94925595Y-68312857D01*
X94973214Y-68217619D01*
X95020833Y-68170000D01*
X95116071Y-68122380D01*
X95354166Y-68122380D01*
X95497023Y-68170000D01*
X95830357Y-68122380D02*
X96068452Y-69122380D01*
X96258928Y-68408095D01*
X96449404Y-69122380D01*
X96687500Y-68122380D01*
X96830357Y-69217619D02*
X97592261Y-69217619D01*
X97830357Y-69122380D02*
X97830357Y-68122380D01*
X98211309Y-68122380D01*
X98306547Y-68170000D01*
X98354166Y-68217619D01*
X98401785Y-68312857D01*
X98401785Y-68455714D01*
X98354166Y-68550952D01*
X98306547Y-68598571D01*
X98211309Y-68646190D01*
X97830357Y-68646190D01*
X98830357Y-68122380D02*
X98830357Y-68931904D01*
X98877976Y-69027142D01*
X98925595Y-69074761D01*
X99020833Y-69122380D01*
X99211309Y-69122380D01*
X99306547Y-69074761D01*
X99354166Y-69027142D01*
X99401785Y-68931904D01*
X99401785Y-68122380D01*
X99830357Y-69074761D02*
X99973214Y-69122380D01*
X100211309Y-69122380D01*
X100306547Y-69074761D01*
X100354166Y-69027142D01*
X100401785Y-68931904D01*
X100401785Y-68836666D01*
X100354166Y-68741428D01*
X100306547Y-68693809D01*
X100211309Y-68646190D01*
X100020833Y-68598571D01*
X99925595Y-68550952D01*
X99877976Y-68503333D01*
X99830357Y-68408095D01*
X99830357Y-68312857D01*
X99877976Y-68217619D01*
X99925595Y-68170000D01*
X100020833Y-68122380D01*
X100258928Y-68122380D01*
X100401785Y-68170000D01*
X100830357Y-69122380D02*
X100830357Y-68122380D01*
X100830357Y-68598571D02*
X101401785Y-68598571D01*
X101401785Y-69122380D02*
X101401785Y-68122380D01*
X75925595Y-66699761D02*
X76068452Y-66747380D01*
X76306547Y-66747380D01*
X76401785Y-66699761D01*
X76449404Y-66652142D01*
X76497023Y-66556904D01*
X76497023Y-66461666D01*
X76449404Y-66366428D01*
X76401785Y-66318809D01*
X76306547Y-66271190D01*
X76116071Y-66223571D01*
X76020833Y-66175952D01*
X75973214Y-66128333D01*
X75925595Y-66033095D01*
X75925595Y-65937857D01*
X75973214Y-65842619D01*
X76020833Y-65795000D01*
X76116071Y-65747380D01*
X76354166Y-65747380D01*
X76497023Y-65795000D01*
X76830357Y-65747380D02*
X77068452Y-66747380D01*
X77258928Y-66033095D01*
X77449404Y-66747380D01*
X77687500Y-65747380D01*
X77830357Y-66842619D02*
X78592261Y-66842619D01*
X78830357Y-66747380D02*
X78830357Y-65747380D01*
X79211309Y-65747380D01*
X79306547Y-65795000D01*
X79354166Y-65842619D01*
X79401785Y-65937857D01*
X79401785Y-66080714D01*
X79354166Y-66175952D01*
X79306547Y-66223571D01*
X79211309Y-66271190D01*
X78830357Y-66271190D01*
X79830357Y-65747380D02*
X79830357Y-66556904D01*
X79877976Y-66652142D01*
X79925595Y-66699761D01*
X80020833Y-66747380D01*
X80211309Y-66747380D01*
X80306547Y-66699761D01*
X80354166Y-66652142D01*
X80401785Y-66556904D01*
X80401785Y-65747380D01*
X80830357Y-66699761D02*
X80973214Y-66747380D01*
X81211309Y-66747380D01*
X81306547Y-66699761D01*
X81354166Y-66652142D01*
X81401785Y-66556904D01*
X81401785Y-66461666D01*
X81354166Y-66366428D01*
X81306547Y-66318809D01*
X81211309Y-66271190D01*
X81020833Y-66223571D01*
X80925595Y-66175952D01*
X80877976Y-66128333D01*
X80830357Y-66033095D01*
X80830357Y-65937857D01*
X80877976Y-65842619D01*
X80925595Y-65795000D01*
X81020833Y-65747380D01*
X81258928Y-65747380D01*
X81401785Y-65795000D01*
X81830357Y-66747380D02*
X81830357Y-65747380D01*
X81830357Y-66223571D02*
X82401785Y-66223571D01*
X82401785Y-66747380D02*
X82401785Y-65747380D01*
X56925595Y-69074761D02*
X57068452Y-69122380D01*
X57306547Y-69122380D01*
X57401785Y-69074761D01*
X57449404Y-69027142D01*
X57497023Y-68931904D01*
X57497023Y-68836666D01*
X57449404Y-68741428D01*
X57401785Y-68693809D01*
X57306547Y-68646190D01*
X57116071Y-68598571D01*
X57020833Y-68550952D01*
X56973214Y-68503333D01*
X56925595Y-68408095D01*
X56925595Y-68312857D01*
X56973214Y-68217619D01*
X57020833Y-68170000D01*
X57116071Y-68122380D01*
X57354166Y-68122380D01*
X57497023Y-68170000D01*
X57830357Y-68122380D02*
X58068452Y-69122380D01*
X58258928Y-68408095D01*
X58449404Y-69122380D01*
X58687500Y-68122380D01*
X58830357Y-69217619D02*
X59592261Y-69217619D01*
X59830357Y-69122380D02*
X59830357Y-68122380D01*
X60211309Y-68122380D01*
X60306547Y-68170000D01*
X60354166Y-68217619D01*
X60401785Y-68312857D01*
X60401785Y-68455714D01*
X60354166Y-68550952D01*
X60306547Y-68598571D01*
X60211309Y-68646190D01*
X59830357Y-68646190D01*
X60830357Y-68122380D02*
X60830357Y-68931904D01*
X60877976Y-69027142D01*
X60925595Y-69074761D01*
X61020833Y-69122380D01*
X61211309Y-69122380D01*
X61306547Y-69074761D01*
X61354166Y-69027142D01*
X61401785Y-68931904D01*
X61401785Y-68122380D01*
X61830357Y-69074761D02*
X61973214Y-69122380D01*
X62211309Y-69122380D01*
X62306547Y-69074761D01*
X62354166Y-69027142D01*
X62401785Y-68931904D01*
X62401785Y-68836666D01*
X62354166Y-68741428D01*
X62306547Y-68693809D01*
X62211309Y-68646190D01*
X62020833Y-68598571D01*
X61925595Y-68550952D01*
X61877976Y-68503333D01*
X61830357Y-68408095D01*
X61830357Y-68312857D01*
X61877976Y-68217619D01*
X61925595Y-68170000D01*
X62020833Y-68122380D01*
X62258928Y-68122380D01*
X62401785Y-68170000D01*
X62830357Y-69122380D02*
X62830357Y-68122380D01*
X62830357Y-68598571D02*
X63401785Y-68598571D01*
X63401785Y-69122380D02*
X63401785Y-68122380D01*
X37925595Y-73824761D02*
X38068452Y-73872380D01*
X38306547Y-73872380D01*
X38401785Y-73824761D01*
X38449404Y-73777142D01*
X38497023Y-73681904D01*
X38497023Y-73586666D01*
X38449404Y-73491428D01*
X38401785Y-73443809D01*
X38306547Y-73396190D01*
X38116071Y-73348571D01*
X38020833Y-73300952D01*
X37973214Y-73253333D01*
X37925595Y-73158095D01*
X37925595Y-73062857D01*
X37973214Y-72967619D01*
X38020833Y-72920000D01*
X38116071Y-72872380D01*
X38354166Y-72872380D01*
X38497023Y-72920000D01*
X38830357Y-72872380D02*
X39068452Y-73872380D01*
X39258928Y-73158095D01*
X39449404Y-73872380D01*
X39687500Y-72872380D01*
X39830357Y-73967619D02*
X40592261Y-73967619D01*
X40830357Y-73872380D02*
X40830357Y-72872380D01*
X41211309Y-72872380D01*
X41306547Y-72920000D01*
X41354166Y-72967619D01*
X41401785Y-73062857D01*
X41401785Y-73205714D01*
X41354166Y-73300952D01*
X41306547Y-73348571D01*
X41211309Y-73396190D01*
X40830357Y-73396190D01*
X41830357Y-72872380D02*
X41830357Y-73681904D01*
X41877976Y-73777142D01*
X41925595Y-73824761D01*
X42020833Y-73872380D01*
X42211309Y-73872380D01*
X42306547Y-73824761D01*
X42354166Y-73777142D01*
X42401785Y-73681904D01*
X42401785Y-72872380D01*
X42830357Y-73824761D02*
X42973214Y-73872380D01*
X43211309Y-73872380D01*
X43306547Y-73824761D01*
X43354166Y-73777142D01*
X43401785Y-73681904D01*
X43401785Y-73586666D01*
X43354166Y-73491428D01*
X43306547Y-73443809D01*
X43211309Y-73396190D01*
X43020833Y-73348571D01*
X42925595Y-73300952D01*
X42877976Y-73253333D01*
X42830357Y-73158095D01*
X42830357Y-73062857D01*
X42877976Y-72967619D01*
X42925595Y-72920000D01*
X43020833Y-72872380D01*
X43258928Y-72872380D01*
X43401785Y-72920000D01*
X43830357Y-73872380D02*
X43830357Y-72872380D01*
X43830357Y-73348571D02*
X44401785Y-73348571D01*
X44401785Y-73872380D02*
X44401785Y-72872380D01*
X18925595Y-73824761D02*
X19068452Y-73872380D01*
X19306547Y-73872380D01*
X19401785Y-73824761D01*
X19449404Y-73777142D01*
X19497023Y-73681904D01*
X19497023Y-73586666D01*
X19449404Y-73491428D01*
X19401785Y-73443809D01*
X19306547Y-73396190D01*
X19116071Y-73348571D01*
X19020833Y-73300952D01*
X18973214Y-73253333D01*
X18925595Y-73158095D01*
X18925595Y-73062857D01*
X18973214Y-72967619D01*
X19020833Y-72920000D01*
X19116071Y-72872380D01*
X19354166Y-72872380D01*
X19497023Y-72920000D01*
X19830357Y-72872380D02*
X20068452Y-73872380D01*
X20258928Y-73158095D01*
X20449404Y-73872380D01*
X20687500Y-72872380D01*
X20830357Y-73967619D02*
X21592261Y-73967619D01*
X21830357Y-73872380D02*
X21830357Y-72872380D01*
X22211309Y-72872380D01*
X22306547Y-72920000D01*
X22354166Y-72967619D01*
X22401785Y-73062857D01*
X22401785Y-73205714D01*
X22354166Y-73300952D01*
X22306547Y-73348571D01*
X22211309Y-73396190D01*
X21830357Y-73396190D01*
X22830357Y-72872380D02*
X22830357Y-73681904D01*
X22877976Y-73777142D01*
X22925595Y-73824761D01*
X23020833Y-73872380D01*
X23211309Y-73872380D01*
X23306547Y-73824761D01*
X23354166Y-73777142D01*
X23401785Y-73681904D01*
X23401785Y-72872380D01*
X23830357Y-73824761D02*
X23973214Y-73872380D01*
X24211309Y-73872380D01*
X24306547Y-73824761D01*
X24354166Y-73777142D01*
X24401785Y-73681904D01*
X24401785Y-73586666D01*
X24354166Y-73491428D01*
X24306547Y-73443809D01*
X24211309Y-73396190D01*
X24020833Y-73348571D01*
X23925595Y-73300952D01*
X23877976Y-73253333D01*
X23830357Y-73158095D01*
X23830357Y-73062857D01*
X23877976Y-72967619D01*
X23925595Y-72920000D01*
X24020833Y-72872380D01*
X24258928Y-72872380D01*
X24401785Y-72920000D01*
X24830357Y-73872380D02*
X24830357Y-72872380D01*
X24830357Y-73348571D02*
X25401785Y-73348571D01*
X25401785Y-73872380D02*
X25401785Y-72872380D01*
X18925595Y-54824761D02*
X19068452Y-54872380D01*
X19306547Y-54872380D01*
X19401785Y-54824761D01*
X19449404Y-54777142D01*
X19497023Y-54681904D01*
X19497023Y-54586666D01*
X19449404Y-54491428D01*
X19401785Y-54443809D01*
X19306547Y-54396190D01*
X19116071Y-54348571D01*
X19020833Y-54300952D01*
X18973214Y-54253333D01*
X18925595Y-54158095D01*
X18925595Y-54062857D01*
X18973214Y-53967619D01*
X19020833Y-53920000D01*
X19116071Y-53872380D01*
X19354166Y-53872380D01*
X19497023Y-53920000D01*
X19830357Y-53872380D02*
X20068452Y-54872380D01*
X20258928Y-54158095D01*
X20449404Y-54872380D01*
X20687500Y-53872380D01*
X20830357Y-54967619D02*
X21592261Y-54967619D01*
X21830357Y-54872380D02*
X21830357Y-53872380D01*
X22211309Y-53872380D01*
X22306547Y-53920000D01*
X22354166Y-53967619D01*
X22401785Y-54062857D01*
X22401785Y-54205714D01*
X22354166Y-54300952D01*
X22306547Y-54348571D01*
X22211309Y-54396190D01*
X21830357Y-54396190D01*
X22830357Y-53872380D02*
X22830357Y-54681904D01*
X22877976Y-54777142D01*
X22925595Y-54824761D01*
X23020833Y-54872380D01*
X23211309Y-54872380D01*
X23306547Y-54824761D01*
X23354166Y-54777142D01*
X23401785Y-54681904D01*
X23401785Y-53872380D01*
X23830357Y-54824761D02*
X23973214Y-54872380D01*
X24211309Y-54872380D01*
X24306547Y-54824761D01*
X24354166Y-54777142D01*
X24401785Y-54681904D01*
X24401785Y-54586666D01*
X24354166Y-54491428D01*
X24306547Y-54443809D01*
X24211309Y-54396190D01*
X24020833Y-54348571D01*
X23925595Y-54300952D01*
X23877976Y-54253333D01*
X23830357Y-54158095D01*
X23830357Y-54062857D01*
X23877976Y-53967619D01*
X23925595Y-53920000D01*
X24020833Y-53872380D01*
X24258928Y-53872380D01*
X24401785Y-53920000D01*
X24830357Y-54872380D02*
X24830357Y-53872380D01*
X24830357Y-54348571D02*
X25401785Y-54348571D01*
X25401785Y-54872380D02*
X25401785Y-53872380D01*
X159592144Y-106922920D02*
X159622333Y-107070448D01*
X159741381Y-107276644D01*
X159830239Y-107335313D01*
X159895288Y-107352743D01*
X160001576Y-107346363D01*
X160084055Y-107298744D01*
X160142724Y-107209886D01*
X160160154Y-107144837D01*
X160153774Y-107038549D01*
X160099775Y-106849782D01*
X160093395Y-106743494D01*
X160110825Y-106678445D01*
X160169494Y-106589587D01*
X160251973Y-106541968D01*
X160358261Y-106535588D01*
X160423310Y-106553018D01*
X160512168Y-106611687D01*
X160631216Y-106817883D01*
X160661405Y-106965411D01*
X160869311Y-107230276D02*
X160122333Y-107936473D01*
X160836161Y-107744287D01*
X160312809Y-108266387D01*
X161297883Y-107972584D01*
X160420807Y-108643921D02*
X160801759Y-109303750D01*
X161003286Y-109462327D02*
X161869311Y-108962327D01*
X162059787Y-109292242D01*
X162066167Y-109398530D01*
X162048737Y-109463579D01*
X161990068Y-109552437D01*
X161866350Y-109623866D01*
X161760062Y-109630245D01*
X161695013Y-109612815D01*
X161606155Y-109554146D01*
X161415679Y-109224232D01*
X162369311Y-109828353D02*
X161668243Y-110233114D01*
X161609574Y-110321973D01*
X161592144Y-110387022D01*
X161598524Y-110493310D01*
X161693762Y-110658267D01*
X161782620Y-110716936D01*
X161847669Y-110734366D01*
X161953957Y-110727986D01*
X162655025Y-110323224D01*
X162044525Y-111170568D02*
X162074714Y-111318096D01*
X162193762Y-111524292D01*
X162282620Y-111582962D01*
X162347669Y-111600391D01*
X162453957Y-111594012D01*
X162536436Y-111546393D01*
X162595105Y-111457534D01*
X162612535Y-111392485D01*
X162606155Y-111286197D01*
X162552156Y-111097430D01*
X162545776Y-110991142D01*
X162563206Y-110926093D01*
X162621875Y-110837235D01*
X162704354Y-110789616D01*
X162810642Y-110783236D01*
X162875691Y-110800666D01*
X162964549Y-110859335D01*
X163083597Y-111065532D01*
X163113786Y-111213059D01*
X162503286Y-112060403D02*
X163369311Y-111560403D01*
X162956918Y-111798499D02*
X163242632Y-112293370D01*
X162789000Y-112555275D02*
X163655025Y-112055275D01*
X135187566Y-78822895D02*
X135187566Y-79403466D01*
X135148861Y-79519580D01*
X135071452Y-79596990D01*
X134955338Y-79635695D01*
X134877928Y-79635695D01*
X135535909Y-78900304D02*
X135574614Y-78861600D01*
X135652023Y-78822895D01*
X135845547Y-78822895D01*
X135922957Y-78861600D01*
X135961661Y-78900304D01*
X136000366Y-78977714D01*
X136000366Y-79055123D01*
X135961661Y-79171238D01*
X135497204Y-79635695D01*
X136000366Y-79635695D01*
X147817261Y-79932904D02*
X147864880Y-79790047D01*
X147864880Y-79551952D01*
X147817261Y-79456714D01*
X147769642Y-79409095D01*
X147674404Y-79361476D01*
X147579166Y-79361476D01*
X147483928Y-79409095D01*
X147436309Y-79456714D01*
X147388690Y-79551952D01*
X147341071Y-79742428D01*
X147293452Y-79837666D01*
X147245833Y-79885285D01*
X147150595Y-79932904D01*
X147055357Y-79932904D01*
X146960119Y-79885285D01*
X146912500Y-79837666D01*
X146864880Y-79742428D01*
X146864880Y-79504333D01*
X146912500Y-79361476D01*
X146864880Y-79028142D02*
X147864880Y-78790047D01*
X147150595Y-78599571D01*
X147864880Y-78409095D01*
X146864880Y-78171000D01*
X147960119Y-78028142D02*
X147960119Y-77266238D01*
X147864880Y-77028142D02*
X146864880Y-77028142D01*
X146864880Y-76647190D01*
X146912500Y-76551952D01*
X146960119Y-76504333D01*
X147055357Y-76456714D01*
X147198214Y-76456714D01*
X147293452Y-76504333D01*
X147341071Y-76551952D01*
X147388690Y-76647190D01*
X147388690Y-77028142D01*
X146864880Y-76028142D02*
X147674404Y-76028142D01*
X147769642Y-75980523D01*
X147817261Y-75932904D01*
X147864880Y-75837666D01*
X147864880Y-75647190D01*
X147817261Y-75551952D01*
X147769642Y-75504333D01*
X147674404Y-75456714D01*
X146864880Y-75456714D01*
X147817261Y-75028142D02*
X147864880Y-74885285D01*
X147864880Y-74647190D01*
X147817261Y-74551952D01*
X147769642Y-74504333D01*
X147674404Y-74456714D01*
X147579166Y-74456714D01*
X147483928Y-74504333D01*
X147436309Y-74551952D01*
X147388690Y-74647190D01*
X147341071Y-74837666D01*
X147293452Y-74932904D01*
X147245833Y-74980523D01*
X147150595Y-75028142D01*
X147055357Y-75028142D01*
X146960119Y-74980523D01*
X146912500Y-74932904D01*
X146864880Y-74837666D01*
X146864880Y-74599571D01*
X146912500Y-74456714D01*
X147864880Y-74028142D02*
X146864880Y-74028142D01*
X147341071Y-74028142D02*
X147341071Y-73456714D01*
X147864880Y-73456714D02*
X146864880Y-73456714D01*
X162416566Y-78964895D02*
X162416566Y-79545466D01*
X162377861Y-79661580D01*
X162300452Y-79738990D01*
X162184338Y-79777695D01*
X162106928Y-79777695D01*
X162726204Y-78964895D02*
X163268071Y-78964895D01*
X162919728Y-79777695D01*
X152287261Y-88816428D02*
X152334880Y-88673571D01*
X152334880Y-88435476D01*
X152287261Y-88340238D01*
X152239642Y-88292619D01*
X152144404Y-88245000D01*
X152049166Y-88245000D01*
X151953928Y-88292619D01*
X151906309Y-88340238D01*
X151858690Y-88435476D01*
X151811071Y-88625952D01*
X151763452Y-88721190D01*
X151715833Y-88768809D01*
X151620595Y-88816428D01*
X151525357Y-88816428D01*
X151430119Y-88768809D01*
X151382500Y-88721190D01*
X151334880Y-88625952D01*
X151334880Y-88387857D01*
X151382500Y-88245000D01*
X151334880Y-87911666D02*
X152334880Y-87673571D01*
X151620595Y-87483095D01*
X152334880Y-87292619D01*
X151334880Y-87054523D01*
X152430119Y-86911666D02*
X152430119Y-86149761D01*
X152287261Y-85959285D02*
X152334880Y-85816428D01*
X152334880Y-85578333D01*
X152287261Y-85483095D01*
X152239642Y-85435476D01*
X152144404Y-85387857D01*
X152049166Y-85387857D01*
X151953928Y-85435476D01*
X151906309Y-85483095D01*
X151858690Y-85578333D01*
X151811071Y-85768809D01*
X151763452Y-85864047D01*
X151715833Y-85911666D01*
X151620595Y-85959285D01*
X151525357Y-85959285D01*
X151430119Y-85911666D01*
X151382500Y-85864047D01*
X151334880Y-85768809D01*
X151334880Y-85530714D01*
X151382500Y-85387857D01*
X152334880Y-84959285D02*
X151334880Y-84959285D01*
X151334880Y-84578333D01*
X151382500Y-84483095D01*
X151430119Y-84435476D01*
X151525357Y-84387857D01*
X151668214Y-84387857D01*
X151763452Y-84435476D01*
X151811071Y-84483095D01*
X151858690Y-84578333D01*
X151858690Y-84959285D01*
X152287261Y-84006904D02*
X152334880Y-83864047D01*
X152334880Y-83625952D01*
X152287261Y-83530714D01*
X152239642Y-83483095D01*
X152144404Y-83435476D01*
X152049166Y-83435476D01*
X151953928Y-83483095D01*
X151906309Y-83530714D01*
X151858690Y-83625952D01*
X151811071Y-83816428D01*
X151763452Y-83911666D01*
X151715833Y-83959285D01*
X151620595Y-84006904D01*
X151525357Y-84006904D01*
X151430119Y-83959285D01*
X151382500Y-83911666D01*
X151334880Y-83816428D01*
X151334880Y-83578333D01*
X151382500Y-83435476D01*
X151334880Y-83149761D02*
X151334880Y-82578333D01*
X152334880Y-82864047D02*
X151334880Y-82864047D01*
X159784880Y-87530714D02*
X158784880Y-87530714D01*
X158784880Y-87149761D01*
X158832500Y-87054523D01*
X158880119Y-87006904D01*
X158975357Y-86959285D01*
X159118214Y-86959285D01*
X159213452Y-87006904D01*
X159261071Y-87054523D01*
X159308690Y-87149761D01*
X159308690Y-87530714D01*
X159737261Y-86578333D02*
X159784880Y-86435476D01*
X159784880Y-86197380D01*
X159737261Y-86102142D01*
X159689642Y-86054523D01*
X159594404Y-86006904D01*
X159499166Y-86006904D01*
X159403928Y-86054523D01*
X159356309Y-86102142D01*
X159308690Y-86197380D01*
X159261071Y-86387857D01*
X159213452Y-86483095D01*
X159165833Y-86530714D01*
X159070595Y-86578333D01*
X158975357Y-86578333D01*
X158880119Y-86530714D01*
X158832500Y-86483095D01*
X158784880Y-86387857D01*
X158784880Y-86149761D01*
X158832500Y-86006904D01*
X158784880Y-85673571D02*
X159784880Y-85435476D01*
X159070595Y-85245000D01*
X159784880Y-85054523D01*
X158784880Y-84816428D01*
X158880119Y-84483095D02*
X158832500Y-84435476D01*
X158784880Y-84340238D01*
X158784880Y-84102142D01*
X158832500Y-84006904D01*
X158880119Y-83959285D01*
X158975357Y-83911666D01*
X159070595Y-83911666D01*
X159213452Y-83959285D01*
X159784880Y-84530714D01*
X159784880Y-83911666D01*
X168344642Y-88830714D02*
X168392261Y-88878333D01*
X168439880Y-89021190D01*
X168439880Y-89116428D01*
X168392261Y-89259285D01*
X168297023Y-89354523D01*
X168201785Y-89402142D01*
X168011309Y-89449761D01*
X167868452Y-89449761D01*
X167677976Y-89402142D01*
X167582738Y-89354523D01*
X167487500Y-89259285D01*
X167439880Y-89116428D01*
X167439880Y-89021190D01*
X167487500Y-88878333D01*
X167535119Y-88830714D01*
X168439880Y-88259285D02*
X168392261Y-88354523D01*
X168344642Y-88402142D01*
X168249404Y-88449761D01*
X167963690Y-88449761D01*
X167868452Y-88402142D01*
X167820833Y-88354523D01*
X167773214Y-88259285D01*
X167773214Y-88116428D01*
X167820833Y-88021190D01*
X167868452Y-87973571D01*
X167963690Y-87925952D01*
X168249404Y-87925952D01*
X168344642Y-87973571D01*
X168392261Y-88021190D01*
X168439880Y-88116428D01*
X168439880Y-88259285D01*
X167773214Y-87497380D02*
X168439880Y-87497380D01*
X167868452Y-87497380D02*
X167820833Y-87449761D01*
X167773214Y-87354523D01*
X167773214Y-87211666D01*
X167820833Y-87116428D01*
X167916071Y-87068809D01*
X168439880Y-87068809D01*
X167773214Y-86592619D02*
X168439880Y-86592619D01*
X167868452Y-86592619D02*
X167820833Y-86545000D01*
X167773214Y-86449761D01*
X167773214Y-86306904D01*
X167820833Y-86211666D01*
X167916071Y-86164047D01*
X168439880Y-86164047D01*
X168535119Y-85925952D02*
X168535119Y-85164047D01*
X167439880Y-84735476D02*
X167439880Y-84640238D01*
X167487500Y-84545000D01*
X167535119Y-84497380D01*
X167630357Y-84449761D01*
X167820833Y-84402142D01*
X168058928Y-84402142D01*
X168249404Y-84449761D01*
X168344642Y-84497380D01*
X168392261Y-84545000D01*
X168439880Y-84640238D01*
X168439880Y-84735476D01*
X168392261Y-84830714D01*
X168344642Y-84878333D01*
X168249404Y-84925952D01*
X168058928Y-84973571D01*
X167820833Y-84973571D01*
X167630357Y-84925952D01*
X167535119Y-84878333D01*
X167487500Y-84830714D01*
X167439880Y-84735476D01*
X168439880Y-83449761D02*
X168439880Y-84021190D01*
X168439880Y-83735476D02*
X167439880Y-83735476D01*
X167582738Y-83830714D01*
X167677976Y-83925952D01*
X167725595Y-84021190D01*
X168439880Y-83116428D02*
X167773214Y-82592619D01*
X167773214Y-83116428D02*
X168439880Y-82592619D01*
X167439880Y-82021190D02*
X167439880Y-81925952D01*
X167487500Y-81830714D01*
X167535119Y-81783095D01*
X167630357Y-81735476D01*
X167820833Y-81687857D01*
X168058928Y-81687857D01*
X168249404Y-81735476D01*
X168344642Y-81783095D01*
X168392261Y-81830714D01*
X168439880Y-81925952D01*
X168439880Y-82021190D01*
X168392261Y-82116428D01*
X168344642Y-82164047D01*
X168249404Y-82211666D01*
X168058928Y-82259285D01*
X167820833Y-82259285D01*
X167630357Y-82211666D01*
X167535119Y-82164047D01*
X167487500Y-82116428D01*
X167439880Y-82021190D01*
X167535119Y-81306904D02*
X167487500Y-81259285D01*
X167439880Y-81164047D01*
X167439880Y-80925952D01*
X167487500Y-80830714D01*
X167535119Y-80783095D01*
X167630357Y-80735476D01*
X167725595Y-80735476D01*
X167868452Y-80783095D01*
X168439880Y-81354523D01*
X168439880Y-80735476D01*
X168535119Y-80545000D02*
X168535119Y-79783095D01*
X167916071Y-79211666D02*
X167916071Y-79545000D01*
X168439880Y-79545000D02*
X167439880Y-79545000D01*
X167439880Y-79068809D01*
X168392261Y-78306904D02*
X168439880Y-78402142D01*
X168439880Y-78592619D01*
X168392261Y-78687857D01*
X168297023Y-78735476D01*
X167916071Y-78735476D01*
X167820833Y-78687857D01*
X167773214Y-78592619D01*
X167773214Y-78402142D01*
X167820833Y-78306904D01*
X167916071Y-78259285D01*
X168011309Y-78259285D01*
X168106547Y-78735476D01*
X168439880Y-77830714D02*
X167773214Y-77830714D01*
X167868452Y-77830714D02*
X167820833Y-77783095D01*
X167773214Y-77687857D01*
X167773214Y-77545000D01*
X167820833Y-77449761D01*
X167916071Y-77402142D01*
X168439880Y-77402142D01*
X167916071Y-77402142D02*
X167820833Y-77354523D01*
X167773214Y-77259285D01*
X167773214Y-77116428D01*
X167820833Y-77021190D01*
X167916071Y-76973571D01*
X168439880Y-76973571D01*
X168439880Y-76068809D02*
X167916071Y-76068809D01*
X167820833Y-76116428D01*
X167773214Y-76211666D01*
X167773214Y-76402142D01*
X167820833Y-76497380D01*
X168392261Y-76068809D02*
X168439880Y-76164047D01*
X168439880Y-76402142D01*
X168392261Y-76497380D01*
X168297023Y-76545000D01*
X168201785Y-76545000D01*
X168106547Y-76497380D01*
X168058928Y-76402142D01*
X168058928Y-76164047D01*
X168011309Y-76068809D01*
X168439880Y-75449761D02*
X168392261Y-75545000D01*
X168297023Y-75592619D01*
X167439880Y-75592619D01*
X168392261Y-74687857D02*
X168439880Y-74783095D01*
X168439880Y-74973571D01*
X168392261Y-75068809D01*
X168297023Y-75116428D01*
X167916071Y-75116428D01*
X167820833Y-75068809D01*
X167773214Y-74973571D01*
X167773214Y-74783095D01*
X167820833Y-74687857D01*
X167916071Y-74640238D01*
X168011309Y-74640238D01*
X168106547Y-75116428D01*
X162966071Y-83640238D02*
X163013690Y-83497380D01*
X163061309Y-83449761D01*
X163156547Y-83402142D01*
X163299404Y-83402142D01*
X163394642Y-83449761D01*
X163442261Y-83497380D01*
X163489880Y-83592619D01*
X163489880Y-83973571D01*
X162489880Y-83973571D01*
X162489880Y-83640238D01*
X162537500Y-83545000D01*
X162585119Y-83497380D01*
X162680357Y-83449761D01*
X162775595Y-83449761D01*
X162870833Y-83497380D01*
X162918452Y-83545000D01*
X162966071Y-83640238D01*
X162966071Y-83973571D01*
X163204166Y-83021190D02*
X163204166Y-82545000D01*
X163489880Y-83116428D02*
X162489880Y-82783095D01*
X163489880Y-82449761D01*
X162489880Y-82259285D02*
X162489880Y-81687857D01*
X163489880Y-81973571D02*
X162489880Y-81973571D01*
X162489880Y-81068809D02*
X163204166Y-81068809D01*
X163347023Y-81116428D01*
X163442261Y-81211666D01*
X163489880Y-81354523D01*
X163489880Y-81449761D01*
X162823214Y-80164047D02*
X163489880Y-80164047D01*
X162442261Y-80402142D02*
X163156547Y-80640238D01*
X163156547Y-80021190D01*
X167771071Y-74190238D02*
X167818690Y-74047380D01*
X167866309Y-73999761D01*
X167961547Y-73952142D01*
X168104404Y-73952142D01*
X168199642Y-73999761D01*
X168247261Y-74047380D01*
X168294880Y-74142619D01*
X168294880Y-74523571D01*
X167294880Y-74523571D01*
X167294880Y-74190238D01*
X167342500Y-74095000D01*
X167390119Y-74047380D01*
X167485357Y-73999761D01*
X167580595Y-73999761D01*
X167675833Y-74047380D01*
X167723452Y-74095000D01*
X167771071Y-74190238D01*
X167771071Y-74523571D01*
X168009166Y-73571190D02*
X168009166Y-73095000D01*
X168294880Y-73666428D02*
X167294880Y-73333095D01*
X168294880Y-72999761D01*
X167294880Y-72809285D02*
X167294880Y-72237857D01*
X168294880Y-72523571D02*
X167294880Y-72523571D01*
X167294880Y-71618809D02*
X168009166Y-71618809D01*
X168152023Y-71666428D01*
X168247261Y-71761666D01*
X168294880Y-71904523D01*
X168294880Y-71999761D01*
X167294880Y-71237857D02*
X167294880Y-70618809D01*
X167675833Y-70952142D01*
X167675833Y-70809285D01*
X167723452Y-70714047D01*
X167771071Y-70666428D01*
X167866309Y-70618809D01*
X168104404Y-70618809D01*
X168199642Y-70666428D01*
X168247261Y-70714047D01*
X168294880Y-70809285D01*
X168294880Y-71095000D01*
X168247261Y-71190238D01*
X168199642Y-71237857D01*
X160999642Y-79380714D02*
X161047261Y-79428333D01*
X161094880Y-79571190D01*
X161094880Y-79666428D01*
X161047261Y-79809285D01*
X160952023Y-79904523D01*
X160856785Y-79952142D01*
X160666309Y-79999761D01*
X160523452Y-79999761D01*
X160332976Y-79952142D01*
X160237738Y-79904523D01*
X160142500Y-79809285D01*
X160094880Y-79666428D01*
X160094880Y-79571190D01*
X160142500Y-79428333D01*
X160190119Y-79380714D01*
X161094880Y-78809285D02*
X161047261Y-78904523D01*
X160999642Y-78952142D01*
X160904404Y-78999761D01*
X160618690Y-78999761D01*
X160523452Y-78952142D01*
X160475833Y-78904523D01*
X160428214Y-78809285D01*
X160428214Y-78666428D01*
X160475833Y-78571190D01*
X160523452Y-78523571D01*
X160618690Y-78475952D01*
X160904404Y-78475952D01*
X160999642Y-78523571D01*
X161047261Y-78571190D01*
X161094880Y-78666428D01*
X161094880Y-78809285D01*
X160428214Y-78047380D02*
X161094880Y-78047380D01*
X160523452Y-78047380D02*
X160475833Y-77999761D01*
X160428214Y-77904523D01*
X160428214Y-77761666D01*
X160475833Y-77666428D01*
X160571071Y-77618809D01*
X161094880Y-77618809D01*
X160428214Y-77142619D02*
X161094880Y-77142619D01*
X160523452Y-77142619D02*
X160475833Y-77095000D01*
X160428214Y-76999761D01*
X160428214Y-76856904D01*
X160475833Y-76761666D01*
X160571071Y-76714047D01*
X161094880Y-76714047D01*
X161190119Y-76475952D02*
X161190119Y-75714047D01*
X160094880Y-75285476D02*
X160094880Y-75190238D01*
X160142500Y-75095000D01*
X160190119Y-75047380D01*
X160285357Y-74999761D01*
X160475833Y-74952142D01*
X160713928Y-74952142D01*
X160904404Y-74999761D01*
X160999642Y-75047380D01*
X161047261Y-75095000D01*
X161094880Y-75190238D01*
X161094880Y-75285476D01*
X161047261Y-75380714D01*
X160999642Y-75428333D01*
X160904404Y-75475952D01*
X160713928Y-75523571D01*
X160475833Y-75523571D01*
X160285357Y-75475952D01*
X160190119Y-75428333D01*
X160142500Y-75380714D01*
X160094880Y-75285476D01*
X161094880Y-73999761D02*
X161094880Y-74571190D01*
X161094880Y-74285476D02*
X160094880Y-74285476D01*
X160237738Y-74380714D01*
X160332976Y-74475952D01*
X160380595Y-74571190D01*
X161094880Y-73666428D02*
X160428214Y-73142619D01*
X160428214Y-73666428D02*
X161094880Y-73142619D01*
X160094880Y-72571190D02*
X160094880Y-72475952D01*
X160142500Y-72380714D01*
X160190119Y-72333095D01*
X160285357Y-72285476D01*
X160475833Y-72237857D01*
X160713928Y-72237857D01*
X160904404Y-72285476D01*
X160999642Y-72333095D01*
X161047261Y-72380714D01*
X161094880Y-72475952D01*
X161094880Y-72571190D01*
X161047261Y-72666428D01*
X160999642Y-72714047D01*
X160904404Y-72761666D01*
X160713928Y-72809285D01*
X160475833Y-72809285D01*
X160285357Y-72761666D01*
X160190119Y-72714047D01*
X160142500Y-72666428D01*
X160094880Y-72571190D01*
X160190119Y-71856904D02*
X160142500Y-71809285D01*
X160094880Y-71714047D01*
X160094880Y-71475952D01*
X160142500Y-71380714D01*
X160190119Y-71333095D01*
X160285357Y-71285476D01*
X160380595Y-71285476D01*
X160523452Y-71333095D01*
X161094880Y-71904523D01*
X161094880Y-71285476D01*
X161190119Y-71095000D02*
X161190119Y-70333095D01*
X160571071Y-69761666D02*
X160571071Y-70095000D01*
X161094880Y-70095000D02*
X160094880Y-70095000D01*
X160094880Y-69618809D01*
X161047261Y-68856904D02*
X161094880Y-68952142D01*
X161094880Y-69142619D01*
X161047261Y-69237857D01*
X160952023Y-69285476D01*
X160571071Y-69285476D01*
X160475833Y-69237857D01*
X160428214Y-69142619D01*
X160428214Y-68952142D01*
X160475833Y-68856904D01*
X160571071Y-68809285D01*
X160666309Y-68809285D01*
X160761547Y-69285476D01*
X161094880Y-68380714D02*
X160428214Y-68380714D01*
X160523452Y-68380714D02*
X160475833Y-68333095D01*
X160428214Y-68237857D01*
X160428214Y-68095000D01*
X160475833Y-67999761D01*
X160571071Y-67952142D01*
X161094880Y-67952142D01*
X160571071Y-67952142D02*
X160475833Y-67904523D01*
X160428214Y-67809285D01*
X160428214Y-67666428D01*
X160475833Y-67571190D01*
X160571071Y-67523571D01*
X161094880Y-67523571D01*
X161094880Y-66618809D02*
X160571071Y-66618809D01*
X160475833Y-66666428D01*
X160428214Y-66761666D01*
X160428214Y-66952142D01*
X160475833Y-67047380D01*
X161047261Y-66618809D02*
X161094880Y-66714047D01*
X161094880Y-66952142D01*
X161047261Y-67047380D01*
X160952023Y-67095000D01*
X160856785Y-67095000D01*
X160761547Y-67047380D01*
X160713928Y-66952142D01*
X160713928Y-66714047D01*
X160666309Y-66618809D01*
X161094880Y-65999761D02*
X161047261Y-66095000D01*
X160952023Y-66142619D01*
X160094880Y-66142619D01*
X161047261Y-65237857D02*
X161094880Y-65333095D01*
X161094880Y-65523571D01*
X161047261Y-65618809D01*
X160952023Y-65666428D01*
X160571071Y-65666428D01*
X160475833Y-65618809D01*
X160428214Y-65523571D01*
X160428214Y-65333095D01*
X160475833Y-65237857D01*
X160571071Y-65190238D01*
X160666309Y-65190238D01*
X160761547Y-65666428D01*
X162647261Y-72523571D02*
X162790119Y-72571190D01*
X162837738Y-72618809D01*
X162885357Y-72714047D01*
X162885357Y-72856904D01*
X162837738Y-72952142D01*
X162790119Y-72999761D01*
X162694880Y-73047380D01*
X162313928Y-73047380D01*
X162313928Y-72047380D01*
X162647261Y-72047380D01*
X162742500Y-72095000D01*
X162790119Y-72142619D01*
X162837738Y-72237857D01*
X162837738Y-72333095D01*
X162790119Y-72428333D01*
X162742500Y-72475952D01*
X162647261Y-72523571D01*
X162313928Y-72523571D01*
X163266309Y-72761666D02*
X163742500Y-72761666D01*
X163171071Y-73047380D02*
X163504404Y-72047380D01*
X163837738Y-73047380D01*
X164028214Y-72047380D02*
X164599642Y-72047380D01*
X164313928Y-73047380D02*
X164313928Y-72047380D01*
X165218690Y-72047380D02*
X165218690Y-72761666D01*
X165171071Y-72904523D01*
X165075833Y-72999761D01*
X164932976Y-73047380D01*
X164837738Y-73047380D01*
X165599642Y-72047380D02*
X166218690Y-72047380D01*
X165885357Y-72428333D01*
X166028214Y-72428333D01*
X166123452Y-72475952D01*
X166171071Y-72523571D01*
X166218690Y-72618809D01*
X166218690Y-72856904D01*
X166171071Y-72952142D01*
X166123452Y-72999761D01*
X166028214Y-73047380D01*
X165742500Y-73047380D01*
X165647261Y-72999761D01*
X165599642Y-72952142D01*
X133071071Y-74190238D02*
X133118690Y-74047380D01*
X133166309Y-73999761D01*
X133261547Y-73952142D01*
X133404404Y-73952142D01*
X133499642Y-73999761D01*
X133547261Y-74047380D01*
X133594880Y-74142619D01*
X133594880Y-74523571D01*
X132594880Y-74523571D01*
X132594880Y-74190238D01*
X132642500Y-74095000D01*
X132690119Y-74047380D01*
X132785357Y-73999761D01*
X132880595Y-73999761D01*
X132975833Y-74047380D01*
X133023452Y-74095000D01*
X133071071Y-74190238D01*
X133071071Y-74523571D01*
X133309166Y-73571190D02*
X133309166Y-73095000D01*
X133594880Y-73666428D02*
X132594880Y-73333095D01*
X133594880Y-72999761D01*
X132594880Y-72809285D02*
X132594880Y-72237857D01*
X133594880Y-72523571D02*
X132594880Y-72523571D01*
X132594880Y-71618809D02*
X133309166Y-71618809D01*
X133452023Y-71666428D01*
X133547261Y-71761666D01*
X133594880Y-71904523D01*
X133594880Y-71999761D01*
X133594880Y-70618809D02*
X133594880Y-71190238D01*
X133594880Y-70904523D02*
X132594880Y-70904523D01*
X132737738Y-70999761D01*
X132832976Y-71095000D01*
X132880595Y-71190238D01*
X140699642Y-79380714D02*
X140747261Y-79428333D01*
X140794880Y-79571190D01*
X140794880Y-79666428D01*
X140747261Y-79809285D01*
X140652023Y-79904523D01*
X140556785Y-79952142D01*
X140366309Y-79999761D01*
X140223452Y-79999761D01*
X140032976Y-79952142D01*
X139937738Y-79904523D01*
X139842500Y-79809285D01*
X139794880Y-79666428D01*
X139794880Y-79571190D01*
X139842500Y-79428333D01*
X139890119Y-79380714D01*
X140794880Y-78809285D02*
X140747261Y-78904523D01*
X140699642Y-78952142D01*
X140604404Y-78999761D01*
X140318690Y-78999761D01*
X140223452Y-78952142D01*
X140175833Y-78904523D01*
X140128214Y-78809285D01*
X140128214Y-78666428D01*
X140175833Y-78571190D01*
X140223452Y-78523571D01*
X140318690Y-78475952D01*
X140604404Y-78475952D01*
X140699642Y-78523571D01*
X140747261Y-78571190D01*
X140794880Y-78666428D01*
X140794880Y-78809285D01*
X140128214Y-78047380D02*
X140794880Y-78047380D01*
X140223452Y-78047380D02*
X140175833Y-77999761D01*
X140128214Y-77904523D01*
X140128214Y-77761666D01*
X140175833Y-77666428D01*
X140271071Y-77618809D01*
X140794880Y-77618809D01*
X140128214Y-77142619D02*
X140794880Y-77142619D01*
X140223452Y-77142619D02*
X140175833Y-77095000D01*
X140128214Y-76999761D01*
X140128214Y-76856904D01*
X140175833Y-76761666D01*
X140271071Y-76714047D01*
X140794880Y-76714047D01*
X140890119Y-76475952D02*
X140890119Y-75714047D01*
X139794880Y-75285476D02*
X139794880Y-75190238D01*
X139842500Y-75095000D01*
X139890119Y-75047380D01*
X139985357Y-74999761D01*
X140175833Y-74952142D01*
X140413928Y-74952142D01*
X140604404Y-74999761D01*
X140699642Y-75047380D01*
X140747261Y-75095000D01*
X140794880Y-75190238D01*
X140794880Y-75285476D01*
X140747261Y-75380714D01*
X140699642Y-75428333D01*
X140604404Y-75475952D01*
X140413928Y-75523571D01*
X140175833Y-75523571D01*
X139985357Y-75475952D01*
X139890119Y-75428333D01*
X139842500Y-75380714D01*
X139794880Y-75285476D01*
X140794880Y-73999761D02*
X140794880Y-74571190D01*
X140794880Y-74285476D02*
X139794880Y-74285476D01*
X139937738Y-74380714D01*
X140032976Y-74475952D01*
X140080595Y-74571190D01*
X140794880Y-73666428D02*
X140128214Y-73142619D01*
X140128214Y-73666428D02*
X140794880Y-73142619D01*
X139794880Y-72571190D02*
X139794880Y-72475952D01*
X139842500Y-72380714D01*
X139890119Y-72333095D01*
X139985357Y-72285476D01*
X140175833Y-72237857D01*
X140413928Y-72237857D01*
X140604404Y-72285476D01*
X140699642Y-72333095D01*
X140747261Y-72380714D01*
X140794880Y-72475952D01*
X140794880Y-72571190D01*
X140747261Y-72666428D01*
X140699642Y-72714047D01*
X140604404Y-72761666D01*
X140413928Y-72809285D01*
X140175833Y-72809285D01*
X139985357Y-72761666D01*
X139890119Y-72714047D01*
X139842500Y-72666428D01*
X139794880Y-72571190D01*
X139890119Y-71856904D02*
X139842500Y-71809285D01*
X139794880Y-71714047D01*
X139794880Y-71475952D01*
X139842500Y-71380714D01*
X139890119Y-71333095D01*
X139985357Y-71285476D01*
X140080595Y-71285476D01*
X140223452Y-71333095D01*
X140794880Y-71904523D01*
X140794880Y-71285476D01*
X140890119Y-71095000D02*
X140890119Y-70333095D01*
X140271071Y-69761666D02*
X140271071Y-70095000D01*
X140794880Y-70095000D02*
X139794880Y-70095000D01*
X139794880Y-69618809D01*
X140747261Y-68856904D02*
X140794880Y-68952142D01*
X140794880Y-69142619D01*
X140747261Y-69237857D01*
X140652023Y-69285476D01*
X140271071Y-69285476D01*
X140175833Y-69237857D01*
X140128214Y-69142619D01*
X140128214Y-68952142D01*
X140175833Y-68856904D01*
X140271071Y-68809285D01*
X140366309Y-68809285D01*
X140461547Y-69285476D01*
X140794880Y-68380714D02*
X140128214Y-68380714D01*
X140223452Y-68380714D02*
X140175833Y-68333095D01*
X140128214Y-68237857D01*
X140128214Y-68095000D01*
X140175833Y-67999761D01*
X140271071Y-67952142D01*
X140794880Y-67952142D01*
X140271071Y-67952142D02*
X140175833Y-67904523D01*
X140128214Y-67809285D01*
X140128214Y-67666428D01*
X140175833Y-67571190D01*
X140271071Y-67523571D01*
X140794880Y-67523571D01*
X140794880Y-66618809D02*
X140271071Y-66618809D01*
X140175833Y-66666428D01*
X140128214Y-66761666D01*
X140128214Y-66952142D01*
X140175833Y-67047380D01*
X140747261Y-66618809D02*
X140794880Y-66714047D01*
X140794880Y-66952142D01*
X140747261Y-67047380D01*
X140652023Y-67095000D01*
X140556785Y-67095000D01*
X140461547Y-67047380D01*
X140413928Y-66952142D01*
X140413928Y-66714047D01*
X140366309Y-66618809D01*
X140794880Y-65999761D02*
X140747261Y-66095000D01*
X140652023Y-66142619D01*
X139794880Y-66142619D01*
X140747261Y-65237857D02*
X140794880Y-65333095D01*
X140794880Y-65523571D01*
X140747261Y-65618809D01*
X140652023Y-65666428D01*
X140271071Y-65666428D01*
X140175833Y-65618809D01*
X140128214Y-65523571D01*
X140128214Y-65333095D01*
X140175833Y-65237857D01*
X140271071Y-65190238D01*
X140366309Y-65190238D01*
X140461547Y-65666428D01*
X135147261Y-72523571D02*
X135290119Y-72571190D01*
X135337738Y-72618809D01*
X135385357Y-72714047D01*
X135385357Y-72856904D01*
X135337738Y-72952142D01*
X135290119Y-72999761D01*
X135194880Y-73047380D01*
X134813928Y-73047380D01*
X134813928Y-72047380D01*
X135147261Y-72047380D01*
X135242500Y-72095000D01*
X135290119Y-72142619D01*
X135337738Y-72237857D01*
X135337738Y-72333095D01*
X135290119Y-72428333D01*
X135242500Y-72475952D01*
X135147261Y-72523571D01*
X134813928Y-72523571D01*
X135766309Y-72761666D02*
X136242500Y-72761666D01*
X135671071Y-73047380D02*
X136004404Y-72047380D01*
X136337738Y-73047380D01*
X136528214Y-72047380D02*
X137099642Y-72047380D01*
X136813928Y-73047380D02*
X136813928Y-72047380D01*
X137718690Y-72047380D02*
X137718690Y-72761666D01*
X137671071Y-72904523D01*
X137575833Y-72999761D01*
X137432976Y-73047380D01*
X137337738Y-73047380D01*
X138718690Y-73047380D02*
X138147261Y-73047380D01*
X138432976Y-73047380D02*
X138432976Y-72047380D01*
X138337738Y-72190238D01*
X138242500Y-72285476D01*
X138147261Y-72333095D01*
X149442261Y-88816428D02*
X149489880Y-88673571D01*
X149489880Y-88435476D01*
X149442261Y-88340238D01*
X149394642Y-88292619D01*
X149299404Y-88245000D01*
X149204166Y-88245000D01*
X149108928Y-88292619D01*
X149061309Y-88340238D01*
X149013690Y-88435476D01*
X148966071Y-88625952D01*
X148918452Y-88721190D01*
X148870833Y-88768809D01*
X148775595Y-88816428D01*
X148680357Y-88816428D01*
X148585119Y-88768809D01*
X148537500Y-88721190D01*
X148489880Y-88625952D01*
X148489880Y-88387857D01*
X148537500Y-88245000D01*
X148489880Y-87911666D02*
X149489880Y-87673571D01*
X148775595Y-87483095D01*
X149489880Y-87292619D01*
X148489880Y-87054523D01*
X149585119Y-86911666D02*
X149585119Y-86149761D01*
X149442261Y-85959285D02*
X149489880Y-85816428D01*
X149489880Y-85578333D01*
X149442261Y-85483095D01*
X149394642Y-85435476D01*
X149299404Y-85387857D01*
X149204166Y-85387857D01*
X149108928Y-85435476D01*
X149061309Y-85483095D01*
X149013690Y-85578333D01*
X148966071Y-85768809D01*
X148918452Y-85864047D01*
X148870833Y-85911666D01*
X148775595Y-85959285D01*
X148680357Y-85959285D01*
X148585119Y-85911666D01*
X148537500Y-85864047D01*
X148489880Y-85768809D01*
X148489880Y-85530714D01*
X148537500Y-85387857D01*
X149489880Y-84959285D02*
X148489880Y-84959285D01*
X148489880Y-84578333D01*
X148537500Y-84483095D01*
X148585119Y-84435476D01*
X148680357Y-84387857D01*
X148823214Y-84387857D01*
X148918452Y-84435476D01*
X148966071Y-84483095D01*
X149013690Y-84578333D01*
X149013690Y-84959285D01*
X149442261Y-84006904D02*
X149489880Y-83864047D01*
X149489880Y-83625952D01*
X149442261Y-83530714D01*
X149394642Y-83483095D01*
X149299404Y-83435476D01*
X149204166Y-83435476D01*
X149108928Y-83483095D01*
X149061309Y-83530714D01*
X149013690Y-83625952D01*
X148966071Y-83816428D01*
X148918452Y-83911666D01*
X148870833Y-83959285D01*
X148775595Y-84006904D01*
X148680357Y-84006904D01*
X148585119Y-83959285D01*
X148537500Y-83911666D01*
X148489880Y-83816428D01*
X148489880Y-83578333D01*
X148537500Y-83435476D01*
X148489880Y-83149761D02*
X148489880Y-82578333D01*
X149489880Y-82864047D02*
X148489880Y-82864047D01*
X142039880Y-87530714D02*
X141039880Y-87530714D01*
X141039880Y-87149761D01*
X141087500Y-87054523D01*
X141135119Y-87006904D01*
X141230357Y-86959285D01*
X141373214Y-86959285D01*
X141468452Y-87006904D01*
X141516071Y-87054523D01*
X141563690Y-87149761D01*
X141563690Y-87530714D01*
X141992261Y-86578333D02*
X142039880Y-86435476D01*
X142039880Y-86197380D01*
X141992261Y-86102142D01*
X141944642Y-86054523D01*
X141849404Y-86006904D01*
X141754166Y-86006904D01*
X141658928Y-86054523D01*
X141611309Y-86102142D01*
X141563690Y-86197380D01*
X141516071Y-86387857D01*
X141468452Y-86483095D01*
X141420833Y-86530714D01*
X141325595Y-86578333D01*
X141230357Y-86578333D01*
X141135119Y-86530714D01*
X141087500Y-86483095D01*
X141039880Y-86387857D01*
X141039880Y-86149761D01*
X141087500Y-86006904D01*
X141039880Y-85673571D02*
X142039880Y-85435476D01*
X141325595Y-85245000D01*
X142039880Y-85054523D01*
X141039880Y-84816428D01*
X142039880Y-83911666D02*
X142039880Y-84483095D01*
X142039880Y-84197380D02*
X141039880Y-84197380D01*
X141182738Y-84292619D01*
X141277976Y-84387857D01*
X141325595Y-84483095D01*
X133294642Y-88630714D02*
X133342261Y-88678333D01*
X133389880Y-88821190D01*
X133389880Y-88916428D01*
X133342261Y-89059285D01*
X133247023Y-89154523D01*
X133151785Y-89202142D01*
X132961309Y-89249761D01*
X132818452Y-89249761D01*
X132627976Y-89202142D01*
X132532738Y-89154523D01*
X132437500Y-89059285D01*
X132389880Y-88916428D01*
X132389880Y-88821190D01*
X132437500Y-88678333D01*
X132485119Y-88630714D01*
X133389880Y-88059285D02*
X133342261Y-88154523D01*
X133294642Y-88202142D01*
X133199404Y-88249761D01*
X132913690Y-88249761D01*
X132818452Y-88202142D01*
X132770833Y-88154523D01*
X132723214Y-88059285D01*
X132723214Y-87916428D01*
X132770833Y-87821190D01*
X132818452Y-87773571D01*
X132913690Y-87725952D01*
X133199404Y-87725952D01*
X133294642Y-87773571D01*
X133342261Y-87821190D01*
X133389880Y-87916428D01*
X133389880Y-88059285D01*
X132723214Y-87297380D02*
X133389880Y-87297380D01*
X132818452Y-87297380D02*
X132770833Y-87249761D01*
X132723214Y-87154523D01*
X132723214Y-87011666D01*
X132770833Y-86916428D01*
X132866071Y-86868809D01*
X133389880Y-86868809D01*
X132723214Y-86392619D02*
X133389880Y-86392619D01*
X132818452Y-86392619D02*
X132770833Y-86345000D01*
X132723214Y-86249761D01*
X132723214Y-86106904D01*
X132770833Y-86011666D01*
X132866071Y-85964047D01*
X133389880Y-85964047D01*
X133485119Y-85725952D02*
X133485119Y-84964047D01*
X132389880Y-84535476D02*
X132389880Y-84440238D01*
X132437500Y-84345000D01*
X132485119Y-84297380D01*
X132580357Y-84249761D01*
X132770833Y-84202142D01*
X133008928Y-84202142D01*
X133199404Y-84249761D01*
X133294642Y-84297380D01*
X133342261Y-84345000D01*
X133389880Y-84440238D01*
X133389880Y-84535476D01*
X133342261Y-84630714D01*
X133294642Y-84678333D01*
X133199404Y-84725952D01*
X133008928Y-84773571D01*
X132770833Y-84773571D01*
X132580357Y-84725952D01*
X132485119Y-84678333D01*
X132437500Y-84630714D01*
X132389880Y-84535476D01*
X133389880Y-83249761D02*
X133389880Y-83821190D01*
X133389880Y-83535476D02*
X132389880Y-83535476D01*
X132532738Y-83630714D01*
X132627976Y-83725952D01*
X132675595Y-83821190D01*
X133389880Y-82916428D02*
X132723214Y-82392619D01*
X132723214Y-82916428D02*
X133389880Y-82392619D01*
X132389880Y-81821190D02*
X132389880Y-81725952D01*
X132437500Y-81630714D01*
X132485119Y-81583095D01*
X132580357Y-81535476D01*
X132770833Y-81487857D01*
X133008928Y-81487857D01*
X133199404Y-81535476D01*
X133294642Y-81583095D01*
X133342261Y-81630714D01*
X133389880Y-81725952D01*
X133389880Y-81821190D01*
X133342261Y-81916428D01*
X133294642Y-81964047D01*
X133199404Y-82011666D01*
X133008928Y-82059285D01*
X132770833Y-82059285D01*
X132580357Y-82011666D01*
X132485119Y-81964047D01*
X132437500Y-81916428D01*
X132389880Y-81821190D01*
X132485119Y-81106904D02*
X132437500Y-81059285D01*
X132389880Y-80964047D01*
X132389880Y-80725952D01*
X132437500Y-80630714D01*
X132485119Y-80583095D01*
X132580357Y-80535476D01*
X132675595Y-80535476D01*
X132818452Y-80583095D01*
X133389880Y-81154523D01*
X133389880Y-80535476D01*
X133485119Y-80345000D02*
X133485119Y-79583095D01*
X132866071Y-79011666D02*
X132866071Y-79345000D01*
X133389880Y-79345000D02*
X132389880Y-79345000D01*
X132389880Y-78868809D01*
X133342261Y-78106904D02*
X133389880Y-78202142D01*
X133389880Y-78392619D01*
X133342261Y-78487857D01*
X133247023Y-78535476D01*
X132866071Y-78535476D01*
X132770833Y-78487857D01*
X132723214Y-78392619D01*
X132723214Y-78202142D01*
X132770833Y-78106904D01*
X132866071Y-78059285D01*
X132961309Y-78059285D01*
X133056547Y-78535476D01*
X133389880Y-77630714D02*
X132723214Y-77630714D01*
X132818452Y-77630714D02*
X132770833Y-77583095D01*
X132723214Y-77487857D01*
X132723214Y-77345000D01*
X132770833Y-77249761D01*
X132866071Y-77202142D01*
X133389880Y-77202142D01*
X132866071Y-77202142D02*
X132770833Y-77154523D01*
X132723214Y-77059285D01*
X132723214Y-76916428D01*
X132770833Y-76821190D01*
X132866071Y-76773571D01*
X133389880Y-76773571D01*
X133389880Y-75868809D02*
X132866071Y-75868809D01*
X132770833Y-75916428D01*
X132723214Y-76011666D01*
X132723214Y-76202142D01*
X132770833Y-76297380D01*
X133342261Y-75868809D02*
X133389880Y-75964047D01*
X133389880Y-76202142D01*
X133342261Y-76297380D01*
X133247023Y-76345000D01*
X133151785Y-76345000D01*
X133056547Y-76297380D01*
X133008928Y-76202142D01*
X133008928Y-75964047D01*
X132961309Y-75868809D01*
X133389880Y-75249761D02*
X133342261Y-75345000D01*
X133247023Y-75392619D01*
X132389880Y-75392619D01*
X133342261Y-74487857D02*
X133389880Y-74583095D01*
X133389880Y-74773571D01*
X133342261Y-74868809D01*
X133247023Y-74916428D01*
X132866071Y-74916428D01*
X132770833Y-74868809D01*
X132723214Y-74773571D01*
X132723214Y-74583095D01*
X132770833Y-74487857D01*
X132866071Y-74440238D01*
X132961309Y-74440238D01*
X133056547Y-74916428D01*
X137816071Y-83440238D02*
X137863690Y-83297380D01*
X137911309Y-83249761D01*
X138006547Y-83202142D01*
X138149404Y-83202142D01*
X138244642Y-83249761D01*
X138292261Y-83297380D01*
X138339880Y-83392619D01*
X138339880Y-83773571D01*
X137339880Y-83773571D01*
X137339880Y-83440238D01*
X137387500Y-83345000D01*
X137435119Y-83297380D01*
X137530357Y-83249761D01*
X137625595Y-83249761D01*
X137720833Y-83297380D01*
X137768452Y-83345000D01*
X137816071Y-83440238D01*
X137816071Y-83773571D01*
X138054166Y-82821190D02*
X138054166Y-82345000D01*
X138339880Y-82916428D02*
X137339880Y-82583095D01*
X138339880Y-82249761D01*
X137339880Y-82059285D02*
X137339880Y-81487857D01*
X138339880Y-81773571D02*
X137339880Y-81773571D01*
X137339880Y-80868809D02*
X138054166Y-80868809D01*
X138197023Y-80916428D01*
X138292261Y-81011666D01*
X138339880Y-81154523D01*
X138339880Y-81249761D01*
X137435119Y-80440238D02*
X137387500Y-80392619D01*
X137339880Y-80297380D01*
X137339880Y-80059285D01*
X137387500Y-79964047D01*
X137435119Y-79916428D01*
X137530357Y-79868809D01*
X137625595Y-79868809D01*
X137768452Y-79916428D01*
X138339880Y-80487857D01*
X138339880Y-79868809D01*
D11*
X286184847Y-53420432D02*
X286184847Y-38420432D01*
X271184847Y-53420432D02*
X286184847Y-53420432D01*
X286184847Y-38420432D02*
X271184847Y-38420432D01*
X271184847Y-38420432D02*
X271184847Y-53420432D01*
X252184847Y-53420432D02*
X267184847Y-53420432D01*
X252184847Y-38420432D02*
X252184847Y-53420432D01*
X267184847Y-38420432D02*
X252184847Y-38420432D01*
X267184847Y-53420432D02*
X267184847Y-38420432D01*
X248184847Y-48670432D02*
X248184847Y-33670432D01*
X233184847Y-33670432D02*
X233184847Y-48670432D01*
X233184847Y-48670432D02*
X248184847Y-48670432D01*
X248184847Y-33670432D02*
X233184847Y-33670432D01*
X229184847Y-31295432D02*
X214184847Y-31295432D01*
X229184847Y-46295432D02*
X229184847Y-31295432D01*
X214184847Y-31295432D02*
X214184847Y-46295432D01*
X214184847Y-46295432D02*
X229184847Y-46295432D01*
X195184847Y-33670432D02*
X195184847Y-48670432D01*
X210184847Y-33670432D02*
X195184847Y-33670432D01*
X210184847Y-48670432D02*
X210184847Y-33670432D01*
X195184847Y-48670432D02*
X210184847Y-48670432D01*
X176184847Y-36045432D02*
X176184847Y-51045432D01*
X191184847Y-36045432D02*
X176184847Y-36045432D01*
X191184847Y-51045432D02*
X191184847Y-36045432D01*
X176184847Y-51045432D02*
X191184847Y-51045432D01*
X286184847Y-57420432D02*
X271184847Y-57420432D01*
X271184847Y-57420432D02*
X271184847Y-72420432D01*
X286184847Y-72420432D02*
X286184847Y-57420432D01*
X271184847Y-72420432D02*
X286184847Y-72420432D01*
X267184847Y-72420432D02*
X267184847Y-57420432D01*
X252184847Y-72420432D02*
X267184847Y-72420432D01*
X252184847Y-57420432D02*
X252184847Y-72420432D01*
X267184847Y-57420432D02*
X252184847Y-57420432D01*
X248184847Y-67670432D02*
X248184847Y-52670432D01*
X233184847Y-67670432D02*
X248184847Y-67670432D01*
X233184847Y-52670432D02*
X233184847Y-67670432D01*
X248184847Y-52670432D02*
X233184847Y-52670432D01*
X214184847Y-50295432D02*
X214184847Y-65295432D01*
X214184847Y-65295432D02*
X229184847Y-65295432D01*
X229184847Y-65295432D02*
X229184847Y-50295432D01*
X229184847Y-50295432D02*
X214184847Y-50295432D01*
X195184847Y-67670432D02*
X210184847Y-67670432D01*
X210184847Y-52670432D02*
X195184847Y-52670432D01*
X210184847Y-67670432D02*
X210184847Y-52670432D01*
X195184847Y-52670432D02*
X195184847Y-67670432D01*
X191184847Y-70045432D02*
X191184847Y-55045432D01*
X176184847Y-70045432D02*
X191184847Y-70045432D01*
X176184847Y-55045432D02*
X176184847Y-70045432D01*
X191184847Y-55045432D02*
X176184847Y-55045432D01*
X286184847Y-76420432D02*
X271184847Y-76420432D01*
X271184847Y-91420432D02*
X286184847Y-91420432D01*
X286184847Y-91420432D02*
X286184847Y-76420432D01*
X271184847Y-76420432D02*
X271184847Y-91420432D01*
X252184847Y-91420432D02*
X267184847Y-91420432D01*
X267184847Y-91420432D02*
X267184847Y-76420432D01*
X252184847Y-76420432D02*
X252184847Y-91420432D01*
X267184847Y-76420432D02*
X252184847Y-76420432D01*
X233184847Y-86670432D02*
X248184847Y-86670432D01*
X248184847Y-71670432D02*
X233184847Y-71670432D01*
X233184847Y-71670432D02*
X233184847Y-86670432D01*
X248184847Y-86670432D02*
X248184847Y-71670432D01*
X214184847Y-84295432D02*
X229184847Y-84295432D01*
X229184847Y-69295432D02*
X214184847Y-69295432D01*
X229184847Y-84295432D02*
X229184847Y-69295432D01*
X214184847Y-69295432D02*
X214184847Y-84295432D01*
X210184847Y-71670432D02*
X195184847Y-71670432D01*
X195184847Y-86670432D02*
X210184847Y-86670432D01*
X210184847Y-86670432D02*
X210184847Y-71670432D01*
X195184847Y-71670432D02*
X195184847Y-86670432D01*
X204684847Y-106295432D02*
X219684847Y-106295432D01*
X204684847Y-91295432D02*
X204684847Y-106295432D01*
X219684847Y-106295432D02*
X219684847Y-91295432D01*
X219684847Y-91295432D02*
X204684847Y-91295432D01*
X200370434Y-106848733D02*
X196488148Y-92359845D01*
X181999260Y-96242131D02*
X185881546Y-110731019D01*
X196488148Y-92359845D02*
X181999260Y-96242131D01*
X185881546Y-110731019D02*
X200370434Y-106848733D01*
X191184847Y-74045432D02*
X176184847Y-74045432D01*
X176184847Y-74045432D02*
X176184847Y-89045432D01*
X176184847Y-89045432D02*
X191184847Y-89045432D01*
X191184847Y-89045432D02*
X191184847Y-74045432D01*
D10*
X127992500Y-71310000D02*
X127992500Y-38260000D01*
X145792500Y-38260000D02*
X145792500Y-71310000D01*
X133142500Y-38260000D02*
X140642500Y-38260000D01*
X140652500Y-38260000D02*
X145792500Y-38260000D01*
X145792500Y-71310000D02*
X127992500Y-71310000D01*
X133142500Y-36960000D02*
X140642500Y-36960000D01*
X127992500Y-38260000D02*
X133142500Y-38260000D01*
X133142500Y-36960000D02*
X133142500Y-38260961D01*
X140642500Y-36960000D02*
X140642500Y-38260000D01*
X155162847Y-71436432D02*
X155162847Y-38386432D01*
X160312847Y-38386432D02*
X167812847Y-38386432D01*
X160312847Y-37086432D02*
X160312847Y-38387393D01*
X172962847Y-38386432D02*
X172962847Y-71436432D01*
X167822847Y-38386432D02*
X172962847Y-38386432D01*
X155162847Y-38386432D02*
X160312847Y-38386432D01*
X167812847Y-37086432D02*
X167812847Y-38386432D01*
X160312847Y-37086432D02*
X167812847Y-37086432D01*
X172962847Y-71436432D02*
X155162847Y-71436432D01*
D11*
X124687500Y-51045000D02*
X124687500Y-36045000D01*
X124687500Y-36045000D02*
X109687500Y-36045000D01*
X109687500Y-36045000D02*
X109687500Y-51045000D01*
X109687500Y-51045000D02*
X124687500Y-51045000D01*
X90687500Y-33670000D02*
X90687500Y-48670000D01*
X105687500Y-48670000D02*
X105687500Y-33670000D01*
X90687500Y-48670000D02*
X105687500Y-48670000D01*
X105687500Y-33670000D02*
X90687500Y-33670000D01*
X86687500Y-46295000D02*
X86687500Y-31295000D01*
X86687500Y-31295000D02*
X71687500Y-31295000D01*
X71687500Y-31295000D02*
X71687500Y-46295000D01*
X71687500Y-46295000D02*
X86687500Y-46295000D01*
X52687500Y-48670000D02*
X67687500Y-48670000D01*
X52687500Y-33670000D02*
X52687500Y-48670000D01*
X67687500Y-48670000D02*
X67687500Y-33670000D01*
X67687500Y-33670000D02*
X52687500Y-33670000D01*
X33687500Y-53420000D02*
X48687500Y-53420000D01*
X33687500Y-38420000D02*
X33687500Y-53420000D01*
X48687500Y-38420000D02*
X33687500Y-38420000D01*
X48687500Y-53420000D02*
X48687500Y-38420000D01*
X124687500Y-89045000D02*
X124687500Y-74045000D01*
X124687500Y-74045000D02*
X109687500Y-74045000D01*
X109687500Y-74045000D02*
X109687500Y-89045000D01*
X109687500Y-89045000D02*
X124687500Y-89045000D01*
X118298559Y-113918338D02*
X131288941Y-121418338D01*
X131288941Y-121418338D02*
X145576441Y-96671662D01*
X145576441Y-96671662D02*
X132586059Y-89171662D01*
X132586059Y-89171662D02*
X118298559Y-113918338D01*
X29687500Y-76420000D02*
X14687500Y-76420000D01*
X14687500Y-91420000D02*
X29687500Y-91420000D01*
X29687500Y-91420000D02*
X29687500Y-76420000D01*
X14687500Y-76420000D02*
X14687500Y-91420000D01*
X100501913Y-106848301D02*
X114990801Y-110730587D01*
X104384199Y-92359413D02*
X100501913Y-106848301D01*
X118873087Y-96241699D02*
X104384199Y-92359413D01*
X114990801Y-110730587D02*
X118873087Y-96241699D01*
X81187500Y-106295000D02*
X96187500Y-106295000D01*
X96187500Y-91295000D02*
X81187500Y-91295000D01*
X96187500Y-106295000D02*
X96187500Y-91295000D01*
X81187500Y-91295000D02*
X81187500Y-106295000D01*
X105687500Y-71670000D02*
X90687500Y-71670000D01*
X90687500Y-71670000D02*
X90687500Y-86670000D01*
X90687500Y-86670000D02*
X105687500Y-86670000D01*
X105687500Y-86670000D02*
X105687500Y-71670000D01*
X71687500Y-84295000D02*
X86687500Y-84295000D01*
X86687500Y-84295000D02*
X86687500Y-69295000D01*
X71687500Y-69295000D02*
X71687500Y-84295000D01*
X86687500Y-69295000D02*
X71687500Y-69295000D01*
X67687500Y-86670000D02*
X67687500Y-71670000D01*
X52687500Y-86670000D02*
X67687500Y-86670000D01*
X67687500Y-71670000D02*
X52687500Y-71670000D01*
X52687500Y-71670000D02*
X52687500Y-86670000D01*
X48687500Y-91420000D02*
X48687500Y-76420000D01*
X33687500Y-76420000D02*
X33687500Y-91420000D01*
X33687500Y-91420000D02*
X48687500Y-91420000D01*
X48687500Y-76420000D02*
X33687500Y-76420000D01*
X109687500Y-70045000D02*
X124687500Y-70045000D01*
X109687500Y-55045000D02*
X109687500Y-70045000D01*
X124687500Y-55045000D02*
X109687500Y-55045000D01*
X124687500Y-70045000D02*
X124687500Y-55045000D01*
X105687500Y-52670000D02*
X90687500Y-52670000D01*
X105687500Y-67670000D02*
X105687500Y-52670000D01*
X90687500Y-52670000D02*
X90687500Y-67670000D01*
X90687500Y-67670000D02*
X105687500Y-67670000D01*
X86687500Y-50295000D02*
X71687500Y-50295000D01*
X71687500Y-65295000D02*
X86687500Y-65295000D01*
X71687500Y-50295000D02*
X71687500Y-65295000D01*
X86687500Y-65295000D02*
X86687500Y-50295000D01*
X52687500Y-52670000D02*
X52687500Y-67670000D01*
X52687500Y-67670000D02*
X67687500Y-67670000D01*
X67687500Y-67670000D02*
X67687500Y-52670000D01*
X67687500Y-52670000D02*
X52687500Y-52670000D01*
X48687500Y-57420000D02*
X33687500Y-57420000D01*
X48687500Y-72420000D02*
X48687500Y-57420000D01*
X33687500Y-72420000D02*
X48687500Y-72420000D01*
X33687500Y-57420000D02*
X33687500Y-72420000D01*
X14687500Y-57420000D02*
X14687500Y-72420000D01*
X29687500Y-72420000D02*
X29687500Y-57420000D01*
X14687500Y-72420000D02*
X29687500Y-72420000D01*
X29687500Y-57420000D02*
X14687500Y-57420000D01*
X14687500Y-53420000D02*
X29687500Y-53420000D01*
X14687500Y-38420000D02*
X14687500Y-53420000D01*
X29687500Y-53420000D02*
X29687500Y-38420000D01*
X29687500Y-38420000D02*
X14687500Y-38420000D01*
X168286288Y-89172094D02*
X155295906Y-96672094D01*
X155295906Y-96672094D02*
X169583406Y-121418770D01*
X182573788Y-113918770D02*
X168286288Y-89172094D01*
X169583406Y-121418770D02*
X182573788Y-113918770D01*
X152982500Y-84545000D02*
X152982500Y-85395000D01*
X153232500Y-85645000D02*
X154532500Y-85645000D01*
X153182500Y-84345000D02*
X152982500Y-84545000D01*
X153182500Y-85595000D02*
X153232500Y-85645000D01*
X154532500Y-82395000D02*
X154532500Y-89095000D01*
X157132500Y-89095000D02*
X157132500Y-82395000D01*
X154482500Y-84345000D02*
X153182500Y-84345000D01*
X157132500Y-82395000D02*
X154532500Y-82395000D01*
X154532500Y-89095000D02*
X157132500Y-89095000D01*
X152982500Y-85395000D02*
X153182500Y-85595000D01*
X159187500Y-79095000D02*
X159187500Y-79795000D01*
X159187500Y-84295000D02*
X159187500Y-84995000D01*
X161412500Y-83045000D02*
X161912500Y-83545000D01*
X166787500Y-79095000D02*
X159187500Y-79095000D01*
X166787500Y-84995000D02*
X166787500Y-79095000D01*
X159187500Y-79795000D02*
X160787500Y-79795000D01*
X160787500Y-84295000D02*
X159187500Y-84295000D01*
X160787500Y-79795000D02*
X160787500Y-84295000D01*
X161912500Y-82545000D02*
X161412500Y-83045000D01*
X161912500Y-83545000D02*
X161912500Y-82545000D01*
X159187500Y-84995000D02*
X166787500Y-84995000D01*
X161702500Y-73865000D02*
X161702500Y-71325000D01*
X166782500Y-73865000D02*
X161702500Y-73865000D01*
X161702500Y-71325000D02*
X166147500Y-71325000D01*
X166782500Y-71960000D02*
X166782500Y-73865000D01*
X166147500Y-71325000D02*
X166782500Y-71960000D01*
X139282500Y-71325000D02*
X139282500Y-73865000D01*
X134202500Y-71325000D02*
X139282500Y-71325000D01*
X134837500Y-73865000D02*
X134202500Y-73230000D01*
X139282500Y-73865000D02*
X134837500Y-73865000D01*
X134202500Y-73230000D02*
X134202500Y-71325000D01*
X147937500Y-86095000D02*
X147737500Y-85895000D01*
X147687500Y-85845000D02*
X146387500Y-85845000D01*
X146437500Y-87145000D02*
X147737500Y-87145000D01*
X143787500Y-89095000D02*
X146387500Y-89095000D01*
X146387500Y-82395000D02*
X143787500Y-82395000D01*
X147737500Y-85895000D02*
X147687500Y-85845000D01*
X147737500Y-87145000D02*
X147937500Y-86945000D01*
X146387500Y-89095000D02*
X146387500Y-82395000D01*
X147937500Y-86945000D02*
X147937500Y-86095000D01*
X143787500Y-82395000D02*
X143787500Y-89095000D01*
X140137500Y-79595000D02*
X141737500Y-79595000D01*
X134137500Y-78895000D02*
X134137500Y-84795000D01*
X141737500Y-78895000D02*
X134137500Y-78895000D01*
X139512500Y-80845000D02*
X139012500Y-80345000D01*
X134137500Y-84795000D02*
X141737500Y-84795000D01*
X141737500Y-79595000D02*
X141737500Y-78895000D01*
X139012500Y-80345000D02*
X139012500Y-81345000D01*
X141737500Y-84095000D02*
X140137500Y-84095000D01*
X139012500Y-81345000D02*
X139512500Y-80845000D01*
X141737500Y-84795000D02*
X141737500Y-84095000D01*
X140137500Y-84095000D02*
X140137500Y-79595000D01*
M02*
