M48
; DRILL file {KiCad (6.0.10)} date Sat Dec 31 14:29:25 2022
; FORMAT={-:-/ absolute / inch / decimal}
; #@! TF.CreationDate,2022-12-31T14:29:25-08:00
; #@! TF.GenerationSoftware,Kicad,Pcbnew,(6.0.10)
; #@! TF.FileFunction,MixedPlating,1,2
FMAT,2
INCH
; #@! TA.AperFunction,Plated,PTH,ViaDrill
T1C0.0157
; #@! TA.AperFunction,Plated,PTH,ComponentDrill
T2C0.0295
; #@! TA.AperFunction,Plated,PTH,ComponentDrill
T3C0.0320
; #@! TA.AperFunction,Plated,PTH,ComponentDrill
T4C0.0394
; #@! TA.AperFunction,Plated,PTH,ComponentDrill
T5C0.0512
; #@! TA.AperFunction,Plated,PTH,ComponentDrill
T6C0.0591
; #@! TA.AperFunction,NonPlated,NPTH,ComponentDrill
T7C0.0118
; #@! TA.AperFunction,NonPlated,NPTH,ComponentDrill
T8C0.0354
; #@! TA.AperFunction,NonPlated,NPTH,ComponentDrill
T9C0.0390
; #@! TA.AperFunction,NonPlated,NPTH,ComponentDrill
T10C0.0670
; #@! TA.AperFunction,NonPlated,NPTH,ComponentDrill
T11C0.0906
; #@! TA.AperFunction,NonPlated,NPTH,ComponentDrill
T12C0.1693
; #@! TA.AperFunction,NonPlated,NPTH,ComponentDrill
T13C0.1969
%
G90
G05
T1
X1.366Y-2.6539
X1.8592Y-2.8719
X2.4847Y-2.7425
X3.2308Y-2.7603
X3.9473Y-2.9722
X3.9582Y-2.1689
X3.9808Y-2.7782
X4.7347Y-2.8743
X4.9966Y-3.1002
X6.3145Y-3.4033
X6.8856Y-2.9831
X6.8884Y-2.6524
X6.91Y-2.6851
X6.91Y-2.9532
X7.3203Y-3.0105
X7.345Y-2.883
X8.095Y-2.7806
X8.4875Y-3.6896
X8.841Y-2.7636
X9.589Y-2.7577
X10.3125Y-2.3559
X10.3238Y-3.104
X10.4585Y-2.7054
T2
X5.5271Y-3.1829
X5.5271Y-3.2616
X6.3204Y-3.1907
X6.3204Y-3.2695
T3
X1.1885Y-1.6896
X1.1885Y-1.9259
X1.1885Y-2.4377
X1.1885Y-2.6739
X1.1885Y-3.1857
X1.1885Y-3.4219
X1.3066Y-1.6898
X1.3066Y-1.926
X1.3066Y-2.4378
X1.3066Y-2.674
X1.3066Y-3.1858
X1.3066Y-3.422
X2.6845Y-1.4929
X2.6845Y-1.7291
X2.6845Y-2.2409
X2.6845Y-2.4772
X2.6845Y-2.989
X2.6845Y-3.2252
X2.8027Y-1.4927
X2.8027Y-1.7289
X2.8027Y-2.2407
X2.8027Y-2.477
X2.8027Y-2.9888
X2.8027Y-3.225
X3.1696Y-3.776
X3.1696Y-4.0122
X3.8066Y-3.7758
X3.8066Y-4.012
X3.9247Y-3.7758
X3.9247Y-4.012
X4.1806Y-1.4929
X4.1806Y-1.7291
X4.1806Y-2.2409
X4.1806Y-2.4772
X4.1806Y-2.989
X4.1806Y-3.2252
X4.2987Y-1.4929
X4.2987Y-1.7291
X4.2987Y-2.2409
X4.2987Y-2.4772
X4.2987Y-2.989
X4.2987Y-3.2252
X5.0899Y-1.6568
X5.0899Y-1.7568
X5.0899Y-1.8568
X5.0899Y-1.9568
X5.0899Y-2.0568
X5.0899Y-2.1568
X5.0899Y-2.2568
X5.0899Y-2.3568
X5.0899Y-2.4568
X5.0899Y-2.5568
X5.0899Y-2.6568
X5.0899Y-2.7568
X5.1873Y-3.0381
X5.2873Y-3.0381
X5.3873Y-3.0381
X5.4873Y-3.0381
X5.5873Y-3.0381
X5.6891Y-1.6568
X5.6891Y-1.7568
X5.6891Y-1.8568
X5.6891Y-1.9568
X5.6891Y-2.0568
X5.6891Y-2.1568
X5.6891Y-2.2568
X5.6891Y-2.3568
X5.6891Y-2.4568
X5.6891Y-2.5568
X5.6891Y-2.6568
X5.6891Y-2.7568
X6.1596Y-1.6617
X6.1596Y-1.7617
X6.1596Y-1.8617
X6.1596Y-1.9617
X6.1596Y-2.0617
X6.1596Y-2.1617
X6.1596Y-2.2617
X6.1596Y-2.3617
X6.1596Y-2.4617
X6.1596Y-2.5617
X6.1596Y-2.6617
X6.1596Y-2.7617
X6.2594Y-3.0437
X6.3594Y-3.0437
X6.4594Y-3.0437
X6.5594Y-3.0437
X6.6594Y-3.0437
X6.7588Y-1.6617
X6.7588Y-1.7617
X6.7588Y-1.8617
X6.7588Y-1.9617
X6.7588Y-2.0617
X6.7588Y-2.1617
X6.7588Y-2.2617
X6.7588Y-2.3617
X6.7588Y-2.4617
X6.7588Y-2.5617
X6.7588Y-2.6617
X6.7588Y-2.7617
X7.5466Y-1.4929
X7.5466Y-1.7292
X7.5466Y-2.241
X7.5466Y-2.4772
X7.5466Y-2.989
X7.5466Y-3.2252
X7.6648Y-1.4929
X7.6648Y-1.7292
X7.6648Y-2.241
X7.6648Y-2.4772
X7.6648Y-2.989
X7.6648Y-3.2252
X7.9211Y-3.7762
X7.9211Y-4.0124
X8.0392Y-3.7762
X8.0392Y-4.0124
X8.6687Y-3.7768
X8.6687Y-4.013
X9.0427Y-1.4927
X9.0427Y-1.729
X9.0427Y-2.2408
X9.0427Y-2.477
X9.0427Y-2.9888
X9.0427Y-3.225
X9.1608Y-1.4929
X9.1608Y-1.7292
X9.1608Y-2.241
X9.1608Y-2.4772
X9.1608Y-2.989
X9.1608Y-3.2252
X10.5388Y-1.6898
X10.5388Y-1.926
X10.5388Y-2.4378
X10.5388Y-2.674
X10.5388Y-3.1858
X10.5388Y-3.4221
X10.6569Y-1.6898
X10.6569Y-1.926
X10.6569Y-2.4378
X10.6569Y-2.674
X10.6569Y-3.1858
X10.6569Y-3.4221
T4
X5.3336Y-2.8581
X5.4336Y-2.8581
X6.4162Y-2.8581
X6.5162Y-2.8581
T5
X5.7032Y-2.8906
X5.7032Y-3.1465
X6.1422Y-2.8964
X6.1422Y-3.1523
T6
X0.6767Y-1.9575
X0.6767Y-2.7055
X0.6767Y-3.4535
X0.7003Y-1.9929
X0.7003Y-2.7409
X0.7003Y-3.489
X0.7735Y-2.0079
X0.7735Y-2.7559
X0.7735Y-3.5039
X0.8735Y-2.0402
X0.8735Y-2.7882
X0.8735Y-3.5362
X0.9759Y-2.0343
X0.9759Y-2.7823
X0.9759Y-3.5303
X1.0235Y-1.9079
X1.0235Y-2.6559
X1.0235Y-3.4039
X1.4247Y-1.9575
X1.4247Y-2.7055
X1.4247Y-3.4535
X1.4483Y-1.9929
X1.4483Y-2.7409
X1.4483Y-3.489
X1.5216Y-2.0079
X1.5216Y-2.7559
X1.5216Y-3.5039
X1.6216Y-2.0402
X1.6216Y-2.7882
X1.6216Y-3.5362
X1.7239Y-2.0343
X1.7239Y-2.7823
X1.7239Y-3.5303
X1.7716Y-1.9079
X1.7716Y-2.6559
X1.7716Y-3.4039
X2.1727Y-1.7705
X2.1727Y-2.5185
X2.1727Y-3.2665
X2.1964Y-1.8059
X2.1964Y-2.5539
X2.1964Y-3.302
X2.2696Y-1.8209
X2.2696Y-2.5689
X2.2696Y-3.3169
X2.3696Y-1.8531
X2.3696Y-2.6012
X2.3696Y-3.3492
X2.4719Y-1.8472
X2.4719Y-2.5953
X2.4719Y-3.3433
X2.5196Y-1.7209
X2.5196Y-2.4689
X2.5196Y-3.2169
X2.9208Y-1.677
X2.9208Y-2.425
X2.9208Y-3.173
X2.9444Y-1.7124
X2.9444Y-2.4604
X2.9444Y-3.2085
X3.0176Y-1.7274
X3.0176Y-2.4754
X3.0176Y-3.2234
X3.1176Y-1.7596
X3.1176Y-2.5077
X3.1176Y-3.2557
X3.22Y-1.7537
X3.22Y-2.5018
X3.22Y-3.2498
X3.2676Y-1.6274
X3.2676Y-2.3754
X3.2676Y-3.1234
X3.2948Y-4.0392
X3.3184Y-4.0746
X3.3916Y-4.0896
X3.4916Y-4.1219
X3.594Y-4.1159
X3.6416Y-3.9896
X3.6688Y-1.7705
X3.6688Y-2.5185
X3.6688Y-3.2665
X3.6924Y-1.8059
X3.6924Y-2.5539
X3.6924Y-3.302
X3.7656Y-1.8209
X3.7656Y-2.5689
X3.7656Y-3.3169
X3.8656Y-1.8531
X3.8656Y-2.6012
X3.8656Y-3.3492
X3.968Y-1.8472
X3.968Y-2.5953
X3.968Y-3.3433
X4.0156Y-1.7209
X4.0156Y-2.4689
X4.0156Y-3.2169
X4.0895Y-4.0914
X4.1032Y-4.1317
X4.17Y-4.1651
X4.2583Y-4.2222
X4.3587Y-4.243
X4.4168Y-1.864
X4.4168Y-2.612
X4.4168Y-3.36
X4.4374Y-4.1333
X4.4405Y-1.8994
X4.4405Y-2.6474
X4.4405Y-3.3955
X4.5137Y-1.9144
X4.5137Y-2.6624
X4.5137Y-3.4104
X4.6137Y-1.9467
X4.6137Y-2.6947
X4.6137Y-3.4427
X4.716Y-1.9407
X4.716Y-2.6888
X4.716Y-3.4368
X4.7637Y-1.8144
X4.7637Y-2.5624
X4.7637Y-3.3104
X5.2255Y-4.3908
X5.268Y-4.388
X5.3176Y-4.3321
X5.356Y-4.0656
X5.3956Y-4.2616
X5.4416Y-4.17
X6.4041Y-4.088
X6.423Y-4.0498
X6.4278Y-4.1589
X6.4498Y-4.2616
X6.5061Y-4.3473
X6.6394Y-4.3254
X7.0348Y-1.864
X7.0348Y-2.612
X7.0348Y-3.3601
X7.0585Y-1.8994
X7.0585Y-2.6475
X7.0585Y-3.3955
X7.1317Y-1.9144
X7.1317Y-2.6624
X7.1317Y-3.4105
X7.2317Y-1.9467
X7.2317Y-2.6947
X7.2317Y-3.4427
X7.334Y-1.9408
X7.334Y-2.6888
X7.334Y-3.4368
X7.3755Y-4.1933
X7.3817Y-1.8144
X7.3817Y-2.5624
X7.3817Y-3.3105
X7.4075Y-4.2214
X7.4821Y-4.2169
X7.5871Y-4.2222
X7.6844Y-4.19
X7.6977Y-4.0556
X7.7829Y-1.7705
X7.7829Y-2.5185
X7.7829Y-3.2666
X7.8065Y-1.8059
X7.8065Y-2.554
X7.8065Y-3.302
X7.8797Y-1.8209
X7.8797Y-2.5689
X7.8797Y-3.3169
X7.9797Y-1.8532
X7.9797Y-2.6012
X7.9797Y-3.3492
X8.0821Y-1.8473
X8.0821Y-2.5953
X8.0821Y-3.3433
X8.1297Y-1.7209
X8.1297Y-2.4689
X8.1297Y-3.2169
X8.1569Y-4.0392
X8.1805Y-4.0746
X8.2537Y-4.0896
X8.3537Y-4.1219
X8.4561Y-4.116
X8.5037Y-3.9896
X8.5309Y-1.677
X8.5309Y-2.425
X8.5309Y-3.173
X8.5545Y-1.7124
X8.5545Y-2.4605
X8.5545Y-3.2085
X8.6277Y-1.7274
X8.6277Y-2.4754
X8.6277Y-3.2234
X8.7277Y-1.7597
X8.7277Y-2.5077
X8.7277Y-3.2557
X8.8301Y-1.7538
X8.8301Y-2.5018
X8.8301Y-3.2498
X8.8777Y-1.6274
X8.8777Y-2.3754
X8.8777Y-3.1234
X9.2789Y-1.7705
X9.2789Y-2.5185
X9.2789Y-3.2666
X9.3026Y-1.8059
X9.3026Y-2.554
X9.3026Y-3.302
X9.3758Y-1.8209
X9.3758Y-2.5689
X9.3758Y-3.3169
X9.4758Y-1.8532
X9.4758Y-2.6012
X9.4758Y-3.3492
X9.5781Y-1.8473
X9.5781Y-2.5953
X9.5781Y-3.3433
X9.6258Y-1.7209
X9.6258Y-2.4689
X9.6258Y-3.2169
X10.027Y-1.9575
X10.027Y-2.7055
X10.027Y-3.4536
X10.0506Y-1.9929
X10.0506Y-2.741
X10.0506Y-3.489
X10.1238Y-2.0079
X10.1238Y-2.7559
X10.1238Y-3.504
X10.2238Y-2.0402
X10.2238Y-2.7882
X10.2238Y-3.5362
X10.3262Y-2.0343
X10.3262Y-2.7823
X10.3262Y-3.5303
X10.3738Y-1.9079
X10.3738Y-2.6559
X10.3738Y-3.404
X10.775Y-1.9575
X10.775Y-2.7055
X10.775Y-3.4536
X10.7986Y-1.9929
X10.7986Y-2.741
X10.7986Y-3.489
X10.8718Y-2.0079
X10.8718Y-2.7559
X10.8718Y-3.504
X10.9718Y-2.0402
X10.9718Y-2.7882
X10.9718Y-3.5362
X11.0742Y-2.0343
X11.0742Y-2.7823
X11.0742Y-3.5303
X11.1218Y-1.9079
X11.1218Y-2.6559
X11.1218Y-3.404
T7
X0.7804Y-3.6764
X0.8037Y-3.6764
X0.8271Y-3.6764
X0.8505Y-3.6764
X0.8739Y-3.6764
X0.8972Y-3.6764
X0.9206Y-3.6764
X0.944Y-3.6764
X0.9674Y-3.6764
X2.276Y-3.6764
X2.28Y-1.2587
X2.2993Y-3.6764
X2.3034Y-1.2587
X2.3227Y-3.6764
X2.3268Y-1.2587
X2.3461Y-3.6764
X2.3501Y-1.2587
X2.3695Y-3.6764
X2.3735Y-1.2587
X2.3928Y-3.6764
X2.3969Y-1.2587
X2.4162Y-3.6764
X2.4203Y-1.2587
X2.4396Y-3.6764
X2.4437Y-1.2587
X2.463Y-3.6764
X2.467Y-1.2587
X3.7749Y-1.2587
X3.7983Y-1.2587
X3.8217Y-1.2587
X3.845Y-1.2587
X3.8684Y-1.2587
X3.8918Y-1.2587
X3.9152Y-1.2587
X3.9385Y-1.2587
X3.9619Y-1.2587
X7.8899Y-1.2591
X7.9132Y-1.2591
X7.9366Y-1.2591
X7.96Y-1.2591
X7.9834Y-1.2591
X8.0067Y-1.2591
X8.0301Y-1.2591
X8.0535Y-1.2591
X8.0769Y-1.2591
X9.3867Y-1.2587
X9.3879Y-3.6768
X9.4101Y-1.2587
X9.4113Y-3.6768
X9.4335Y-1.2587
X9.4346Y-3.6768
X9.4568Y-1.2587
X9.458Y-3.6768
X9.4802Y-1.2587
X9.4814Y-3.6768
X9.5036Y-1.2587
X9.5048Y-3.6768
X9.527Y-1.2587
X9.5281Y-3.6768
X9.5503Y-1.2587
X9.5515Y-3.6768
X9.5737Y-1.2587
X9.5749Y-3.6768
X10.884Y-3.6768
X10.9073Y-3.6768
X10.9307Y-3.6768
X10.9541Y-3.6768
X10.9775Y-3.6768
X11.0008Y-3.6768
X11.0242Y-3.6768
X11.0476Y-3.6768
X11.071Y-3.6768
T8
X5.7133Y-3.3167
X5.7133Y-3.4348
X6.134Y-3.3167
X6.134Y-3.4348
T9
X1.079Y-1.6425
X1.079Y-2.3906
X1.079Y-3.1386
X1.8271Y-1.6425
X1.8271Y-2.3906
X1.8271Y-3.1386
X2.5751Y-1.4555
X2.5751Y-2.2035
X2.5751Y-2.9516
X3.3231Y-1.362
X3.3231Y-2.11
X3.3231Y-2.8581
X3.6971Y-3.7242
X4.0712Y-1.4555
X4.0712Y-2.2035
X4.0712Y-2.9516
X4.5597Y-3.8913
X4.8192Y-1.549
X4.8192Y-2.297
X4.8192Y-3.0451
X5.1539Y-3.8848
X6.8969Y-4.2408
X7.4372Y-1.549
X7.4372Y-2.2971
X7.4372Y-3.0451
X7.6827Y-3.7849
X8.1852Y-1.4555
X8.1852Y-2.2036
X8.1852Y-2.9516
X8.5592Y-3.7242
X8.9333Y-1.362
X8.9333Y-2.1101
X8.9333Y-2.8581
X9.6813Y-1.4555
X9.6813Y-2.2036
X9.6813Y-2.9516
X10.4293Y-1.6425
X10.4293Y-2.3906
X10.4293Y-3.1386
X11.1774Y-1.6425
X11.1774Y-2.3906
X11.1774Y-3.1386
T10
X0.657Y-1.8079
X0.657Y-2.5559
X0.657Y-3.3039
X1.0901Y-1.8079
X1.0901Y-2.5559
X1.0901Y-3.3039
X1.405Y-1.8079
X1.405Y-2.5559
X1.405Y-3.3039
X1.8381Y-1.8079
X1.8381Y-2.5559
X1.8381Y-3.3039
X2.1531Y-1.6209
X2.1531Y-2.3689
X2.1531Y-3.1169
X2.5861Y-1.6209
X2.5861Y-2.3689
X2.5861Y-3.1169
X2.9011Y-1.5274
X2.9011Y-2.2754
X2.9011Y-3.0234
X3.2751Y-3.8896
X3.3342Y-1.5274
X3.3342Y-2.2754
X3.3342Y-3.0234
X3.6491Y-1.6209
X3.6491Y-2.3689
X3.6491Y-3.1169
X3.7082Y-3.8896
X4.0822Y-1.6209
X4.0822Y-2.3689
X4.0822Y-3.1169
X4.1092Y-3.9418
X4.3971Y-1.7144
X4.3971Y-2.4624
X4.3971Y-3.2104
X4.5276Y-4.0539
X4.8302Y-1.7144
X4.8302Y-2.4624
X4.8302Y-3.2104
X5.0861Y-4.333
X5.3027Y-3.9579
X6.5427Y-3.958
X6.7592Y-4.333
X7.0152Y-1.7144
X7.0152Y-2.4624
X7.0152Y-3.2105
X7.3178Y-4.0539
X7.4482Y-1.7144
X7.4482Y-2.4624
X7.4482Y-3.2105
X7.7361Y-3.9418
X7.7632Y-1.6209
X7.7632Y-2.3689
X7.7632Y-3.1169
X8.1372Y-3.8896
X8.1963Y-1.6209
X8.1963Y-2.3689
X8.1963Y-3.1169
X8.5112Y-1.5274
X8.5112Y-2.2754
X8.5112Y-3.0234
X8.5703Y-3.8896
X8.9443Y-1.5274
X8.9443Y-2.2754
X8.9443Y-3.0234
X9.2592Y-1.6209
X9.2592Y-2.3689
X9.2592Y-3.1169
X9.6923Y-1.6209
X9.6923Y-2.3689
X9.6923Y-3.1169
X10.0073Y-1.8079
X10.0073Y-2.5559
X10.0073Y-3.304
X10.4403Y-1.8079
X10.4403Y-2.5559
X10.4403Y-3.304
X10.7553Y-1.8079
X10.7553Y-2.5559
X10.7553Y-3.304
X11.1884Y-1.8079
X11.1884Y-2.5559
X11.1884Y-3.304
T11
X5.1159Y-3.3236
X5.6841Y-3.6591
X6.1548Y-3.6648
X6.7279Y-3.3284
T12
X1.2479Y-2.1819
X1.2479Y-2.9299
X1.9966Y-2.1829
X1.9966Y-2.9309
X2.9464Y-3.6097
X4.2382Y-2.0445
X4.7797Y-3.9094
X7.0664Y-3.9152
X7.6077Y-2.0448
X8.8998Y-3.6101
X9.8509Y-2.1822
X9.8509Y-2.9302
X10.5983Y-2.1822
X10.5983Y-2.9302
T13
X0.8735Y-1.8079
X0.8735Y-2.5559
X0.8735Y-3.3039
X1.6216Y-1.8079
X1.6216Y-2.5559
X1.6216Y-3.3039
X2.3696Y-1.6209
X2.3696Y-2.3689
X2.3696Y-3.1169
X3.1176Y-1.5274
X3.1176Y-2.2754
X3.1176Y-3.0234
X3.4916Y-3.8896
X3.8656Y-1.6209
X3.8656Y-2.3689
X3.8656Y-3.1169
X4.3184Y-3.9978
X4.6137Y-1.7144
X4.6137Y-2.4624
X4.6137Y-3.2104
X5.1944Y-4.1455
X6.651Y-4.1455
X7.2317Y-1.7144
X7.2317Y-2.4624
X7.2317Y-3.2105
X7.527Y-3.9979
X7.9797Y-1.6209
X7.9797Y-2.3689
X7.9797Y-3.1169
X8.3537Y-3.8896
X8.7277Y-1.5274
X8.7277Y-2.2754
X8.7277Y-3.0234
X9.4758Y-1.6209
X9.4758Y-2.3689
X9.4758Y-3.1169
X10.2238Y-1.8079
X10.2238Y-2.5559
X10.2238Y-3.304
X10.9718Y-1.8079
X10.9718Y-2.5559
X10.9718Y-3.304
T0
M30
