G04 #@! TF.GenerationSoftware,KiCad,Pcbnew,(6.0.10)*
G04 #@! TF.CreationDate,2022-12-31T14:29:49-08:00*
G04 #@! TF.ProjectId,corne-ultralight,636f726e-652d-4756-9c74-72616c696768,2.0*
G04 #@! TF.SameCoordinates,Original*
G04 #@! TF.FileFunction,Copper,L1,Top*
G04 #@! TF.FilePolarity,Positive*
%FSLAX46Y46*%
G04 Gerber Fmt 4.6, Leading zero omitted, Abs format (unit mm)*
G04 Created by KiCad (PCBNEW (6.0.10)) date 2022-12-31 14:29:49*
%MOMM*%
%LPD*%
G01*
G04 APERTURE LIST*
G04 Aperture macros list*
%AMRoundRect*
0 Rectangle with rounded corners*
0 $1 Rounding radius*
0 $2 $3 $4 $5 $6 $7 $8 $9 X,Y pos of 4 corners*
0 Add a 4 corners polygon primitive as box body*
4,1,4,$2,$3,$4,$5,$6,$7,$8,$9,$2,$3,0*
0 Add four circle primitives for the rounded corners*
1,1,$1+$1,$2,$3*
1,1,$1+$1,$4,$5*
1,1,$1+$1,$6,$7*
1,1,$1+$1,$8,$9*
0 Add four rect primitives between the rounded corners*
20,1,$1+$1,$2,$3,$4,$5,0*
20,1,$1+$1,$4,$5,$6,$7,0*
20,1,$1+$1,$6,$7,$8,$9,0*
20,1,$1+$1,$8,$9,$2,$3,0*%
G04 Aperture macros list end*
G04 #@! TA.AperFunction,ComponentPad*
%ADD10C,2.000000*%
G04 #@! TD*
G04 #@! TA.AperFunction,ComponentPad*
%ADD11C,2.500000*%
G04 #@! TD*
G04 #@! TA.AperFunction,ComponentPad*
%ADD12C,2.286000*%
G04 #@! TD*
G04 #@! TA.AperFunction,ComponentPad*
%ADD13C,1.524000*%
G04 #@! TD*
G04 #@! TA.AperFunction,ComponentPad*
%ADD14O,1.397000X1.778000*%
G04 #@! TD*
G04 #@! TA.AperFunction,SMDPad,CuDef*
%ADD15R,0.800000X1.000000*%
G04 #@! TD*
G04 #@! TA.AperFunction,SMDPad,CuDef*
%ADD16R,1.500000X0.700000*%
G04 #@! TD*
G04 #@! TA.AperFunction,ComponentPad*
%ADD17RoundRect,0.250000X0.625000X-0.350000X0.625000X0.350000X-0.625000X0.350000X-0.625000X-0.350000X0*%
G04 #@! TD*
G04 #@! TA.AperFunction,ComponentPad*
%ADD18O,1.750000X1.200000*%
G04 #@! TD*
G04 #@! TA.AperFunction,ComponentPad*
%ADD19R,1.700000X1.700000*%
G04 #@! TD*
G04 #@! TA.AperFunction,ComponentPad*
%ADD20O,1.700000X1.700000*%
G04 #@! TD*
G04 #@! TA.AperFunction,ComponentPad*
%ADD21RoundRect,0.250000X-0.625000X0.350000X-0.625000X-0.350000X0.625000X-0.350000X0.625000X0.350000X0*%
G04 #@! TD*
G04 #@! TA.AperFunction,ComponentPad*
%ADD22R,1.300000X1.778000*%
G04 #@! TD*
G04 #@! TA.AperFunction,ComponentPad*
%ADD23O,1.300000X1.778000*%
G04 #@! TD*
G04 #@! TA.AperFunction,ViaPad*
%ADD24C,0.600000*%
G04 #@! TD*
G04 #@! TA.AperFunction,ViaPad*
%ADD25C,0.800000*%
G04 #@! TD*
G04 #@! TA.AperFunction,Conductor*
%ADD26C,0.250000*%
G04 #@! TD*
G04 #@! TA.AperFunction,Conductor*
%ADD27C,0.254000*%
G04 #@! TD*
G04 #@! TA.AperFunction,Conductor*
%ADD28C,0.508000*%
G04 #@! TD*
G04 #@! TA.AperFunction,Conductor*
%ADD29C,0.500000*%
G04 #@! TD*
G04 APERTURE END LIST*
D10*
X156012500Y-80067432D03*
X156012500Y-73567432D03*
D11*
X278684847Y-51820432D03*
X282494847Y-48460432D03*
X281284847Y-51670432D03*
D12*
X276144847Y-51000432D03*
D11*
X274284847Y-50620432D03*
X273684847Y-49720432D03*
X259684847Y-51820432D03*
X263494847Y-48460432D03*
X262284847Y-51670432D03*
X255284847Y-50620432D03*
X254684847Y-49720432D03*
D12*
X257144847Y-51000432D03*
D11*
X243284847Y-46920432D03*
X244494847Y-43710432D03*
X240684847Y-47070432D03*
X235684847Y-44970432D03*
D12*
X238144847Y-46250432D03*
D11*
X236284847Y-45870432D03*
X225494847Y-41335432D03*
X221684847Y-44695432D03*
X224284847Y-44545432D03*
D12*
X219144847Y-43875432D03*
D11*
X217284847Y-43495432D03*
X216684847Y-42595432D03*
X202684847Y-47070432D03*
X205284847Y-46920432D03*
X206494847Y-43710432D03*
D12*
X200144847Y-46250432D03*
D11*
X198284847Y-45870432D03*
X197684847Y-44970432D03*
X187494847Y-46085432D03*
X183684847Y-49445432D03*
X186284847Y-49295432D03*
D12*
X181144847Y-48625432D03*
D11*
X179284847Y-48245432D03*
X178684847Y-47345432D03*
X278684847Y-70820432D03*
X281284847Y-70670432D03*
X282494847Y-67460432D03*
X274284847Y-69620432D03*
X273684847Y-68720432D03*
D12*
X276144847Y-70000432D03*
D11*
X263494847Y-67460432D03*
X259684847Y-70820432D03*
X262284847Y-70670432D03*
X254684847Y-68720432D03*
X255284847Y-69620432D03*
D12*
X257144847Y-70000432D03*
D11*
X244494847Y-62710432D03*
X240684847Y-66070432D03*
X243284847Y-65920432D03*
X235684847Y-63970432D03*
D12*
X238144847Y-65250432D03*
D11*
X236284847Y-64870432D03*
X221684847Y-63695432D03*
X225494847Y-60335432D03*
X224284847Y-63545432D03*
D12*
X219144847Y-62875432D03*
D11*
X217284847Y-62495432D03*
X216684847Y-61595432D03*
X202684847Y-66070432D03*
X205284847Y-65920432D03*
X206494847Y-62710432D03*
X198284847Y-64870432D03*
X197684847Y-63970432D03*
D12*
X200144847Y-65250432D03*
D11*
X186284847Y-68295432D03*
X187494847Y-65085432D03*
X183684847Y-68445432D03*
D12*
X181144847Y-67625432D03*
D11*
X178684847Y-66345432D03*
X179284847Y-67245432D03*
X282494847Y-86460432D03*
X281284847Y-89670432D03*
X278684847Y-89820432D03*
D12*
X276144847Y-89000432D03*
D11*
X273684847Y-87720432D03*
X274284847Y-88620432D03*
X263494847Y-86460432D03*
X262284847Y-89670432D03*
X259684847Y-89820432D03*
D12*
X257144847Y-89000432D03*
D11*
X254684847Y-87720432D03*
X255284847Y-88620432D03*
X244494847Y-81710432D03*
X240684847Y-85070432D03*
X243284847Y-84920432D03*
X236284847Y-83870432D03*
X235684847Y-82970432D03*
D12*
X238144847Y-84250432D03*
D11*
X225494847Y-79335432D03*
X224284847Y-82545432D03*
X221684847Y-82695432D03*
X216684847Y-80595432D03*
D12*
X219144847Y-81875432D03*
D11*
X217284847Y-81495432D03*
X205284847Y-84920432D03*
X206494847Y-81710432D03*
X202684847Y-85070432D03*
X197684847Y-82970432D03*
X198284847Y-83870432D03*
D12*
X200144847Y-84250432D03*
D11*
X215994847Y-101335432D03*
X214784847Y-104545432D03*
X212184847Y-104695432D03*
X207184847Y-102595432D03*
D12*
X209644847Y-103875432D03*
D11*
X207784847Y-103495432D03*
X195522425Y-103012783D03*
X195184464Y-106426576D03*
X192711879Y-107244394D03*
X188151223Y-107224087D03*
D12*
X190046196Y-107109736D03*
D11*
X187338730Y-106510045D03*
X187494847Y-84085432D03*
X186284847Y-87295432D03*
X183684847Y-87445432D03*
D12*
X181144847Y-86625432D03*
D11*
X178684847Y-85345432D03*
X179284847Y-86245432D03*
D13*
X144503900Y-42082000D03*
X144503900Y-44622000D03*
X144503900Y-47162000D03*
X144503900Y-49702000D03*
X144503900Y-52242000D03*
X144503900Y-54782000D03*
X144503900Y-57322000D03*
X144503900Y-59862000D03*
X144503900Y-62402000D03*
X144503900Y-64942000D03*
X144503900Y-67482000D03*
X144503900Y-70022000D03*
X129283900Y-70022000D03*
X129283900Y-67482000D03*
X129283900Y-64942000D03*
X129283900Y-62402000D03*
X129283900Y-59862000D03*
X129283900Y-57322000D03*
X129283900Y-54782000D03*
X129283900Y-52242000D03*
X129283900Y-49702000D03*
X129283900Y-47162000D03*
X129283900Y-44622000D03*
X129283900Y-42082000D03*
X171674247Y-42208432D03*
X171674247Y-44748432D03*
X171674247Y-47288432D03*
X171674247Y-49828432D03*
X171674247Y-52368432D03*
X171674247Y-54908432D03*
X171674247Y-57448432D03*
X171674247Y-59988432D03*
X171674247Y-62528432D03*
X171674247Y-65068432D03*
X171674247Y-67608432D03*
X171674247Y-70148432D03*
X156454247Y-70148432D03*
X156454247Y-67608432D03*
X156454247Y-65068432D03*
X156454247Y-62528432D03*
X156454247Y-59988432D03*
X156454247Y-57448432D03*
X156454247Y-54908432D03*
X156454247Y-52368432D03*
X156454247Y-49828432D03*
X156454247Y-47288432D03*
X156454247Y-44748432D03*
X156454247Y-42208432D03*
D11*
X117187500Y-49445000D03*
X119787500Y-49295000D03*
X120997500Y-46085000D03*
D12*
X114647500Y-48625000D03*
D11*
X112187500Y-47345000D03*
X112787500Y-48245000D03*
X100787500Y-46920000D03*
X101997500Y-43710000D03*
X98187500Y-47070000D03*
X93187500Y-44970000D03*
X93787500Y-45870000D03*
D12*
X95647500Y-46250000D03*
D11*
X82997500Y-41335000D03*
X81787500Y-44545000D03*
X79187500Y-44695000D03*
X74187500Y-42595000D03*
D12*
X76647500Y-43875000D03*
D11*
X74787500Y-43495000D03*
X60187500Y-47070000D03*
X63997500Y-43710000D03*
X62787500Y-46920000D03*
X55787500Y-45870000D03*
D12*
X57647500Y-46250000D03*
D11*
X55187500Y-44970000D03*
X41187500Y-51820000D03*
X44997500Y-48460000D03*
X43787500Y-51670000D03*
X36787500Y-50620000D03*
X36187500Y-49720000D03*
D12*
X38647500Y-51000000D03*
D11*
X117187500Y-87445000D03*
X119787500Y-87295000D03*
X120997500Y-84085000D03*
D12*
X114647500Y-86625000D03*
D11*
X112187500Y-85345000D03*
X112787500Y-86245000D03*
X136042205Y-103265443D03*
X138217146Y-105918334D03*
X137047050Y-108245000D03*
D12*
X135066909Y-110034705D03*
D11*
X133807819Y-111455512D03*
X132728397Y-111525127D03*
X24787500Y-89670000D03*
X25997500Y-86460000D03*
X22187500Y-89820000D03*
X17787500Y-88620000D03*
D12*
X19647500Y-89000000D03*
D11*
X17187500Y-87720000D03*
X110710698Y-107772003D03*
X112710277Y-104984552D03*
X108160468Y-107243962D03*
X104220977Y-104946048D03*
X103874358Y-103921423D03*
D12*
X105919248Y-105794503D03*
D11*
X88687500Y-104695000D03*
X91287500Y-104545000D03*
X92497500Y-101335000D03*
D12*
X86147500Y-103875000D03*
D11*
X83687500Y-102595000D03*
X84287500Y-103495000D03*
X101997500Y-81710000D03*
X98187500Y-85070000D03*
X100787500Y-84920000D03*
X93787500Y-83870000D03*
D12*
X95647500Y-84250000D03*
D11*
X93187500Y-82970000D03*
X79187500Y-82695000D03*
X82997500Y-79335000D03*
X81787500Y-82545000D03*
X74187500Y-80595000D03*
D12*
X76647500Y-81875000D03*
D11*
X74787500Y-81495000D03*
X60187500Y-85070000D03*
X63997500Y-81710000D03*
X62787500Y-84920000D03*
X55787500Y-83870000D03*
X55187500Y-82970000D03*
D12*
X57647500Y-84250000D03*
D11*
X43787500Y-89670000D03*
X41187500Y-89820000D03*
X44997500Y-86460000D03*
X36787500Y-88620000D03*
D12*
X38647500Y-89000000D03*
D11*
X36187500Y-87720000D03*
X117187500Y-68445000D03*
X120997500Y-65085000D03*
X119787500Y-68295000D03*
X112187500Y-66345000D03*
X112787500Y-67245000D03*
D12*
X114647500Y-67625000D03*
D11*
X98187500Y-66070000D03*
X100787500Y-65920000D03*
X101997500Y-62710000D03*
X93187500Y-63970000D03*
D12*
X95647500Y-65250000D03*
D11*
X93787500Y-64870000D03*
X82997500Y-60335000D03*
X79187500Y-63695000D03*
X81787500Y-63545000D03*
X74187500Y-61595000D03*
X74787500Y-62495000D03*
D12*
X76647500Y-62875000D03*
D11*
X62787500Y-65920000D03*
X60187500Y-66070000D03*
X63997500Y-62710000D03*
X55787500Y-64870000D03*
D12*
X57647500Y-65250000D03*
D11*
X55187500Y-63970000D03*
X41187500Y-70820000D03*
X43787500Y-70670000D03*
X44997500Y-67460000D03*
X36187500Y-68720000D03*
X36787500Y-69620000D03*
D12*
X38647500Y-70000000D03*
D11*
X22187500Y-70820000D03*
X24787500Y-70670000D03*
X25997500Y-67460000D03*
X17787500Y-69620000D03*
X17187500Y-68720000D03*
D12*
X19647500Y-70000000D03*
D11*
X22187500Y-51820000D03*
X25997500Y-48460000D03*
X24787500Y-51670000D03*
D12*
X19647500Y-51000000D03*
D11*
X17787500Y-50620000D03*
X17187500Y-49720000D03*
X163825297Y-108245432D03*
X168640142Y-109864989D03*
X165255201Y-110422098D03*
X162664528Y-103834920D03*
X163143950Y-102865305D03*
D12*
X163265438Y-105635727D03*
D14*
X131758500Y-77168000D03*
X134298500Y-77168000D03*
X136838500Y-77168000D03*
X139378500Y-77168000D03*
X141918500Y-77168000D03*
D10*
X144862500Y-79921000D03*
X144862500Y-73421000D03*
D14*
X158987500Y-77310000D03*
X161527500Y-77310000D03*
X164067500Y-77310000D03*
X166607500Y-77310000D03*
X169147500Y-77310000D03*
D15*
X156912500Y-89395000D03*
X154702500Y-82095000D03*
X154702500Y-89395000D03*
X156912500Y-82095000D03*
D16*
X157562500Y-83495000D03*
X157562500Y-86495000D03*
X157562500Y-87995000D03*
D17*
X160537500Y-83045000D03*
D18*
X160537500Y-81045000D03*
D19*
X165512500Y-72595000D03*
D20*
X162972500Y-72595000D03*
D19*
X135472500Y-72595000D03*
D20*
X138012500Y-72595000D03*
D15*
X144007500Y-82095000D03*
X146217500Y-82095000D03*
X146217500Y-89395000D03*
X144007500Y-89395000D03*
D16*
X143357500Y-87995000D03*
X143357500Y-84995000D03*
X143357500Y-83495000D03*
D21*
X140387500Y-80845000D03*
D18*
X140387500Y-82845000D03*
D22*
X270684847Y-86920432D03*
D23*
X270684847Y-80920432D03*
D22*
X232684847Y-81920432D03*
D23*
X232684847Y-75920432D03*
D22*
X229684847Y-81915432D03*
D23*
X229684847Y-75915432D03*
D22*
X194684847Y-81920432D03*
D23*
X194684847Y-75920432D03*
D22*
X191684847Y-81920432D03*
D23*
X191684847Y-75920432D03*
D22*
X220184847Y-101930432D03*
D23*
X220184847Y-95930432D03*
D22*
X204194847Y-101915432D03*
D23*
X204194847Y-95915432D03*
D22*
X201194847Y-101915432D03*
D23*
X201194847Y-95915432D03*
D22*
X270684847Y-48920432D03*
D23*
X270684847Y-42920432D03*
D22*
X267684847Y-48920432D03*
D23*
X267684847Y-42920432D03*
D22*
X232684847Y-43920432D03*
D23*
X232684847Y-37920432D03*
D22*
X229684847Y-43915432D03*
D23*
X229684847Y-37915432D03*
D22*
X194684847Y-43920432D03*
D23*
X194684847Y-37920432D03*
D22*
X191684847Y-43920432D03*
D23*
X191684847Y-37920432D03*
D22*
X270684847Y-67920432D03*
D23*
X270684847Y-61920432D03*
D22*
X267684847Y-67920432D03*
D23*
X267684847Y-61920432D03*
D22*
X232684847Y-62920432D03*
D23*
X232684847Y-56920432D03*
D22*
X229684847Y-62915432D03*
D23*
X229684847Y-56915432D03*
D22*
X194684847Y-62920432D03*
D23*
X194684847Y-56920432D03*
D22*
X33187500Y-86920000D03*
D23*
X33187500Y-80920000D03*
D22*
X33187500Y-67920000D03*
D23*
X33187500Y-61920000D03*
D22*
X33187500Y-48920000D03*
D23*
X33187500Y-42920000D03*
D22*
X191684847Y-62920432D03*
D23*
X191684847Y-56920432D03*
D22*
X99687500Y-101905000D03*
D23*
X99687500Y-95905000D03*
D22*
X96687500Y-101905000D03*
D23*
X96687500Y-95905000D03*
D22*
X80507500Y-101910000D03*
D23*
X80507500Y-95910000D03*
D22*
X109187500Y-81920000D03*
D23*
X109187500Y-75920000D03*
D22*
X106187500Y-81920000D03*
D23*
X106187500Y-75920000D03*
D22*
X71187500Y-81915000D03*
D23*
X71187500Y-75915000D03*
D22*
X68187500Y-81920000D03*
D23*
X68187500Y-75920000D03*
D22*
X30187500Y-86916875D03*
D23*
X30187500Y-80916875D03*
D22*
X109187500Y-62920000D03*
D23*
X109187500Y-56920000D03*
D22*
X106187500Y-62920000D03*
D23*
X106187500Y-56920000D03*
D22*
X71187500Y-62915000D03*
D23*
X71187500Y-56915000D03*
D22*
X68187500Y-62920000D03*
D23*
X68187500Y-56920000D03*
D22*
X30187500Y-67916875D03*
D23*
X30187500Y-61916875D03*
D22*
X109187500Y-43920000D03*
D23*
X109187500Y-37920000D03*
D22*
X106187500Y-43920000D03*
D23*
X106187500Y-37920000D03*
D22*
X71187500Y-43915000D03*
D23*
X71187500Y-37915000D03*
D22*
X68187500Y-43920000D03*
D23*
X68187500Y-37920000D03*
D22*
X30187500Y-48916875D03*
D23*
X30187500Y-42916875D03*
D22*
X267684847Y-86920432D03*
D23*
X267684847Y-80920432D03*
D24*
X100538000Y-55090000D03*
X100262500Y-75495000D03*
X34697500Y-67410000D03*
X47222500Y-72945000D03*
X63112500Y-69658478D03*
X82062500Y-70112489D03*
X101112500Y-70566500D03*
X120262500Y-73008042D03*
D25*
X126912500Y-78745000D03*
D24*
X261938000Y-59840432D03*
X175514847Y-68200433D03*
X175514847Y-75010432D03*
X262224847Y-78840432D03*
X185934868Y-76465432D03*
X215582932Y-93715432D03*
X174964847Y-67370432D03*
X174894847Y-75770432D03*
X265644847Y-68717442D03*
X243559368Y-70045000D03*
X224562500Y-70195000D03*
X205612500Y-70627954D03*
X186562500Y-73227080D03*
D25*
X160387500Y-86445000D03*
D26*
X33187500Y-46720000D02*
X33187500Y-42920000D01*
X36187500Y-49720000D02*
X33187500Y-46720000D01*
X102462500Y-40960188D02*
X102462500Y-39845000D01*
X99227688Y-44195000D02*
X102462500Y-40960188D01*
X102462500Y-39845000D02*
X104387500Y-37920000D01*
X95462500Y-44195000D02*
X99227688Y-44195000D01*
X93787500Y-45870000D02*
X95462500Y-44195000D01*
X93360500Y-45070000D02*
X94524500Y-46234000D01*
X104387500Y-37920000D02*
X106187500Y-37920000D01*
X93087500Y-45070000D02*
X93360500Y-45070000D01*
X110362500Y-45520000D02*
X110362500Y-39095000D01*
X112187500Y-47345000D02*
X110362500Y-45520000D01*
X110362500Y-39095000D02*
X109187500Y-37920000D01*
X33187500Y-64620000D02*
X33187500Y-61920000D01*
X36187500Y-67620000D02*
X33187500Y-64620000D01*
X36187500Y-68720000D02*
X36187500Y-67620000D01*
D27*
X94534500Y-58317000D02*
X94534500Y-65274000D01*
D26*
X93330500Y-64070000D02*
X94534500Y-65274000D01*
X93087500Y-64070000D02*
X93330500Y-64070000D01*
D27*
X97761500Y-55090000D02*
X100538000Y-55090000D01*
X94534500Y-58317000D02*
X97761500Y-55090000D01*
D26*
X110462079Y-64619579D02*
X110462079Y-58194579D01*
X112187500Y-66345000D02*
X110462079Y-64619579D01*
X110462079Y-58194579D02*
X109187500Y-56920000D01*
X33187500Y-84720000D02*
X33187500Y-80920000D01*
X36187500Y-87720000D02*
X33187500Y-84720000D01*
X97847312Y-75445000D02*
X100212500Y-75445000D01*
X94437499Y-78854813D02*
X97847312Y-75445000D01*
X93187500Y-82970000D02*
X94437499Y-81720001D01*
X94437499Y-81720001D02*
X94437499Y-78854813D01*
X100212500Y-75445000D02*
X100262500Y-75495000D01*
X112187500Y-85345000D02*
X110362500Y-83520000D01*
X110362500Y-77095000D02*
X109187500Y-75920000D01*
X113524500Y-86882000D02*
X112087500Y-85445000D01*
X110362500Y-83520000D02*
X110362500Y-77095000D01*
X83687500Y-102595000D02*
X80507500Y-99415000D01*
X80507500Y-99415000D02*
X80507500Y-95910000D01*
D28*
X138522500Y-69545000D02*
X138522500Y-69535000D01*
D29*
X143211500Y-73421000D02*
X144504500Y-73421000D01*
X139378500Y-77168000D02*
X139464500Y-77168000D01*
D28*
X146214500Y-51412600D02*
X144503900Y-49702000D01*
X141362500Y-52843400D02*
X141362500Y-66695000D01*
D29*
X139464500Y-77168000D02*
X143211500Y-73421000D01*
D28*
X138522500Y-69535000D02*
X141362500Y-66695000D01*
X138522500Y-69545000D02*
X135472500Y-72595000D01*
X144503900Y-49702000D02*
X141362500Y-52843400D01*
X144504500Y-73421000D02*
X146214500Y-71711000D01*
X144503900Y-47162000D02*
X144503900Y-49702000D01*
X146214500Y-71711000D02*
X146214500Y-51412600D01*
X134711500Y-79295000D02*
X136838500Y-77168000D01*
X130548501Y-50918001D02*
X131584500Y-51954000D01*
X131584500Y-72598000D02*
X131584500Y-72648000D01*
X130162500Y-75114000D02*
X131584500Y-73692000D01*
X133862500Y-79295000D02*
X131437500Y-79295000D01*
X131584500Y-51954000D02*
X131584500Y-72598000D01*
X131584500Y-73373000D02*
X131584500Y-73692000D01*
X130162500Y-78020000D02*
X130162500Y-75114000D01*
X131437500Y-79295000D02*
X130162500Y-78020000D01*
X132125500Y-79295000D02*
X133862500Y-79295000D01*
X133862500Y-79295000D02*
X134462500Y-79295000D01*
X131584500Y-72648000D02*
X131584500Y-72923000D01*
X134462500Y-79295000D02*
X134711500Y-79295000D01*
X129283900Y-49702000D02*
X130499901Y-50918001D01*
X131584500Y-72923000D02*
X131584500Y-73373000D01*
X130499901Y-50918001D02*
X130548501Y-50918001D01*
D26*
X25312500Y-89145000D02*
X25312500Y-71195000D01*
X24787500Y-70670000D02*
X25514254Y-71396754D01*
X25162500Y-70295000D02*
X25162500Y-52045000D01*
X25312500Y-71195000D02*
X24787500Y-70670000D01*
X22337500Y-70670000D02*
X22187500Y-70820000D01*
X24787500Y-89670000D02*
X22337500Y-89670000D01*
X25514254Y-71396754D02*
X32053562Y-71396754D01*
X25997500Y-48460000D02*
X25997500Y-50460000D01*
X25162500Y-52045000D02*
X24787500Y-51670000D01*
X25997500Y-50460000D02*
X24787500Y-51670000D01*
X25997500Y-69460000D02*
X24787500Y-70670000D01*
X22337500Y-89670000D02*
X22187500Y-89820000D01*
X34162011Y-69288305D02*
X34162011Y-67945489D01*
X34162011Y-67945489D02*
X34697500Y-67410000D01*
X25997500Y-67460000D02*
X25997500Y-69460000D01*
X24787500Y-70670000D02*
X22337500Y-70670000D01*
X24787500Y-51670000D02*
X22337500Y-51670000D01*
X24787500Y-89670000D02*
X25312500Y-89145000D01*
X22337500Y-51670000D02*
X22187500Y-51820000D01*
X32053562Y-71396754D02*
X34162011Y-69288305D01*
X24787500Y-70670000D02*
X25162500Y-70295000D01*
X44162500Y-71045000D02*
X43787500Y-70670000D01*
X41337500Y-89670000D02*
X41187500Y-89820000D01*
X44112500Y-51995000D02*
X44112500Y-70345000D01*
X44112500Y-70345000D02*
X43787500Y-70670000D01*
X43787500Y-89670000D02*
X41337500Y-89670000D01*
X43787500Y-89670000D02*
X44162500Y-89295000D01*
X43787500Y-70670000D02*
X41337500Y-70670000D01*
X44162500Y-89295000D02*
X44162500Y-71045000D01*
X43637500Y-51820000D02*
X43787500Y-51670000D01*
X44947500Y-70670000D02*
X43787500Y-70670000D01*
X44997500Y-48460000D02*
X44997500Y-50460000D01*
X44997500Y-50460000D02*
X43787500Y-51670000D01*
X43787500Y-51670000D02*
X44112500Y-51995000D01*
X41187500Y-51820000D02*
X43637500Y-51820000D01*
X41337500Y-70670000D02*
X41187500Y-70820000D01*
X47222500Y-72945000D02*
X44947500Y-70670000D01*
X63997500Y-45710000D02*
X62787500Y-46920000D01*
X63062500Y-47195000D02*
X62787500Y-46920000D01*
X62787500Y-46920000D02*
X60337500Y-46920000D01*
X63997500Y-43710000D02*
X63997500Y-45710000D01*
X60337500Y-65920000D02*
X60187500Y-66070000D01*
X63062500Y-65645000D02*
X63062500Y-47195000D01*
X60337500Y-84920000D02*
X60187500Y-85070000D01*
X62787500Y-84920000D02*
X63112500Y-84595000D01*
X62787500Y-65920000D02*
X60337500Y-65920000D01*
X60337500Y-46920000D02*
X60187500Y-47070000D01*
X62787500Y-65920000D02*
X63062500Y-65645000D01*
X62787500Y-84920000D02*
X60337500Y-84920000D01*
X63112500Y-84595000D02*
X63112500Y-66245000D01*
X63112500Y-66245000D02*
X62787500Y-65920000D01*
X79337500Y-82545000D02*
X79187500Y-82695000D01*
X81787500Y-63545000D02*
X79337500Y-63545000D01*
X81787500Y-44545000D02*
X79337500Y-44545000D01*
X88687500Y-104695000D02*
X91137500Y-104695000D01*
X79337500Y-63545000D02*
X79187500Y-63695000D01*
X91137500Y-104695000D02*
X91287500Y-104545000D01*
X82997500Y-41335000D02*
X82997500Y-43335000D01*
X82062500Y-63270000D02*
X82062500Y-44820000D01*
X81787500Y-82545000D02*
X82062500Y-82270000D01*
X81787500Y-82545000D02*
X79337500Y-82545000D01*
X91287500Y-104545000D02*
X92537499Y-103295001D01*
X82062500Y-82270000D02*
X82062500Y-63820000D01*
X82062500Y-44820000D02*
X81787500Y-44545000D01*
X81787500Y-63545000D02*
X82062500Y-63270000D01*
X92537499Y-103295001D02*
X92537499Y-93294999D01*
X92537499Y-93294999D02*
X81787500Y-82545000D01*
X82997500Y-43335000D02*
X81787500Y-44545000D01*
X79337500Y-44545000D02*
X79187500Y-44695000D01*
X82062500Y-63820000D02*
X81787500Y-63545000D01*
X101112500Y-66245000D02*
X100787500Y-65920000D01*
D27*
X106664723Y-96742777D02*
X100787500Y-90865554D01*
D26*
X108160468Y-107243962D02*
X108160468Y-104813522D01*
X108160468Y-107243962D02*
X110182657Y-107243962D01*
X101162500Y-65545000D02*
X101162500Y-47295000D01*
X98337500Y-65920000D02*
X98187500Y-66070000D01*
X100787500Y-65920000D02*
X98337500Y-65920000D01*
X98337500Y-84920000D02*
X98187500Y-85070000D01*
X100787500Y-65920000D02*
X101162500Y-65545000D01*
X112710277Y-105772424D02*
X112710277Y-104984552D01*
X98337500Y-46920000D02*
X98187500Y-47070000D01*
X100787500Y-44920000D02*
X101997500Y-43710000D01*
D27*
X100787500Y-90865554D02*
X100787500Y-84920000D01*
D26*
X110182657Y-107243962D02*
X110710698Y-107772003D01*
X100787500Y-84920000D02*
X98337500Y-84920000D01*
X100787500Y-46920000D02*
X100787500Y-44920000D01*
D27*
X106664723Y-96742777D02*
X106664723Y-98105448D01*
D26*
X100787500Y-46920000D02*
X98337500Y-46920000D01*
X110710698Y-107772003D02*
X112710277Y-105772424D01*
X101162500Y-47295000D02*
X100787500Y-46920000D01*
X106664723Y-103317777D02*
X106664723Y-98105448D01*
X101112500Y-84595000D02*
X101112500Y-66245000D01*
X108160468Y-104813522D02*
X106664723Y-103317777D01*
X100787500Y-84920000D02*
X101112500Y-84595000D01*
X138217146Y-105440384D02*
X138217146Y-105918334D01*
X136042205Y-103265443D02*
X134385943Y-103265443D01*
X132284500Y-101164000D02*
X129416796Y-101164000D01*
X129416796Y-101164000D02*
X119787500Y-91534704D01*
X117337500Y-87295000D02*
X117187500Y-87445000D01*
X120262500Y-84395000D02*
X120262500Y-68770000D01*
X134385943Y-103265443D02*
X132489000Y-101368500D01*
X120262500Y-68770000D02*
X119787500Y-68295000D01*
X132489000Y-101368500D02*
X132284500Y-101164000D01*
X120262500Y-84395000D02*
X120262500Y-86820000D01*
X119787500Y-49295000D02*
X117337500Y-49295000D01*
X119637500Y-68445000D02*
X119787500Y-68295000D01*
X138217146Y-107074904D02*
X137047050Y-108245000D01*
X138217146Y-105918334D02*
X138217146Y-107074904D01*
X119787500Y-68295000D02*
X120062021Y-68020479D01*
X117337500Y-49295000D02*
X117187500Y-49445000D01*
X120997500Y-48085000D02*
X119787500Y-49295000D01*
X120262500Y-86820000D02*
X119787500Y-87295000D01*
X117187500Y-68445000D02*
X119637500Y-68445000D01*
X120062021Y-68020479D02*
X120062021Y-49569521D01*
X119787500Y-87295000D02*
X117337500Y-87295000D01*
X120062021Y-49569521D02*
X119787500Y-49295000D01*
X119787500Y-91534704D02*
X119787500Y-87295000D01*
X120997500Y-46085000D02*
X120997500Y-48085000D01*
X136042205Y-103265443D02*
X138217146Y-105440384D01*
D27*
X129283900Y-47162000D02*
X127278510Y-49167390D01*
X127278510Y-49167390D02*
X127278510Y-78011010D01*
X129188500Y-79921000D02*
X144862500Y-79921000D01*
X127278510Y-78011010D02*
X129188500Y-79921000D01*
X139672557Y-75848011D02*
X135618489Y-75848011D01*
X142638511Y-56647389D02*
X142638510Y-72882058D01*
X144503900Y-54782000D02*
X142638511Y-56647389D01*
X135618489Y-75848011D02*
X134298500Y-77168000D01*
X142638510Y-72882058D02*
X139672557Y-75848011D01*
X142184500Y-54561400D02*
X142184500Y-72694000D01*
X142184500Y-72694000D02*
X139484500Y-75394000D01*
X139484500Y-75394000D02*
X133532500Y-75394000D01*
X144503900Y-52242000D02*
X142184500Y-54561400D01*
X133532500Y-75394000D02*
X131758500Y-77168000D01*
D29*
X136590020Y-80497520D02*
X128665020Y-80497520D01*
X139362500Y-81145000D02*
X137237500Y-81145000D01*
X142662500Y-83495000D02*
X141687500Y-82520000D01*
X139362500Y-81145000D02*
X141112500Y-81145000D01*
X141112500Y-81145000D02*
X141687500Y-81720000D01*
X141687500Y-81720000D02*
X141687500Y-82520000D01*
X137237500Y-81145000D02*
X136590020Y-80497520D01*
X143357500Y-83495000D02*
X142662500Y-83495000D01*
X128665020Y-80497520D02*
X126912500Y-78745000D01*
X135239540Y-81197040D02*
X127962460Y-81197040D01*
X143357500Y-84995000D02*
X139037500Y-84995000D01*
X127962460Y-81197040D02*
X126062989Y-79297569D01*
X126062989Y-45302911D02*
X129283900Y-42082000D01*
X139037500Y-84995000D02*
X138275000Y-84232500D01*
X126062989Y-79297569D02*
X126062989Y-45302911D01*
X138275000Y-84232500D02*
X135239540Y-81197040D01*
D26*
X273684847Y-49720432D02*
X270684847Y-46720432D01*
X270684847Y-46720432D02*
X270684847Y-42920432D01*
X262362500Y-47307967D02*
X262362500Y-46970000D01*
X262362500Y-46970000D02*
X266412068Y-42920432D01*
X255284847Y-50620432D02*
X256560279Y-49345000D01*
X266412068Y-42920432D02*
X267684847Y-42920432D01*
X256560279Y-49345000D02*
X260325467Y-49345000D01*
X260325467Y-49345000D02*
X262362500Y-47307967D01*
X232684847Y-41067347D02*
X232684847Y-37920432D01*
X235684847Y-44067347D02*
X232684847Y-41067347D01*
X235684847Y-44970432D02*
X235684847Y-44067347D01*
X197684847Y-44067347D02*
X194684847Y-41067347D01*
X194684847Y-41067347D02*
X194684847Y-37920432D01*
X197684847Y-44970432D02*
X197684847Y-44067347D01*
X273684847Y-68720432D02*
X270684847Y-65720432D01*
X270684847Y-65720432D02*
X270684847Y-61920432D01*
X254584847Y-68820432D02*
X254724847Y-68820432D01*
D27*
X255744847Y-68940432D02*
X255944847Y-68740432D01*
D26*
X256112500Y-67292779D02*
X256112500Y-62945000D01*
X254684847Y-68720432D02*
X256112500Y-67292779D01*
X254724847Y-68820432D02*
X255944847Y-70040432D01*
D27*
X255744847Y-69062932D02*
X255744847Y-68940432D01*
D26*
X256112500Y-62945000D02*
X259217068Y-59840432D01*
D27*
X255944847Y-68740432D02*
X255944847Y-70040432D01*
D26*
X259217068Y-59840432D02*
X261938000Y-59840432D01*
X232684847Y-60317347D02*
X232684847Y-56920432D01*
X235684847Y-63970432D02*
X235684847Y-63317347D01*
X235684847Y-63317347D02*
X232684847Y-60317347D01*
X197684847Y-63970432D02*
X197684847Y-63117347D01*
X194684847Y-60117347D02*
X194684847Y-56920432D01*
X197684847Y-63117347D02*
X194684847Y-60117347D01*
D27*
X175034847Y-74530432D02*
X175034847Y-68680433D01*
X175514847Y-75010432D02*
X175034847Y-74530432D01*
X175034847Y-68680433D02*
X175514847Y-68200433D01*
D26*
X273684847Y-87720432D02*
X270684847Y-84720432D01*
X270684847Y-84720432D02*
X270684847Y-80920432D01*
X256462500Y-87442779D02*
X256462500Y-82145000D01*
X255284847Y-88620432D02*
X256462500Y-87442779D01*
X259767068Y-78840432D02*
X262224847Y-78840432D01*
X256462500Y-82145000D02*
X259767068Y-78840432D01*
X232684847Y-79417347D02*
X232684847Y-75920432D01*
X235684847Y-82417347D02*
X232684847Y-79417347D01*
X235684847Y-82970432D02*
X235684847Y-82417347D01*
X197684847Y-81817347D02*
X194684847Y-78817347D01*
X197684847Y-82970432D02*
X197684847Y-81817347D01*
X194684847Y-78817347D02*
X194684847Y-75920432D01*
X179284847Y-86245432D02*
X180112500Y-85417779D01*
X180112500Y-79895000D02*
X183542068Y-76465432D01*
X183542068Y-76465432D02*
X185934868Y-76465432D01*
X180112500Y-85417779D02*
X180112500Y-79895000D01*
X208664847Y-96747347D02*
X208664847Y-99865432D01*
X211696762Y-93715432D02*
X215582932Y-93715432D01*
X208664847Y-99865432D02*
X207084847Y-101445432D01*
X208664847Y-96747347D02*
X211696762Y-93715432D01*
X207084847Y-101445432D02*
X207084847Y-102695432D01*
D27*
X174664848Y-67670431D02*
X174964847Y-67370432D01*
X174564848Y-67770431D02*
X174664848Y-67670431D01*
X174564848Y-75440433D02*
X174564848Y-67770431D01*
X174894847Y-75770432D02*
X174564848Y-75440433D01*
X171674247Y-52368432D02*
X169744847Y-54297832D01*
X160831079Y-75466421D02*
X158987500Y-77310000D01*
X169744847Y-54297832D02*
X169744847Y-72440432D01*
X166718858Y-75466421D02*
X161618858Y-75466421D01*
X161618858Y-75466421D02*
X160831079Y-75466421D01*
X169744847Y-72440432D02*
X166718858Y-75466421D01*
X166964847Y-75920432D02*
X164687932Y-75920432D01*
X170198858Y-72686421D02*
X166964847Y-75920432D01*
X171674247Y-54908432D02*
X170198858Y-56383821D01*
X164687932Y-75920432D02*
X162917068Y-75920432D01*
X170198858Y-56383821D02*
X170198858Y-72686421D01*
X162917068Y-75920432D02*
X161527500Y-77310000D01*
X169150000Y-80732500D02*
X172112500Y-77770000D01*
X174014500Y-67307375D02*
X174014500Y-50607776D01*
X173439500Y-50032776D02*
X173439500Y-44205084D01*
X174077846Y-67370721D02*
X174014500Y-67307375D01*
X155899532Y-85632032D02*
X162125468Y-85632032D01*
X174077846Y-68171393D02*
X174077846Y-67370721D01*
X172112500Y-75645000D02*
X174080257Y-73677243D01*
X156374847Y-80067432D02*
X155812500Y-80629779D01*
X172112500Y-77770000D02*
X172112500Y-75645000D01*
X172704847Y-43470432D02*
X160272247Y-43470432D01*
X173439500Y-44205084D02*
X172704847Y-43470432D01*
X160272247Y-43470432D02*
X156454247Y-47288432D01*
X167025000Y-80732500D02*
X169150000Y-80732500D01*
X155812500Y-80629779D02*
X155812500Y-82745000D01*
X155812500Y-82745000D02*
X154762500Y-83795000D01*
X174080257Y-68173804D02*
X174077846Y-68171393D01*
X154762500Y-84495000D02*
X155899532Y-85632032D01*
X174080257Y-73677243D02*
X174080257Y-68173804D01*
X174014500Y-50607776D02*
X173439500Y-50032776D01*
X162125468Y-85632032D02*
X167025000Y-80732500D01*
X154762500Y-83795000D02*
X154762500Y-84495000D01*
D26*
X268697500Y-71660000D02*
X272447500Y-71660000D01*
X278834847Y-89670432D02*
X278684847Y-89820432D01*
X265754942Y-68717442D02*
X268697500Y-71660000D01*
X281562500Y-51948085D02*
X281562500Y-70392779D01*
X265644847Y-68717442D02*
X265754942Y-68717442D01*
X278834847Y-51670432D02*
X278684847Y-51820432D01*
X278834847Y-70670432D02*
X278684847Y-70820432D01*
X281612500Y-89342779D02*
X281612500Y-70998085D01*
X282494847Y-48460432D02*
X282494847Y-50460432D01*
X281612500Y-70998085D02*
X281284847Y-70670432D01*
X281284847Y-89670432D02*
X278834847Y-89670432D01*
X272447500Y-71660000D02*
X277845279Y-71660000D01*
X282494847Y-50460432D02*
X281284847Y-51670432D01*
X281284847Y-89670432D02*
X281612500Y-89342779D01*
X281284847Y-51670432D02*
X281562500Y-51948085D01*
X281562500Y-70392779D02*
X281284847Y-70670432D01*
X277845279Y-71660000D02*
X278684847Y-70820432D01*
X281284847Y-51670432D02*
X278834847Y-51670432D01*
X281284847Y-70670432D02*
X278834847Y-70670432D01*
X262284847Y-89670432D02*
X259834847Y-89670432D01*
X262284847Y-89670432D02*
X262912500Y-89042779D01*
X262912500Y-89042779D02*
X262912500Y-71298085D01*
X262562500Y-51948085D02*
X262284847Y-51670432D01*
X263494847Y-48460432D02*
X263494847Y-50460432D01*
X262284847Y-51670432D02*
X259834847Y-51670432D01*
X259834847Y-70670432D02*
X259684847Y-70820432D01*
X259834847Y-89670432D02*
X259684847Y-89820432D01*
X262912500Y-71298085D02*
X262284847Y-70670432D01*
X262284847Y-70670432D02*
X259834847Y-70670432D01*
X262562500Y-70392779D02*
X262562500Y-51948085D01*
X262284847Y-70670432D02*
X262562500Y-70392779D01*
X259834847Y-51670432D02*
X259684847Y-51820432D01*
X263494847Y-50460432D02*
X262284847Y-51670432D01*
X243284847Y-65920432D02*
X243559368Y-66194953D01*
X244494847Y-43710432D02*
X244494847Y-45710432D01*
X240834847Y-46920432D02*
X240684847Y-47070432D01*
X243559368Y-66194953D02*
X243559368Y-84645911D01*
X243712500Y-65492779D02*
X243712500Y-47348085D01*
X244494847Y-45710432D02*
X243284847Y-46920432D01*
X243284847Y-46920432D02*
X240834847Y-46920432D01*
X243284847Y-65920432D02*
X240834847Y-65920432D01*
X243559368Y-84645911D02*
X243284847Y-84920432D01*
X243284847Y-84920432D02*
X240834847Y-84920432D01*
X243712500Y-47348085D02*
X243284847Y-46920432D01*
X243284847Y-65920432D02*
X243712500Y-65492779D01*
X240834847Y-65920432D02*
X240684847Y-66070432D01*
X240834847Y-84920432D02*
X240684847Y-85070432D01*
X224284847Y-82545432D02*
X224562500Y-82267779D01*
X224662500Y-63167779D02*
X224662500Y-44923085D01*
X224562500Y-82267779D02*
X224562500Y-70195000D01*
X221834847Y-82545432D02*
X221684847Y-82695432D01*
X214784847Y-104545432D02*
X216459426Y-102870853D01*
X216459426Y-87920853D02*
X221684847Y-82695432D01*
X224562500Y-63823085D02*
X224284847Y-63545432D01*
X224284847Y-44545432D02*
X221834847Y-44545432D01*
X224284847Y-82545432D02*
X221834847Y-82545432D01*
X224562500Y-70195000D02*
X224562500Y-63823085D01*
X224284847Y-63545432D02*
X224662500Y-63167779D01*
X225494847Y-43335432D02*
X224284847Y-44545432D01*
X214784847Y-104545432D02*
X212334847Y-104545432D01*
X225494847Y-41335432D02*
X225494847Y-43335432D01*
X221684847Y-63695432D02*
X224134847Y-63695432D01*
X216459426Y-102870853D02*
X216459426Y-87920853D01*
X224662500Y-44923085D02*
X224284847Y-44545432D01*
X221834847Y-44545432D02*
X221684847Y-44695432D01*
X212334847Y-104545432D02*
X212184847Y-104695432D01*
X224134847Y-63695432D02*
X224284847Y-63545432D01*
X202834847Y-65920432D02*
X202684847Y-66070432D01*
X195184464Y-106426576D02*
X193529697Y-106426576D01*
X205612500Y-84592779D02*
X205612500Y-66248085D01*
X205712500Y-65492779D02*
X205712500Y-47348085D01*
X199812500Y-92795000D02*
X202684847Y-89922653D01*
X193529697Y-106426576D02*
X192711879Y-107244394D01*
X205284847Y-46920432D02*
X205284847Y-44920432D01*
X205284847Y-84920432D02*
X202834847Y-84920432D01*
X195522425Y-103012783D02*
X195522425Y-106088615D01*
X205712500Y-47348085D02*
X205284847Y-46920432D01*
X205284847Y-65920432D02*
X202834847Y-65920432D01*
X202834847Y-84920432D02*
X202684847Y-85070432D01*
X202684847Y-89922653D02*
X202684847Y-85070432D01*
X205284847Y-46920432D02*
X202834847Y-46920432D01*
X205284847Y-84920432D02*
X205612500Y-84592779D01*
X199812500Y-98722708D02*
X199812500Y-92795000D01*
X195522425Y-106088615D02*
X195184464Y-106426576D01*
X202834847Y-46920432D02*
X202684847Y-47070432D01*
X205284847Y-65920432D02*
X205712500Y-65492779D01*
X205284847Y-44920432D02*
X206494847Y-43710432D01*
X205612500Y-66248085D02*
X205284847Y-65920432D01*
X195522425Y-103012783D02*
X199812500Y-98722708D01*
X186284847Y-47295432D02*
X187494847Y-46085432D01*
X183684847Y-89672653D02*
X183684847Y-87445432D01*
X186134847Y-68445432D02*
X186284847Y-68295432D01*
X186562500Y-49573085D02*
X186284847Y-49295432D01*
X183684847Y-68445432D02*
X186134847Y-68445432D01*
X168083033Y-110422098D02*
X168640142Y-109864989D01*
X163825297Y-108992194D02*
X163825297Y-108245432D01*
X165255201Y-110422098D02*
X163825297Y-108992194D01*
X186562500Y-68017779D02*
X186562500Y-49573085D01*
X186284847Y-49295432D02*
X186284847Y-47295432D01*
X173251390Y-104156110D02*
X173251390Y-100106110D01*
X186284847Y-68295432D02*
X186562500Y-68017779D01*
X186284847Y-87295432D02*
X186559368Y-87020911D01*
D27*
X186549148Y-73240432D02*
X186562500Y-73227080D01*
D26*
X186559368Y-68569953D02*
X186284847Y-68295432D01*
X173251390Y-105253741D02*
X173251390Y-104156110D01*
X168640142Y-109864989D02*
X173251390Y-105253741D01*
X165255201Y-110422098D02*
X168083033Y-110422098D01*
X183684847Y-87445432D02*
X186134847Y-87445432D01*
X186284847Y-49295432D02*
X183834847Y-49295432D01*
X173251390Y-100106110D02*
X183684847Y-89672653D01*
X186559368Y-87020911D02*
X186559368Y-68569953D01*
X183834847Y-49295432D02*
X183684847Y-49445432D01*
X186134847Y-87445432D02*
X186284847Y-87295432D01*
D29*
X164067500Y-77310000D02*
X161581110Y-79796390D01*
X157387500Y-77727466D02*
X157387500Y-75970000D01*
X157387500Y-75970000D02*
X158194847Y-75162653D01*
X158194847Y-51569032D02*
X156454247Y-49828432D01*
X161581110Y-79796390D02*
X159456424Y-79796390D01*
X158194847Y-75162653D02*
X158194847Y-51569032D01*
X159456424Y-79796390D02*
X157387500Y-77727466D01*
X171674247Y-47288432D02*
X171674247Y-49828432D01*
X172987500Y-51141686D02*
X171674247Y-49828432D01*
X172987500Y-71270000D02*
X172987500Y-51141686D01*
X166947500Y-77310000D02*
X172987500Y-71270000D01*
X166607500Y-77310000D02*
X166947500Y-77310000D01*
D26*
X173562500Y-50795000D02*
X172987500Y-50220000D01*
X172987500Y-50220000D02*
X172987500Y-46061684D01*
X173562500Y-71508172D02*
X173562500Y-50795000D01*
X169147500Y-77310000D02*
X169147500Y-75923172D01*
X172987500Y-46061684D02*
X171674247Y-44748432D01*
X169147500Y-75923172D02*
X173562500Y-71508172D01*
D29*
X157494847Y-72552347D02*
X156537500Y-71595000D01*
X155512500Y-71595000D02*
X154712500Y-70795000D01*
X156489132Y-75543368D02*
X157494847Y-74537653D01*
X156537500Y-71595000D02*
X155512500Y-71595000D01*
X154712500Y-70795000D02*
X154712500Y-43950179D01*
X158412500Y-82645000D02*
X158412500Y-79741735D01*
X154712500Y-43950179D02*
X156454247Y-42208432D01*
X157494847Y-74537653D02*
X157494847Y-72552347D01*
X158412500Y-79741735D02*
X156489132Y-77818368D01*
X157562500Y-83495000D02*
X158412500Y-82645000D01*
X156489132Y-77818368D02*
X156489132Y-75543368D01*
X160337500Y-86495000D02*
X157562500Y-86495000D01*
X160387500Y-86445000D02*
X160337500Y-86495000D01*
M02*
