G04 #@! TF.GenerationSoftware,KiCad,Pcbnew,(6.0.10)*
G04 #@! TF.CreationDate,2022-12-31T14:29:49-08:00*
G04 #@! TF.ProjectId,corne-ultralight,636f726e-652d-4756-9c74-72616c696768,2.0*
G04 #@! TF.SameCoordinates,Original*
G04 #@! TF.FileFunction,Copper,L2,Bot*
G04 #@! TF.FilePolarity,Positive*
%FSLAX46Y46*%
G04 Gerber Fmt 4.6, Leading zero omitted, Abs format (unit mm)*
G04 Created by KiCad (PCBNEW (6.0.10)) date 2022-12-31 14:29:49*
%MOMM*%
%LPD*%
G01*
G04 APERTURE LIST*
G04 Aperture macros list*
%AMRoundRect*
0 Rectangle with rounded corners*
0 $1 Rounding radius*
0 $2 $3 $4 $5 $6 $7 $8 $9 X,Y pos of 4 corners*
0 Add a 4 corners polygon primitive as box body*
4,1,4,$2,$3,$4,$5,$6,$7,$8,$9,$2,$3,0*
0 Add four circle primitives for the rounded corners*
1,1,$1+$1,$2,$3*
1,1,$1+$1,$4,$5*
1,1,$1+$1,$6,$7*
1,1,$1+$1,$8,$9*
0 Add four rect primitives between the rounded corners*
20,1,$1+$1,$2,$3,$4,$5,0*
20,1,$1+$1,$4,$5,$6,$7,0*
20,1,$1+$1,$6,$7,$8,$9,0*
20,1,$1+$1,$8,$9,$2,$3,0*%
G04 Aperture macros list end*
G04 #@! TA.AperFunction,ComponentPad*
%ADD10C,2.000000*%
G04 #@! TD*
G04 #@! TA.AperFunction,ComponentPad*
%ADD11C,2.500000*%
G04 #@! TD*
G04 #@! TA.AperFunction,ComponentPad*
%ADD12C,2.286000*%
G04 #@! TD*
G04 #@! TA.AperFunction,ComponentPad*
%ADD13C,1.524000*%
G04 #@! TD*
G04 #@! TA.AperFunction,ComponentPad*
%ADD14O,1.397000X1.778000*%
G04 #@! TD*
G04 #@! TA.AperFunction,ComponentPad*
%ADD15RoundRect,0.250000X0.625000X-0.350000X0.625000X0.350000X-0.625000X0.350000X-0.625000X-0.350000X0*%
G04 #@! TD*
G04 #@! TA.AperFunction,ComponentPad*
%ADD16O,1.750000X1.200000*%
G04 #@! TD*
G04 #@! TA.AperFunction,ComponentPad*
%ADD17R,1.700000X1.700000*%
G04 #@! TD*
G04 #@! TA.AperFunction,ComponentPad*
%ADD18O,1.700000X1.700000*%
G04 #@! TD*
G04 #@! TA.AperFunction,ComponentPad*
%ADD19RoundRect,0.250000X-0.625000X0.350000X-0.625000X-0.350000X0.625000X-0.350000X0.625000X0.350000X0*%
G04 #@! TD*
G04 #@! TA.AperFunction,ComponentPad*
%ADD20R,1.300000X1.778000*%
G04 #@! TD*
G04 #@! TA.AperFunction,SMDPad,CuDef*
%ADD21R,1.300000X1.400000*%
G04 #@! TD*
G04 #@! TA.AperFunction,ComponentPad*
%ADD22O,1.300000X1.778000*%
G04 #@! TD*
G04 #@! TA.AperFunction,SMDPad,CuDef*
%ADD23C,1.500000*%
G04 #@! TD*
G04 #@! TA.AperFunction,ViaPad*
%ADD24C,0.600000*%
G04 #@! TD*
G04 #@! TA.AperFunction,ViaPad*
%ADD25C,0.800000*%
G04 #@! TD*
G04 #@! TA.AperFunction,Conductor*
%ADD26C,0.250000*%
G04 #@! TD*
G04 #@! TA.AperFunction,Conductor*
%ADD27C,0.254000*%
G04 #@! TD*
G04 #@! TA.AperFunction,Conductor*
%ADD28C,0.500000*%
G04 #@! TD*
G04 #@! TA.AperFunction,Conductor*
%ADD29C,0.508000*%
G04 #@! TD*
G04 APERTURE END LIST*
D10*
X156012500Y-80067432D03*
X156012500Y-73567432D03*
D11*
X278684847Y-51820432D03*
X282494847Y-48460432D03*
X281284847Y-51670432D03*
D12*
X276144847Y-51000432D03*
D11*
X274284847Y-50620432D03*
X273684847Y-49720432D03*
X259684847Y-51820432D03*
X263494847Y-48460432D03*
X262284847Y-51670432D03*
X255284847Y-50620432D03*
X254684847Y-49720432D03*
D12*
X257144847Y-51000432D03*
D11*
X243284847Y-46920432D03*
X244494847Y-43710432D03*
X240684847Y-47070432D03*
X235684847Y-44970432D03*
D12*
X238144847Y-46250432D03*
D11*
X236284847Y-45870432D03*
X225494847Y-41335432D03*
X221684847Y-44695432D03*
X224284847Y-44545432D03*
D12*
X219144847Y-43875432D03*
D11*
X217284847Y-43495432D03*
X216684847Y-42595432D03*
X202684847Y-47070432D03*
X205284847Y-46920432D03*
X206494847Y-43710432D03*
D12*
X200144847Y-46250432D03*
D11*
X198284847Y-45870432D03*
X197684847Y-44970432D03*
X187494847Y-46085432D03*
X183684847Y-49445432D03*
X186284847Y-49295432D03*
D12*
X181144847Y-48625432D03*
D11*
X179284847Y-48245432D03*
X178684847Y-47345432D03*
X278684847Y-70820432D03*
X281284847Y-70670432D03*
X282494847Y-67460432D03*
X274284847Y-69620432D03*
X273684847Y-68720432D03*
D12*
X276144847Y-70000432D03*
D11*
X263494847Y-67460432D03*
X259684847Y-70820432D03*
X262284847Y-70670432D03*
X254684847Y-68720432D03*
X255284847Y-69620432D03*
D12*
X257144847Y-70000432D03*
D11*
X244494847Y-62710432D03*
X240684847Y-66070432D03*
X243284847Y-65920432D03*
X235684847Y-63970432D03*
D12*
X238144847Y-65250432D03*
D11*
X236284847Y-64870432D03*
X221684847Y-63695432D03*
X225494847Y-60335432D03*
X224284847Y-63545432D03*
D12*
X219144847Y-62875432D03*
D11*
X217284847Y-62495432D03*
X216684847Y-61595432D03*
X202684847Y-66070432D03*
X205284847Y-65920432D03*
X206494847Y-62710432D03*
X198284847Y-64870432D03*
X197684847Y-63970432D03*
D12*
X200144847Y-65250432D03*
D11*
X186284847Y-68295432D03*
X187494847Y-65085432D03*
X183684847Y-68445432D03*
D12*
X181144847Y-67625432D03*
D11*
X178684847Y-66345432D03*
X179284847Y-67245432D03*
X282494847Y-86460432D03*
X281284847Y-89670432D03*
X278684847Y-89820432D03*
D12*
X276144847Y-89000432D03*
D11*
X273684847Y-87720432D03*
X274284847Y-88620432D03*
X263494847Y-86460432D03*
X262284847Y-89670432D03*
X259684847Y-89820432D03*
D12*
X257144847Y-89000432D03*
D11*
X254684847Y-87720432D03*
X255284847Y-88620432D03*
X244494847Y-81710432D03*
X240684847Y-85070432D03*
X243284847Y-84920432D03*
X236284847Y-83870432D03*
X235684847Y-82970432D03*
D12*
X238144847Y-84250432D03*
D11*
X225494847Y-79335432D03*
X224284847Y-82545432D03*
X221684847Y-82695432D03*
X216684847Y-80595432D03*
D12*
X219144847Y-81875432D03*
D11*
X217284847Y-81495432D03*
X205284847Y-84920432D03*
X206494847Y-81710432D03*
X202684847Y-85070432D03*
X197684847Y-82970432D03*
X198284847Y-83870432D03*
D12*
X200144847Y-84250432D03*
D11*
X215994847Y-101335432D03*
X214784847Y-104545432D03*
X212184847Y-104695432D03*
X207184847Y-102595432D03*
D12*
X209644847Y-103875432D03*
D11*
X207784847Y-103495432D03*
X195522425Y-103012783D03*
X195184464Y-106426576D03*
X192711879Y-107244394D03*
X188151223Y-107224087D03*
D12*
X190046196Y-107109736D03*
D11*
X187338730Y-106510045D03*
X187494847Y-84085432D03*
X186284847Y-87295432D03*
X183684847Y-87445432D03*
D12*
X181144847Y-86625432D03*
D11*
X178684847Y-85345432D03*
X179284847Y-86245432D03*
D13*
X144503900Y-42082000D03*
X144503900Y-44622000D03*
X144503900Y-47162000D03*
X144503900Y-49702000D03*
X144503900Y-52242000D03*
X144503900Y-54782000D03*
X144503900Y-57322000D03*
X144503900Y-59862000D03*
X144503900Y-62402000D03*
X144503900Y-64942000D03*
X144503900Y-67482000D03*
X144503900Y-70022000D03*
X129283900Y-70022000D03*
X129283900Y-67482000D03*
X129283900Y-64942000D03*
X129283900Y-62402000D03*
X129283900Y-59862000D03*
X129283900Y-57322000D03*
X129283900Y-54782000D03*
X129283900Y-52242000D03*
X129283900Y-49702000D03*
X129283900Y-47162000D03*
X129283900Y-44622000D03*
X129283900Y-42082000D03*
X171674247Y-42208432D03*
X171674247Y-44748432D03*
X171674247Y-47288432D03*
X171674247Y-49828432D03*
X171674247Y-52368432D03*
X171674247Y-54908432D03*
X171674247Y-57448432D03*
X171674247Y-59988432D03*
X171674247Y-62528432D03*
X171674247Y-65068432D03*
X171674247Y-67608432D03*
X171674247Y-70148432D03*
X156454247Y-70148432D03*
X156454247Y-67608432D03*
X156454247Y-65068432D03*
X156454247Y-62528432D03*
X156454247Y-59988432D03*
X156454247Y-57448432D03*
X156454247Y-54908432D03*
X156454247Y-52368432D03*
X156454247Y-49828432D03*
X156454247Y-47288432D03*
X156454247Y-44748432D03*
X156454247Y-42208432D03*
D11*
X117187500Y-49445000D03*
X119787500Y-49295000D03*
X120997500Y-46085000D03*
D12*
X114647500Y-48625000D03*
D11*
X112187500Y-47345000D03*
X112787500Y-48245000D03*
X100787500Y-46920000D03*
X101997500Y-43710000D03*
X98187500Y-47070000D03*
X93187500Y-44970000D03*
X93787500Y-45870000D03*
D12*
X95647500Y-46250000D03*
D11*
X82997500Y-41335000D03*
X81787500Y-44545000D03*
X79187500Y-44695000D03*
X74187500Y-42595000D03*
D12*
X76647500Y-43875000D03*
D11*
X74787500Y-43495000D03*
X60187500Y-47070000D03*
X63997500Y-43710000D03*
X62787500Y-46920000D03*
X55787500Y-45870000D03*
D12*
X57647500Y-46250000D03*
D11*
X55187500Y-44970000D03*
X41187500Y-51820000D03*
X44997500Y-48460000D03*
X43787500Y-51670000D03*
X36787500Y-50620000D03*
X36187500Y-49720000D03*
D12*
X38647500Y-51000000D03*
D11*
X117187500Y-87445000D03*
X119787500Y-87295000D03*
X120997500Y-84085000D03*
D12*
X114647500Y-86625000D03*
D11*
X112187500Y-85345000D03*
X112787500Y-86245000D03*
X136042205Y-103265443D03*
X138217146Y-105918334D03*
X137047050Y-108245000D03*
D12*
X135066909Y-110034705D03*
D11*
X133807819Y-111455512D03*
X132728397Y-111525127D03*
X24787500Y-89670000D03*
X25997500Y-86460000D03*
X22187500Y-89820000D03*
X17787500Y-88620000D03*
D12*
X19647500Y-89000000D03*
D11*
X17187500Y-87720000D03*
X110710698Y-107772003D03*
X112710277Y-104984552D03*
X108160468Y-107243962D03*
X104220977Y-104946048D03*
X103874358Y-103921423D03*
D12*
X105919248Y-105794503D03*
D11*
X88687500Y-104695000D03*
X91287500Y-104545000D03*
X92497500Y-101335000D03*
D12*
X86147500Y-103875000D03*
D11*
X83687500Y-102595000D03*
X84287500Y-103495000D03*
X101997500Y-81710000D03*
X98187500Y-85070000D03*
X100787500Y-84920000D03*
X93787500Y-83870000D03*
D12*
X95647500Y-84250000D03*
D11*
X93187500Y-82970000D03*
X79187500Y-82695000D03*
X82997500Y-79335000D03*
X81787500Y-82545000D03*
X74187500Y-80595000D03*
D12*
X76647500Y-81875000D03*
D11*
X74787500Y-81495000D03*
X60187500Y-85070000D03*
X63997500Y-81710000D03*
X62787500Y-84920000D03*
X55787500Y-83870000D03*
X55187500Y-82970000D03*
D12*
X57647500Y-84250000D03*
D11*
X43787500Y-89670000D03*
X41187500Y-89820000D03*
X44997500Y-86460000D03*
X36787500Y-88620000D03*
D12*
X38647500Y-89000000D03*
D11*
X36187500Y-87720000D03*
X117187500Y-68445000D03*
X120997500Y-65085000D03*
X119787500Y-68295000D03*
X112187500Y-66345000D03*
X112787500Y-67245000D03*
D12*
X114647500Y-67625000D03*
D11*
X98187500Y-66070000D03*
X100787500Y-65920000D03*
X101997500Y-62710000D03*
X93187500Y-63970000D03*
D12*
X95647500Y-65250000D03*
D11*
X93787500Y-64870000D03*
X82997500Y-60335000D03*
X79187500Y-63695000D03*
X81787500Y-63545000D03*
X74187500Y-61595000D03*
X74787500Y-62495000D03*
D12*
X76647500Y-62875000D03*
D11*
X62787500Y-65920000D03*
X60187500Y-66070000D03*
X63997500Y-62710000D03*
X55787500Y-64870000D03*
D12*
X57647500Y-65250000D03*
D11*
X55187500Y-63970000D03*
X41187500Y-70820000D03*
X43787500Y-70670000D03*
X44997500Y-67460000D03*
X36187500Y-68720000D03*
X36787500Y-69620000D03*
D12*
X38647500Y-70000000D03*
D11*
X22187500Y-70820000D03*
X24787500Y-70670000D03*
X25997500Y-67460000D03*
X17787500Y-69620000D03*
X17187500Y-68720000D03*
D12*
X19647500Y-70000000D03*
D11*
X22187500Y-51820000D03*
X25997500Y-48460000D03*
X24787500Y-51670000D03*
D12*
X19647500Y-51000000D03*
D11*
X17787500Y-50620000D03*
X17187500Y-49720000D03*
X163825297Y-108245432D03*
X168640142Y-109864989D03*
X165255201Y-110422098D03*
X162664528Y-103834920D03*
X163143950Y-102865305D03*
D12*
X163265438Y-105635727D03*
D14*
X131758500Y-77168000D03*
X134298500Y-77168000D03*
X136838500Y-77168000D03*
X139378500Y-77168000D03*
X141918500Y-77168000D03*
D10*
X144862500Y-79921000D03*
X144862500Y-73421000D03*
D14*
X158987500Y-77310000D03*
X161527500Y-77310000D03*
X164067500Y-77310000D03*
X166607500Y-77310000D03*
X169147500Y-77310000D03*
D15*
X160537500Y-83045000D03*
D16*
X160537500Y-81045000D03*
D17*
X165512500Y-72595000D03*
D18*
X162972500Y-72595000D03*
D17*
X135472500Y-72595000D03*
D18*
X138012500Y-72595000D03*
D19*
X140387500Y-80845000D03*
D16*
X140387500Y-82845000D03*
D20*
X270684847Y-86920432D03*
D21*
X270684847Y-85695432D03*
D22*
X270684847Y-80920432D03*
D21*
X270684847Y-82145432D03*
X232684847Y-80695432D03*
D20*
X232684847Y-81920432D03*
D22*
X232684847Y-75920432D03*
D21*
X232684847Y-77145432D03*
D20*
X229684847Y-81915432D03*
D21*
X229684847Y-80690432D03*
X229684847Y-77140432D03*
D22*
X229684847Y-75915432D03*
D20*
X194684847Y-81920432D03*
D21*
X194684847Y-80695432D03*
D22*
X194684847Y-75920432D03*
D21*
X194684847Y-77145432D03*
D20*
X191684847Y-81920432D03*
D21*
X191684847Y-80695432D03*
X191684847Y-77145432D03*
D22*
X191684847Y-75920432D03*
D20*
X220184847Y-101930432D03*
D21*
X220184847Y-100705432D03*
D22*
X220184847Y-95930432D03*
D21*
X220184847Y-97155432D03*
D20*
X204194847Y-101915432D03*
D21*
X204194847Y-100690432D03*
X204194847Y-97140432D03*
D22*
X204194847Y-95915432D03*
D20*
X201194847Y-101915432D03*
D21*
X201194847Y-100690432D03*
D22*
X201194847Y-95915432D03*
D21*
X201194847Y-97140432D03*
D20*
X270684847Y-48920432D03*
D21*
X270684847Y-47695432D03*
X270684847Y-44145432D03*
D22*
X270684847Y-42920432D03*
D20*
X267684847Y-48920432D03*
D21*
X267684847Y-47695432D03*
X267684847Y-44145432D03*
D22*
X267684847Y-42920432D03*
D20*
X232684847Y-43920432D03*
D21*
X232684847Y-42695432D03*
D22*
X232684847Y-37920432D03*
D21*
X232684847Y-39145432D03*
D20*
X229684847Y-43915432D03*
D21*
X229684847Y-42690432D03*
D22*
X229684847Y-37915432D03*
D21*
X229684847Y-39140432D03*
X194684847Y-42695432D03*
D20*
X194684847Y-43920432D03*
D22*
X194684847Y-37920432D03*
D21*
X194684847Y-39145432D03*
D20*
X191684847Y-43920432D03*
D21*
X191684847Y-42695432D03*
D22*
X191684847Y-37920432D03*
D21*
X191684847Y-39145432D03*
X270684847Y-66695432D03*
D20*
X270684847Y-67920432D03*
D22*
X270684847Y-61920432D03*
D21*
X270684847Y-63145432D03*
X267684847Y-66695432D03*
D20*
X267684847Y-67920432D03*
D22*
X267684847Y-61920432D03*
D21*
X267684847Y-63145432D03*
X232684847Y-61695432D03*
D20*
X232684847Y-62920432D03*
D22*
X232684847Y-56920432D03*
D21*
X232684847Y-58145432D03*
X229684847Y-61690432D03*
D20*
X229684847Y-62915432D03*
D21*
X229684847Y-58140432D03*
D22*
X229684847Y-56915432D03*
D20*
X194684847Y-62920432D03*
D21*
X194684847Y-61695432D03*
D22*
X194684847Y-56920432D03*
D21*
X194684847Y-58145432D03*
X33187500Y-85695000D03*
D20*
X33187500Y-86920000D03*
D21*
X33187500Y-82145000D03*
D22*
X33187500Y-80920000D03*
D21*
X33187500Y-66695000D03*
D20*
X33187500Y-67920000D03*
D21*
X33187500Y-63145000D03*
D22*
X33187500Y-61920000D03*
D21*
X33187500Y-47695000D03*
D20*
X33187500Y-48920000D03*
D21*
X33187500Y-44145000D03*
D22*
X33187500Y-42920000D03*
D21*
X191684847Y-61695432D03*
D20*
X191684847Y-62920432D03*
D22*
X191684847Y-56920432D03*
D21*
X191684847Y-58145432D03*
X99687500Y-100680000D03*
D20*
X99687500Y-101905000D03*
D22*
X99687500Y-95905000D03*
D21*
X99687500Y-97130000D03*
X96687500Y-100680000D03*
D20*
X96687500Y-101905000D03*
D22*
X96687500Y-95905000D03*
D21*
X96687500Y-97130000D03*
D20*
X80507500Y-101910000D03*
D21*
X80507500Y-100685000D03*
D22*
X80507500Y-95910000D03*
D21*
X80507500Y-97135000D03*
D20*
X109187500Y-81920000D03*
D21*
X109187500Y-80695000D03*
D22*
X109187500Y-75920000D03*
D21*
X109187500Y-77145000D03*
X106187500Y-80695000D03*
D20*
X106187500Y-81920000D03*
D21*
X106187500Y-77145000D03*
D22*
X106187500Y-75920000D03*
D20*
X71187500Y-81915000D03*
D21*
X71187500Y-80690000D03*
D22*
X71187500Y-75915000D03*
D21*
X71187500Y-77140000D03*
D20*
X68187500Y-81920000D03*
D21*
X68187500Y-80695000D03*
D22*
X68187500Y-75920000D03*
D21*
X68187500Y-77145000D03*
X30187500Y-85691875D03*
D20*
X30187500Y-86916875D03*
D21*
X30187500Y-82141875D03*
D22*
X30187500Y-80916875D03*
D21*
X109187500Y-61695000D03*
D20*
X109187500Y-62920000D03*
D22*
X109187500Y-56920000D03*
D21*
X109187500Y-58145000D03*
D20*
X106187500Y-62920000D03*
D21*
X106187500Y-61695000D03*
X106187500Y-58145000D03*
D22*
X106187500Y-56920000D03*
D21*
X71187500Y-61690000D03*
D20*
X71187500Y-62915000D03*
D22*
X71187500Y-56915000D03*
D21*
X71187500Y-58140000D03*
D20*
X68187500Y-62920000D03*
D21*
X68187500Y-61695000D03*
D22*
X68187500Y-56920000D03*
D21*
X68187500Y-58145000D03*
X30187500Y-66691875D03*
D20*
X30187500Y-67916875D03*
D22*
X30187500Y-61916875D03*
D21*
X30187500Y-63141875D03*
X109187500Y-42695000D03*
D20*
X109187500Y-43920000D03*
D22*
X109187500Y-37920000D03*
D21*
X109187500Y-39145000D03*
D20*
X106187500Y-43920000D03*
D21*
X106187500Y-42695000D03*
X106187500Y-39145000D03*
D22*
X106187500Y-37920000D03*
D20*
X71187500Y-43915000D03*
D21*
X71187500Y-42690000D03*
D22*
X71187500Y-37915000D03*
D21*
X71187500Y-39140000D03*
X68187500Y-42695000D03*
D20*
X68187500Y-43920000D03*
D21*
X68187500Y-39145000D03*
D22*
X68187500Y-37920000D03*
D21*
X30187500Y-47691875D03*
D20*
X30187500Y-48916875D03*
D21*
X30187500Y-44141875D03*
D22*
X30187500Y-42916875D03*
D20*
X267684847Y-86920432D03*
D21*
X267684847Y-85695432D03*
X267684847Y-82145432D03*
D22*
X267684847Y-80920432D03*
D23*
X126237500Y-50545000D03*
X174762500Y-51545000D03*
X174612500Y-42595000D03*
X174687500Y-46920000D03*
X126262500Y-41595000D03*
X126262500Y-45920000D03*
D24*
X100538000Y-55090000D03*
X100262500Y-75495000D03*
X34697500Y-67410000D03*
X47222500Y-72945000D03*
X63112500Y-69658478D03*
X82062500Y-70112489D03*
X101112500Y-70566500D03*
X120262500Y-73008042D03*
D25*
X126912500Y-78745000D03*
D24*
X261938000Y-59840432D03*
X175514847Y-68200433D03*
X175514847Y-75010432D03*
X262224847Y-78840432D03*
X185934868Y-76465432D03*
X215582932Y-93715432D03*
X174964847Y-67370432D03*
X174894847Y-75770432D03*
X265644847Y-68717442D03*
X243559368Y-70045000D03*
X224562500Y-70195000D03*
X205612500Y-70627954D03*
X186562500Y-73227080D03*
D25*
X160387500Y-86445000D03*
D26*
X30187500Y-48916875D02*
X30187500Y-47691875D01*
D27*
X127562011Y-47661511D02*
X116142011Y-47661511D01*
X38574500Y-49214000D02*
X42256500Y-49214000D01*
X141575552Y-51266000D02*
X138533500Y-51266000D01*
D26*
X109187500Y-43920000D02*
X109187500Y-42695000D01*
X30197500Y-51547631D02*
X30197500Y-48926875D01*
D27*
X136458500Y-49191000D02*
X130758500Y-49191000D01*
X42256500Y-49214000D02*
X43079011Y-50036511D01*
X61768500Y-49214000D02*
X61787500Y-49195000D01*
X111426500Y-45514000D02*
X109197500Y-43285000D01*
X106322500Y-42910000D02*
X109187500Y-42910000D01*
D26*
X106187500Y-43920000D02*
X106187500Y-42695000D01*
D27*
X103820989Y-45286511D02*
X97357011Y-45286511D01*
D26*
X33187500Y-48920000D02*
X33187500Y-47695000D01*
X71187500Y-43915000D02*
X71187500Y-42690000D01*
D27*
X43079011Y-50036511D02*
X46470989Y-50036511D01*
D26*
X33187500Y-48920000D02*
X33197500Y-48930000D01*
D27*
X142548511Y-52238959D02*
X141575552Y-51266000D01*
X113994500Y-45514000D02*
X111426500Y-45514000D01*
X47293500Y-49214000D02*
X61768500Y-49214000D01*
D26*
X68192500Y-42690000D02*
X68187500Y-42695000D01*
D27*
X33197500Y-47660000D02*
X37020500Y-47660000D01*
X94715500Y-42645000D02*
X85912500Y-42645000D01*
X37020500Y-47660000D02*
X38574500Y-49214000D01*
X106197500Y-42785000D02*
X106322500Y-42910000D01*
X74769011Y-46271511D02*
X71187500Y-42690000D01*
D26*
X32085131Y-52660000D02*
X31309869Y-52660000D01*
D27*
X85912500Y-42649524D02*
X82290513Y-46271511D01*
X106197500Y-42910000D02*
X103820989Y-45286511D01*
D26*
X30197500Y-48926875D02*
X30187500Y-48916875D01*
X33197500Y-48930000D02*
X33197500Y-51547631D01*
D27*
X144503900Y-57322000D02*
X142548511Y-55366611D01*
D26*
X71187500Y-42690000D02*
X68192500Y-42690000D01*
D27*
X64162500Y-49195000D02*
X68187500Y-45170000D01*
X33184375Y-48916875D02*
X33187500Y-48920000D01*
X142548511Y-55366611D02*
X142548511Y-52238959D01*
X116142011Y-47661511D02*
X113994500Y-45514000D01*
X138533500Y-51266000D02*
X136458500Y-49191000D01*
D26*
X68187500Y-43920000D02*
X68187500Y-42695000D01*
D27*
X61787500Y-49195000D02*
X64162500Y-49195000D01*
X109197500Y-43285000D02*
X109197500Y-42910000D01*
D26*
X33197500Y-51547631D02*
X32085131Y-52660000D01*
D27*
X82290513Y-46271511D02*
X74769011Y-46271511D01*
X128384500Y-48484000D02*
X127562011Y-47661511D01*
X130051500Y-48484000D02*
X128384500Y-48484000D01*
X85912500Y-42645000D02*
X85912500Y-42649524D01*
X46470989Y-50036511D02*
X47293500Y-49214000D01*
X130758500Y-49191000D02*
X130051500Y-48484000D01*
X97357011Y-45286511D02*
X94715500Y-42645000D01*
X68187500Y-45170000D02*
X68187500Y-43920000D01*
D26*
X31309869Y-52660000D02*
X30197500Y-51547631D01*
X25612500Y-45245000D02*
X26715625Y-44141875D01*
X30187500Y-42916875D02*
X30187500Y-44141875D01*
X17187500Y-49720000D02*
X22452688Y-49720000D01*
X30187500Y-44141875D02*
X30197500Y-44131875D01*
X25612500Y-46560188D02*
X25612500Y-45245000D01*
X26715625Y-44141875D02*
X30187500Y-44141875D01*
X22452688Y-49720000D02*
X25612500Y-46560188D01*
D27*
X138345448Y-51720000D02*
X141387500Y-51720000D01*
X130962500Y-49645000D02*
X136270448Y-49645000D01*
D26*
X67612500Y-61695000D02*
X65887500Y-63420000D01*
X73797500Y-64320000D02*
X75152500Y-65675000D01*
X65887500Y-65720000D02*
X63479541Y-68127959D01*
X81884196Y-65675000D02*
X85814196Y-61745000D01*
D27*
X142094500Y-57452600D02*
X144503900Y-59862000D01*
D26*
X106187500Y-62920000D02*
X106187500Y-61695000D01*
X103762011Y-64345489D02*
X104812500Y-63295000D01*
D27*
X129787500Y-50820000D02*
X130962500Y-49645000D01*
D26*
X71187500Y-61690000D02*
X73797500Y-64300000D01*
X111989278Y-70133400D02*
X111223900Y-70133400D01*
D27*
X43164011Y-69036511D02*
X49720989Y-69036511D01*
X142094500Y-52427000D02*
X142094500Y-57452600D01*
D26*
X68187500Y-62920000D02*
X68187500Y-61695000D01*
D27*
X38608459Y-68127959D02*
X42255459Y-68127959D01*
X33187500Y-67920000D02*
X33187500Y-66777000D01*
X33184375Y-67916875D02*
X33187500Y-67920000D01*
D26*
X30187500Y-67916875D02*
X30187500Y-66691875D01*
X30197500Y-67926875D02*
X30187500Y-67916875D01*
X97474989Y-64345489D02*
X103762011Y-64345489D01*
D27*
X50629541Y-68127959D02*
X61895459Y-68127959D01*
X109187500Y-61910000D02*
X109187500Y-62920000D01*
D26*
X63479541Y-68127959D02*
X61895459Y-68127959D01*
D27*
X128898500Y-50820000D02*
X129787500Y-50820000D01*
X42255459Y-68127959D02*
X43164011Y-69036511D01*
X122154500Y-68194000D02*
X124520489Y-65828011D01*
D26*
X111223900Y-70133400D02*
X109187500Y-68097000D01*
X71182500Y-61695000D02*
X71187500Y-61690000D01*
X71187500Y-62915000D02*
X71187500Y-61690000D01*
X109187500Y-68097000D02*
X109187500Y-62920000D01*
X33197500Y-67930000D02*
X33197500Y-70560262D01*
D27*
X49720989Y-69036511D02*
X50629541Y-68127959D01*
D26*
X33197500Y-70560262D02*
X32097762Y-71660000D01*
D27*
X124520490Y-55198010D02*
X128898500Y-50820000D01*
D26*
X68187500Y-61695000D02*
X67612500Y-61695000D01*
X94874500Y-61745000D02*
X96481000Y-63351500D01*
X31197500Y-71660000D02*
X30197500Y-70660000D01*
X30197500Y-70660000D02*
X30197500Y-67926875D01*
D27*
X136270448Y-49645000D02*
X138345448Y-51720000D01*
X141387500Y-51720000D02*
X142094500Y-52427000D01*
X104812500Y-63295000D02*
X106197500Y-61910000D01*
D26*
X85814196Y-61745000D02*
X94874500Y-61745000D01*
X32097762Y-71660000D02*
X31197500Y-71660000D01*
X96481000Y-63351500D02*
X97474989Y-64345489D01*
X75152500Y-65675000D02*
X81884196Y-65675000D01*
D27*
X33187500Y-66777000D02*
X33519500Y-66445000D01*
D26*
X73797500Y-64300000D02*
X73797500Y-64320000D01*
D27*
X36925500Y-66445000D02*
X38608459Y-68127959D01*
D26*
X109187500Y-62920000D02*
X109187500Y-61695000D01*
X33187500Y-67920000D02*
X33197500Y-67930000D01*
X120228558Y-70119942D02*
X112002736Y-70119942D01*
X65887500Y-63420000D02*
X65887500Y-65720000D01*
X112002736Y-70119942D02*
X111989278Y-70133400D01*
D27*
X124520489Y-65828011D02*
X124520490Y-55198010D01*
X33519500Y-66445000D02*
X36925500Y-66445000D01*
D26*
X68187500Y-61695000D02*
X71182500Y-61695000D01*
D27*
X106197500Y-61910000D02*
X109187500Y-61910000D01*
D26*
X33187500Y-67920000D02*
X33187500Y-66695000D01*
X122154500Y-68194000D02*
X120228558Y-70119942D01*
X33187500Y-42920000D02*
X33187500Y-44145000D01*
D27*
X47883500Y-87234000D02*
X63873500Y-87234000D01*
X33322500Y-85910000D02*
X33447500Y-85785000D01*
X142124500Y-64781400D02*
X144503900Y-62402000D01*
X123249200Y-83656700D02*
X128086700Y-78819200D01*
D26*
X121672989Y-85659511D02*
X122962500Y-84370000D01*
X33197500Y-86930000D02*
X33187500Y-86920000D01*
X31385000Y-92660000D02*
X32010000Y-92660000D01*
D27*
X36935500Y-85785000D02*
X38384500Y-87234000D01*
X94874500Y-80964000D02*
X97253989Y-83343489D01*
D26*
X73662500Y-83445000D02*
X74922500Y-83445000D01*
X75772500Y-84295000D02*
X83220500Y-84295000D01*
X32010000Y-92660000D02*
X33197500Y-91472500D01*
X109197500Y-81285000D02*
X111622500Y-83710000D01*
D27*
X128086700Y-77720800D02*
X130533500Y-75274000D01*
D26*
X33197500Y-91472500D02*
X33197500Y-86930000D01*
X115617500Y-85240000D02*
X116037011Y-85659511D01*
X83220500Y-84295000D02*
X86551500Y-80964000D01*
X33187500Y-86920000D02*
X33187500Y-85695000D01*
D27*
X103514011Y-83343489D02*
X105947500Y-80910000D01*
D26*
X114087500Y-83710000D02*
X115617500Y-85240000D01*
X30197500Y-86926875D02*
X30197500Y-91472500D01*
X115617500Y-85240000D02*
X115727500Y-85350000D01*
X68192500Y-80690000D02*
X68187500Y-80695000D01*
X116037011Y-85659511D02*
X121672989Y-85659511D01*
D27*
X108947500Y-80910000D02*
X109197500Y-81160000D01*
D26*
X111622500Y-83710000D02*
X114087500Y-83710000D01*
X30187500Y-86916875D02*
X30197500Y-86926875D01*
D27*
X38384500Y-87234000D02*
X42753500Y-87234000D01*
D26*
X71187500Y-80970000D02*
X73662500Y-83445000D01*
X106187500Y-80695000D02*
X106187500Y-81920000D01*
D27*
X33447500Y-85785000D02*
X36935500Y-85785000D01*
X105947500Y-80910000D02*
X108947500Y-80910000D01*
X47024011Y-88093489D02*
X47883500Y-87234000D01*
D26*
X68187500Y-81920000D02*
X68187500Y-80695000D01*
X109197500Y-81035000D02*
X109197500Y-81285000D01*
D27*
X68187500Y-82920000D02*
X68187500Y-81920000D01*
X43612989Y-88093489D02*
X47024011Y-88093489D01*
X86551500Y-80964000D02*
X94874500Y-80964000D01*
D26*
X109187500Y-81920000D02*
X109187500Y-80695000D01*
X71187500Y-81915000D02*
X71187500Y-80690000D01*
X30187500Y-86916875D02*
X30187500Y-85691875D01*
D27*
X128086700Y-78819200D02*
X128086700Y-77720800D01*
D26*
X71187500Y-80690000D02*
X71187500Y-80970000D01*
X30197500Y-91472500D02*
X31385000Y-92660000D01*
D27*
X142124500Y-72774000D02*
X142124500Y-64781400D01*
X42753500Y-87234000D02*
X43612989Y-88093489D01*
X97253989Y-83343489D02*
X103514011Y-83343489D01*
X130533500Y-75274000D02*
X139624500Y-75274000D01*
D26*
X74922500Y-83445000D02*
X75772500Y-84295000D01*
X115727500Y-85350000D02*
X115837500Y-85350000D01*
X122962500Y-83943400D02*
X123249200Y-83656700D01*
X122962500Y-84370000D02*
X122962500Y-83943400D01*
X71187500Y-80690000D02*
X68192500Y-80690000D01*
D27*
X63873500Y-87234000D02*
X68187500Y-82920000D01*
X109197500Y-81160000D02*
X109322500Y-81160000D01*
X139624500Y-75274000D02*
X142124500Y-72774000D01*
D26*
X63987500Y-40295000D02*
X65137500Y-39145000D01*
X68187500Y-37920000D02*
X68187500Y-39145000D01*
X60452688Y-44970000D02*
X63987500Y-41435188D01*
X65137500Y-39145000D02*
X68187500Y-39145000D01*
X55187500Y-44970000D02*
X60452688Y-44970000D01*
X63987500Y-41435188D02*
X63987500Y-40295000D01*
D27*
X101202192Y-94094000D02*
X96638500Y-94094000D01*
X87528989Y-102968489D02*
X94389011Y-102968489D01*
X123437500Y-84241000D02*
X123437500Y-87470000D01*
D26*
X96687500Y-101905000D02*
X96687500Y-100680000D01*
D27*
X123437500Y-87470000D02*
X116813500Y-94094000D01*
D26*
X99687500Y-101905000D02*
X99687500Y-100680000D01*
D27*
X128573000Y-79105500D02*
X123437500Y-84241000D01*
X95484500Y-99072000D02*
X96687500Y-100275000D01*
X85220500Y-100660000D02*
X87528989Y-102968489D01*
X96638500Y-94094000D02*
X95484500Y-95248000D01*
X128562500Y-79095000D02*
X128573000Y-79105500D01*
X139812558Y-75728010D02*
X130721541Y-75728011D01*
X95484500Y-95248000D02*
X95484500Y-99072000D01*
X96697500Y-100660000D02*
X99572500Y-100660000D01*
D26*
X80507500Y-101910000D02*
X80507500Y-100685000D01*
D27*
X128562500Y-77887052D02*
X128562500Y-79095000D01*
X110003568Y-94094000D02*
X109995547Y-94085979D01*
X144503900Y-64942000D02*
X142578511Y-66867389D01*
X101210212Y-94085980D02*
X101202192Y-94094000D01*
X109995547Y-94085979D02*
X101210212Y-94085980D01*
X142578511Y-72962057D02*
X139812558Y-75728010D01*
X80572500Y-100660000D02*
X85220500Y-100660000D01*
X94389011Y-102968489D02*
X96697500Y-100660000D01*
X99572500Y-100660000D02*
X99697500Y-100785000D01*
X130721541Y-75728011D02*
X128562500Y-77887052D01*
X142578511Y-66867389D02*
X142578511Y-72962057D01*
X116813500Y-94094000D02*
X110003568Y-94094000D01*
D26*
X74187500Y-42595000D02*
X71187500Y-39595000D01*
X71187500Y-39595000D02*
X71187500Y-39140000D01*
X71187500Y-37915000D02*
X71187500Y-39140000D01*
X106187500Y-37920000D02*
X106187500Y-39145000D01*
X109187500Y-37920000D02*
X109187500Y-39145000D01*
X19612979Y-67794521D02*
X23378167Y-67794521D01*
X25812500Y-65061992D02*
X28957617Y-61916875D01*
X28957617Y-61916875D02*
X30187500Y-61916875D01*
X30187500Y-61916875D02*
X30187500Y-63141875D01*
X23378167Y-67794521D02*
X25812500Y-65360188D01*
X17787500Y-69620000D02*
X19612979Y-67794521D01*
X25812500Y-65360188D02*
X25812500Y-65061992D01*
D27*
X43727500Y-59840000D02*
X42757500Y-58870000D01*
X37112500Y-58870000D02*
X33187500Y-62795000D01*
X33187500Y-62795000D02*
X33187500Y-63035000D01*
X42757500Y-58870000D02*
X37112500Y-58870000D01*
D26*
X33187500Y-61920000D02*
X33187500Y-63145000D01*
X68187500Y-56920000D02*
X68187500Y-58145000D01*
X60452688Y-63970000D02*
X64375000Y-60047688D01*
X65562500Y-58145000D02*
X68187500Y-58145000D01*
X55187500Y-63970000D02*
X60452688Y-63970000D01*
X64375000Y-59332500D02*
X65562500Y-58145000D01*
X64375000Y-60047688D02*
X64375000Y-59332500D01*
X74187500Y-61595000D02*
X71187500Y-58595000D01*
X71187500Y-58595000D02*
X71187500Y-58140000D01*
X71187500Y-56915000D02*
X71187500Y-58140000D01*
D27*
X100538000Y-55090000D02*
X104357500Y-55090000D01*
X106197500Y-56930000D02*
X106197500Y-58035000D01*
X104357500Y-55090000D02*
X106197500Y-56930000D01*
D26*
X106187500Y-56920000D02*
X106187500Y-58145000D01*
X109187500Y-56920000D02*
X109187500Y-58145000D01*
X17787500Y-88620000D02*
X19612979Y-86794521D01*
X25812500Y-82595000D02*
X27490625Y-80916875D01*
X23436283Y-86794521D02*
X25812500Y-84418304D01*
X25812500Y-84418304D02*
X25812500Y-82595000D01*
X30187500Y-80916875D02*
X30187500Y-82141875D01*
X19612979Y-86794521D02*
X23436283Y-86794521D01*
X27490625Y-80916875D02*
X30187500Y-80916875D01*
X33187500Y-80920000D02*
X33187500Y-82145000D01*
X56962500Y-82695000D02*
X60727688Y-82695000D01*
X63662500Y-77845000D02*
X64362500Y-77145000D01*
X60727688Y-82695000D02*
X63662500Y-79760188D01*
X55787500Y-83870000D02*
X56962500Y-82695000D01*
X68187500Y-75920000D02*
X68187500Y-77145000D01*
X64362500Y-77145000D02*
X68187500Y-77145000D01*
X63662500Y-79760188D02*
X63662500Y-77845000D01*
X71187500Y-75915000D02*
X71187500Y-77140000D01*
X74187500Y-80595000D02*
X71187500Y-77595000D01*
X71187500Y-77595000D02*
X71187500Y-77140000D01*
X101912500Y-77145000D02*
X106187500Y-77145000D01*
X100262500Y-75495000D02*
X101912500Y-77145000D01*
X106187500Y-75920000D02*
X106187500Y-77145000D01*
X109187500Y-75920000D02*
X109187500Y-77145000D01*
X80507500Y-95910000D02*
X80507500Y-97135000D01*
X80507500Y-97135000D02*
X80447500Y-97075000D01*
X104220977Y-103053477D02*
X100012500Y-98845000D01*
X104220977Y-104946048D02*
X104220977Y-103053477D01*
X98402500Y-98845000D02*
X96687500Y-97130000D01*
X96687500Y-95905000D02*
X96687500Y-97130000D01*
X100012500Y-98845000D02*
X98402500Y-98845000D01*
D27*
X113647500Y-100880000D02*
X110897500Y-98130000D01*
X116380500Y-100880000D02*
X113647500Y-100880000D01*
X109307454Y-95002022D02*
X101730478Y-95002022D01*
X118974500Y-103474000D02*
X116380500Y-100880000D01*
D26*
X124677270Y-103474000D02*
X123583500Y-103474000D01*
X132728397Y-111525127D02*
X124677270Y-103474000D01*
D27*
X110897500Y-98130000D02*
X110897500Y-96592068D01*
D26*
X99687500Y-95905000D02*
X99687500Y-97130000D01*
D27*
X110897500Y-96592068D02*
X109307454Y-95002022D01*
X101730478Y-95002022D02*
X99822500Y-96910000D01*
X123583500Y-103474000D02*
X118974500Y-103474000D01*
D28*
X140387500Y-82845000D02*
X139062500Y-82845000D01*
X136887500Y-44649000D02*
X136914500Y-44622000D01*
D29*
X129283900Y-44622000D02*
X127560500Y-44622000D01*
D28*
X137987500Y-78559000D02*
X139378500Y-77168000D01*
D29*
X127560500Y-44622000D02*
X126262500Y-45920000D01*
X136914500Y-44622000D02*
X141963900Y-44622000D01*
D28*
X137987500Y-81770000D02*
X137987500Y-78559000D01*
X138275000Y-82057500D02*
X137987500Y-81770000D01*
D29*
X129283900Y-44622000D02*
X136914500Y-44622000D01*
D28*
X139062500Y-82845000D02*
X138275000Y-82057500D01*
D29*
X141963900Y-44622000D02*
X144503900Y-47162000D01*
X127080500Y-49702000D02*
X126237500Y-50545000D01*
X129283900Y-49702000D02*
X127080500Y-49702000D01*
D27*
X124974500Y-66041060D02*
X122321573Y-68693987D01*
D26*
X108990198Y-68580458D02*
X50817042Y-68580458D01*
X34362500Y-67745000D02*
X34697500Y-67410000D01*
X36422500Y-72735000D02*
X34362500Y-70675000D01*
X34362500Y-70675000D02*
X34362500Y-67745000D01*
D27*
X124974500Y-56551400D02*
X124974500Y-66041060D01*
D26*
X112188933Y-70569462D02*
X112175475Y-70582920D01*
D27*
X129283900Y-52242000D02*
X124974500Y-56551400D01*
D26*
X50817042Y-68580458D02*
X47077011Y-72320489D01*
X109083740Y-68674000D02*
X109074500Y-68674000D01*
X109076535Y-68676009D02*
X108980496Y-68579970D01*
X109083740Y-68674000D02*
X108990198Y-68580458D01*
X112175475Y-70582920D02*
X110992660Y-70582920D01*
X46963818Y-72320489D02*
X46597989Y-72686318D01*
X120446098Y-70569462D02*
X112188933Y-70569462D01*
X46597989Y-72686318D02*
X46597989Y-72735000D01*
X47077011Y-72320489D02*
X46963818Y-72320489D01*
X110992660Y-70582920D02*
X109083740Y-68674000D01*
X46597989Y-72735000D02*
X36422500Y-72735000D01*
X122321573Y-68693987D02*
X120446098Y-70569462D01*
D27*
X125428510Y-66229115D02*
X125428511Y-58637389D01*
X51135522Y-69031978D02*
X108783238Y-69031978D01*
X112375958Y-71020982D02*
X120636642Y-71020982D01*
X120636642Y-71020982D02*
X125428510Y-66229115D01*
X110785700Y-71034440D02*
X112362500Y-71034440D01*
X112362500Y-71034440D02*
X112375958Y-71020982D01*
X125428511Y-58637389D02*
X129283900Y-54782000D01*
X108783238Y-69031978D02*
X110785700Y-71034440D01*
X47222500Y-72945000D02*
X51135522Y-69031978D01*
X63284989Y-69485989D02*
X108595181Y-69485989D01*
X110597152Y-71487960D02*
X113162833Y-71487960D01*
X120825191Y-71474502D02*
X125882520Y-66417173D01*
X108595181Y-69485989D02*
X110597152Y-71487960D01*
X113176291Y-71474502D02*
X120825191Y-71474502D01*
X113162833Y-71487960D02*
X113176291Y-71474502D01*
X125882520Y-66417173D02*
X125882521Y-60723379D01*
X63112500Y-69658478D02*
X63284989Y-69485989D01*
X125882521Y-60723379D02*
X129283900Y-57322000D01*
X108407124Y-69940000D02*
X110408604Y-71941480D01*
X110408604Y-71941480D02*
X113350687Y-71941480D01*
X82062500Y-70112489D02*
X82234989Y-69940000D01*
X121013742Y-71928022D02*
X126336530Y-66605234D01*
X126336530Y-66605234D02*
X126336531Y-62809369D01*
X82234989Y-69940000D02*
X108407124Y-69940000D01*
X126336531Y-62809369D02*
X129283900Y-59862000D01*
X113364145Y-71928022D02*
X121013742Y-71928022D01*
X113350687Y-71941480D02*
X113364145Y-71928022D01*
X101279000Y-70400000D02*
X108207500Y-70400000D01*
X113538541Y-72395000D02*
X113551999Y-72381542D01*
X113551999Y-72381542D02*
X121202290Y-72381542D01*
X126790541Y-64895359D02*
X129283900Y-62402000D01*
X121202290Y-72381542D02*
X126790540Y-66793292D01*
X110202500Y-72395000D02*
X113538541Y-72395000D01*
X108207500Y-70400000D02*
X110202500Y-72395000D01*
X101112500Y-70566500D02*
X101279000Y-70400000D01*
X126790540Y-66793292D02*
X126790541Y-64895359D01*
X120262500Y-73008042D02*
X120435480Y-72835062D01*
X120435480Y-72835062D02*
X121390838Y-72835062D01*
X121390838Y-72835062D02*
X129283900Y-64942000D01*
D28*
X126912500Y-78745000D02*
X126912500Y-77745000D01*
X130012500Y-74645000D02*
X135962500Y-74645000D01*
X126912500Y-77745000D02*
X130012500Y-74645000D01*
X135962500Y-74645000D02*
X138012500Y-72595000D01*
D26*
X270684847Y-42920432D02*
X270684847Y-44145432D01*
D27*
X191684847Y-42660000D02*
X194976636Y-42660000D01*
X267697500Y-47660000D02*
X267697500Y-47722500D01*
D26*
X269697500Y-52660000D02*
X270684847Y-51672653D01*
D27*
X232684847Y-44880432D02*
X232684847Y-42785000D01*
X171674247Y-57448432D02*
X181109068Y-57448432D01*
X199284415Y-42785000D02*
X201786357Y-45286943D01*
X267697500Y-47722500D02*
X265350000Y-50070000D01*
X232684847Y-42897347D02*
X232572500Y-42785000D01*
D26*
X232684847Y-43920432D02*
X232684847Y-42695432D01*
D27*
X195101636Y-42785000D02*
X199284415Y-42785000D01*
X270684847Y-47967932D02*
X270684847Y-48920432D01*
D26*
X229684847Y-43915432D02*
X229684847Y-42690432D01*
D27*
X216329443Y-45286943D02*
X217837500Y-46795000D01*
X258292618Y-50070000D02*
X256173050Y-47950432D01*
D26*
X270684847Y-51672653D02*
X270684847Y-48920432D01*
X267684847Y-51647347D02*
X268697500Y-52660000D01*
D27*
X201786357Y-45286943D02*
X216329443Y-45286943D01*
X253384847Y-47950432D02*
X252574847Y-48760432D01*
D26*
X191684847Y-43920432D02*
X191684847Y-42695432D01*
D27*
X256173050Y-47950432D02*
X253384847Y-47950432D01*
X191684847Y-46872653D02*
X191684847Y-42660000D01*
X225580279Y-46795000D02*
X229684847Y-42690432D01*
X229697500Y-42785000D02*
X229684847Y-42797653D01*
X252574847Y-48760432D02*
X236564847Y-48760432D01*
X194976636Y-42660000D02*
X195101636Y-42785000D01*
X236564847Y-48760432D02*
X232684847Y-44880432D01*
X265350000Y-50070000D02*
X258292618Y-50070000D01*
D26*
X270684847Y-48920432D02*
X270684847Y-47695432D01*
D27*
X217837500Y-46795000D02*
X225580279Y-46795000D01*
X232572500Y-42785000D02*
X229697500Y-42785000D01*
D26*
X194684847Y-43920432D02*
X194684847Y-42695432D01*
X267684847Y-48920432D02*
X267684847Y-47695432D01*
X267684847Y-48920432D02*
X267684847Y-51647347D01*
D27*
X181109068Y-57448432D02*
X191684847Y-46872653D01*
D26*
X268697500Y-52660000D02*
X269697500Y-52660000D01*
X267684847Y-42920432D02*
X267684847Y-44145432D01*
X232684847Y-37920432D02*
X232684847Y-39145432D01*
X222450467Y-42095000D02*
X224737500Y-39807967D01*
X217284847Y-43495432D02*
X218685279Y-42095000D01*
X224737500Y-39509771D02*
X226937500Y-37309771D01*
X224737500Y-39807967D02*
X224737500Y-39509771D01*
X218685279Y-42095000D02*
X221262500Y-42095000D01*
X221262500Y-42095000D02*
X222450467Y-42095000D01*
X229684847Y-37915432D02*
X229684847Y-39140432D01*
X229079186Y-37309771D02*
X229684847Y-37915432D01*
X226937500Y-37309771D02*
X229079186Y-37309771D01*
X194684847Y-37920432D02*
X194684847Y-39145432D01*
X184008151Y-47345432D02*
X187362500Y-43991083D01*
X191684847Y-37920432D02*
X191684847Y-39145432D01*
X187362500Y-43991083D02*
X187362500Y-42595000D01*
X187362500Y-42595000D02*
X190812068Y-39145432D01*
X178684847Y-47345432D02*
X184008151Y-47345432D01*
X190812068Y-39145432D02*
X191684847Y-39145432D01*
D27*
X265224010Y-66695432D02*
X267684847Y-66695432D01*
D26*
X191684847Y-62920432D02*
X191684847Y-61695432D01*
D27*
X173644847Y-64440432D02*
X179464847Y-70260432D01*
X194644415Y-61660000D02*
X194894415Y-61910000D01*
D26*
X191684847Y-68150432D02*
X191684847Y-62920432D01*
D27*
X236821847Y-68200432D02*
X232684847Y-64063432D01*
X173644847Y-61959032D02*
X173644847Y-64440432D01*
X264412499Y-65883921D02*
X265224010Y-66695432D01*
X191684847Y-61672653D02*
X191697500Y-61660000D01*
D26*
X267684847Y-67920432D02*
X267684847Y-70647347D01*
X232684847Y-62920432D02*
X232684847Y-61695432D01*
D27*
X263423579Y-65883921D02*
X264412499Y-65883921D01*
D26*
X189566858Y-70268421D02*
X191684847Y-68150432D01*
D27*
X191684847Y-62920432D02*
X191684847Y-61672653D01*
X179464847Y-70260432D02*
X180817267Y-70260432D01*
X232684847Y-64063432D02*
X232684847Y-61785000D01*
X251714847Y-68200432D02*
X236821847Y-68200432D01*
X171674247Y-59988432D02*
X173644847Y-61959032D01*
X253258858Y-66656421D02*
X251714847Y-68200432D01*
X191697500Y-61660000D02*
X194644415Y-61660000D01*
X262841834Y-65883921D02*
X260635323Y-68090432D01*
X232684847Y-61785000D02*
X229572500Y-61785000D01*
X226685557Y-65271943D02*
X229684847Y-62272653D01*
X215139443Y-65271943D02*
X226685557Y-65271943D01*
X258407932Y-68090432D02*
X256973921Y-66656421D01*
X214154443Y-64286943D02*
X215139443Y-65271943D01*
X201481359Y-64286943D02*
X214154443Y-64286943D01*
X263423579Y-65883921D02*
X262841834Y-65883921D01*
X270684847Y-66967932D02*
X270684847Y-67920432D01*
X194894415Y-61910000D02*
X199104415Y-61910000D01*
X256973921Y-66656421D02*
X253258858Y-66656421D01*
D26*
X270684847Y-70672653D02*
X270684847Y-67920432D01*
D27*
X229684847Y-62272653D02*
X229684847Y-61690432D01*
D26*
X267684847Y-67920432D02*
X267684847Y-66695432D01*
X270684847Y-67920432D02*
X270684847Y-66695432D01*
D27*
X260635323Y-68090432D02*
X258407932Y-68090432D01*
D26*
X269697500Y-71660000D02*
X270684847Y-70672653D01*
D27*
X180817267Y-70260432D02*
X189524847Y-70260432D01*
D26*
X194684847Y-62920432D02*
X194684847Y-61695432D01*
D27*
X199104415Y-61910000D02*
X201481359Y-64286943D01*
D26*
X268697500Y-71660000D02*
X269697500Y-71660000D01*
X267684847Y-70647347D02*
X268697500Y-71660000D01*
X229684847Y-62915432D02*
X229684847Y-61690432D01*
X270684847Y-61920432D02*
X270684847Y-63145432D01*
X267684847Y-63145432D02*
X267684847Y-60617347D01*
X267684847Y-60617347D02*
X266907932Y-59840432D01*
X267684847Y-61920432D02*
X267684847Y-63145432D01*
D27*
X262224847Y-59840432D02*
X263857932Y-59840432D01*
D26*
X254298826Y-69106453D02*
X254584847Y-68820432D01*
X266907932Y-59840432D02*
X263857932Y-59840432D01*
D27*
X255275061Y-69108454D02*
X255320583Y-69062932D01*
D26*
X232684847Y-56920432D02*
X232684847Y-58145432D01*
X224787500Y-58395000D02*
X226612489Y-56570011D01*
X226612489Y-56570011D02*
X229339426Y-56570011D01*
X221662500Y-61145000D02*
X222400467Y-61145000D01*
X229339426Y-56570011D02*
X229684847Y-56915432D01*
X217284847Y-62495432D02*
X218635279Y-61145000D01*
X229684847Y-56915432D02*
X229684847Y-58140432D01*
X218635279Y-61145000D02*
X221662500Y-61145000D01*
X222400467Y-61145000D02*
X224787500Y-58757967D01*
X224787500Y-58757967D02*
X224787500Y-58395000D01*
X194684847Y-56920432D02*
X194684847Y-58145432D01*
X187262500Y-61595000D02*
X190712068Y-58145432D01*
X191684847Y-56920432D02*
X191684847Y-58145432D01*
X180635279Y-65895000D02*
X184400467Y-65895000D01*
X184400467Y-65895000D02*
X187262500Y-63032967D01*
X187262500Y-63032967D02*
X187262500Y-61595000D01*
X179284847Y-67245432D02*
X180635279Y-65895000D01*
X190712068Y-58145432D02*
X191684847Y-58145432D01*
D27*
X175939111Y-75010432D02*
X175514847Y-75010432D01*
X200517068Y-82590432D02*
X205145323Y-82590432D01*
D26*
X191684847Y-81920432D02*
X191684847Y-80695432D01*
D27*
X258529443Y-88036943D02*
X265570557Y-88036943D01*
X232697500Y-83073085D02*
X236344847Y-86720432D01*
X252641510Y-86720432D02*
X253271510Y-86090432D01*
D26*
X270684847Y-86920432D02*
X270684847Y-85695432D01*
D27*
X191684847Y-80777432D02*
X190847847Y-79940432D01*
X265570557Y-88036943D02*
X267822500Y-85785000D01*
X190847847Y-79940432D02*
X186827932Y-79940432D01*
D26*
X267684847Y-86920432D02*
X267684847Y-88059432D01*
D27*
X200464847Y-82590432D02*
X200517068Y-82590432D01*
X229607068Y-80785000D02*
X232684847Y-80785000D01*
X182147500Y-75260000D02*
X176188679Y-75260000D01*
X229572500Y-80750432D02*
X229607068Y-80785000D01*
D26*
X269697500Y-92660000D02*
X270684847Y-91672653D01*
D27*
X205145323Y-82590432D02*
X206049891Y-83495000D01*
D26*
X267697500Y-88072085D02*
X267697500Y-91660000D01*
X229684847Y-81915432D02*
X229684847Y-80690432D01*
D27*
X217464443Y-84271943D02*
X225246421Y-84271943D01*
X175814846Y-67900434D02*
X175514847Y-68200433D01*
X175814846Y-67252499D02*
X175814846Y-67900434D01*
D26*
X267684847Y-86920432D02*
X267684847Y-85695432D01*
X267684847Y-88059432D02*
X267697500Y-88072085D01*
D27*
X198784415Y-80910000D02*
X200464847Y-82590432D01*
D26*
X270684847Y-91672653D02*
X270684847Y-86920432D01*
D27*
X228767932Y-80750432D02*
X229572500Y-80750432D01*
X172436246Y-63290431D02*
X172436246Y-63873899D01*
X194822500Y-80910000D02*
X198784415Y-80910000D01*
X206049891Y-83495000D02*
X216687500Y-83495000D01*
X176188679Y-75260000D02*
X175939111Y-75010432D01*
X232697500Y-80910000D02*
X232697500Y-83073085D01*
D26*
X268697500Y-92660000D02*
X269697500Y-92660000D01*
D27*
X186827932Y-79940432D02*
X182147500Y-75260000D01*
X253271510Y-86090432D02*
X256582932Y-86090432D01*
X256582932Y-86090432D02*
X258529443Y-88036943D01*
D26*
X194684847Y-81920432D02*
X194684847Y-80695432D01*
D27*
X270684847Y-85967932D02*
X270684847Y-86920432D01*
X236344847Y-86720432D02*
X252641510Y-86720432D01*
D26*
X232684847Y-81920432D02*
X232684847Y-80695432D01*
D27*
X172436246Y-63873899D02*
X175814846Y-67252499D01*
X225246421Y-84271943D02*
X228767932Y-80750432D01*
X191684847Y-80910000D02*
X194684847Y-80910000D01*
X216687500Y-83495000D02*
X217337500Y-84145000D01*
D26*
X267697500Y-91660000D02*
X268697500Y-92660000D01*
D27*
X171674247Y-62528432D02*
X172436246Y-63290431D01*
D26*
X270684847Y-80920432D02*
X270684847Y-82145432D01*
X267684847Y-80920432D02*
X267684847Y-82145432D01*
X267684847Y-82145432D02*
X267684847Y-80567347D01*
X265968111Y-78850611D02*
X263818111Y-78850611D01*
X267684847Y-80567347D02*
X265968111Y-78850611D01*
X263818111Y-78850611D02*
X263807932Y-78840432D01*
D27*
X262224847Y-78840432D02*
X263807932Y-78840432D01*
D26*
X232684847Y-75920432D02*
X232684847Y-77145432D01*
X226737500Y-80920000D02*
X229684847Y-77972653D01*
D27*
X229684847Y-76897347D02*
X229684847Y-76910000D01*
D26*
X229684847Y-77972653D02*
X229684847Y-77140432D01*
X219144847Y-81875432D02*
X220100279Y-80920000D01*
X229684847Y-75915432D02*
X229684847Y-77140432D01*
X220100279Y-80920000D02*
X226737500Y-80920000D01*
X194684847Y-75920432D02*
X194684847Y-77145432D01*
D27*
X186224847Y-76465432D02*
X191002932Y-76465432D01*
X191002932Y-76465432D02*
X191697500Y-77160000D01*
D26*
X191684847Y-75920432D02*
X191684847Y-77145432D01*
D27*
X217969847Y-93715432D02*
X220184847Y-95930432D01*
D26*
X220184847Y-95930432D02*
X220184847Y-97155432D01*
D27*
X215582932Y-93715432D02*
X217969847Y-93715432D01*
X211563337Y-102968921D02*
X216638579Y-102968921D01*
X189071358Y-89166944D02*
X193234847Y-93330432D01*
X210413458Y-101819042D02*
X209379415Y-100785000D01*
X209379415Y-100785000D02*
X204072500Y-100785000D01*
X218902068Y-100705432D02*
X220184847Y-100705432D01*
X210413458Y-101819042D02*
X211563337Y-102968921D01*
X193234847Y-93330432D02*
X203804847Y-93330432D01*
X186726466Y-80481034D02*
X182015864Y-75770432D01*
D26*
X201194847Y-100690432D02*
X201197500Y-100693085D01*
X204194847Y-101915432D02*
X204194847Y-100690432D01*
X220184847Y-101930432D02*
X220184847Y-100705432D01*
D27*
X174964847Y-67250432D02*
X174964847Y-67370432D01*
X189071358Y-83228858D02*
X189071358Y-89166944D01*
X205322500Y-94848085D02*
X205322500Y-99660000D01*
X186974847Y-80729415D02*
X186726466Y-80481034D01*
X187861358Y-81615926D02*
X187861358Y-82018858D01*
X204194847Y-100785000D02*
X201322500Y-100785000D01*
X175319111Y-75770432D02*
X174894847Y-75770432D01*
X216638579Y-102968921D02*
X218902068Y-100705432D01*
X205322500Y-99660000D02*
X204197500Y-100785000D01*
X186726466Y-80481034D02*
X187861358Y-81615926D01*
X187861358Y-82018858D02*
X189071358Y-83228858D01*
X171674247Y-65068432D02*
X172782847Y-65068432D01*
X182015864Y-75770432D02*
X175319111Y-75770432D01*
X203804847Y-93330432D02*
X205322500Y-94848085D01*
D26*
X201194847Y-101915432D02*
X201194847Y-100690432D01*
D27*
X172782847Y-65068432D02*
X174964847Y-67250432D01*
D26*
X204194847Y-95915432D02*
X204194847Y-97140432D01*
X188151223Y-107224087D02*
X190630310Y-104745000D01*
X199912500Y-99295000D02*
X200462500Y-98745000D01*
X190630310Y-104745000D02*
X196362500Y-104745000D01*
X202590279Y-98745000D02*
X204194847Y-97140432D01*
X199912500Y-101195000D02*
X199912500Y-99295000D01*
X196362500Y-104745000D02*
X199912500Y-101195000D01*
X200462500Y-98745000D02*
X202590279Y-98745000D01*
D27*
X192017500Y-98350000D02*
X199882500Y-98350000D01*
X199882500Y-98350000D02*
X201197500Y-97035000D01*
D26*
X182877194Y-102095000D02*
X183994847Y-100977347D01*
X163143950Y-102865305D02*
X163914255Y-102095000D01*
X186622194Y-98350000D02*
X192017500Y-98350000D01*
X163914255Y-102095000D02*
X182877194Y-102095000D01*
X201194847Y-95915432D02*
X201194847Y-97140432D01*
X183994847Y-100977347D02*
X186622194Y-98350000D01*
D27*
X174364562Y-71790377D02*
X175434513Y-70720426D01*
X236613739Y-68634392D02*
X236633790Y-68654443D01*
X253464847Y-67110432D02*
X256786558Y-67110432D01*
X160134847Y-61417347D02*
X170507877Y-71790377D01*
X258713069Y-69036943D02*
X265325346Y-69036943D01*
X170507877Y-71790377D02*
X174364562Y-71790377D01*
X256786558Y-67110432D02*
X258713069Y-69036943D01*
X236633790Y-68654443D02*
X251920836Y-68654443D01*
X156454247Y-52368432D02*
X160134847Y-56049032D01*
X189766587Y-70720426D02*
X191852622Y-68634391D01*
X160134847Y-56049032D02*
X160134847Y-61417347D01*
X265325346Y-69036943D02*
X265644847Y-68717442D01*
X191852622Y-68634391D02*
X236613739Y-68634392D01*
X251920836Y-68654443D02*
X253464847Y-67110432D01*
X175434513Y-70720426D02*
X189766587Y-70720426D01*
X156454247Y-54908432D02*
X159680837Y-58135022D01*
X189954644Y-71174437D02*
X192040679Y-69088402D01*
X174552619Y-72244388D02*
X175622570Y-71174437D01*
X243462500Y-69107963D02*
X251925463Y-69107963D01*
X159680837Y-58135022D02*
X159680837Y-61604711D01*
X243295846Y-69108454D02*
X243296337Y-69107963D01*
X159680837Y-61604711D02*
X170320514Y-72244388D01*
X251925463Y-69107963D02*
X254312500Y-71495000D01*
X192040679Y-69088402D02*
X236425681Y-69088402D01*
X243362500Y-69107963D02*
X243462500Y-69107963D01*
X259010279Y-71495000D02*
X259684847Y-70820432D01*
X175622570Y-71174437D02*
X189954644Y-71174437D01*
X236425681Y-69088402D02*
X236445242Y-69107963D01*
X236445242Y-69107963D02*
X243362500Y-69107963D01*
X254312500Y-71495000D02*
X259010279Y-71495000D01*
X243199537Y-69107963D02*
X243200028Y-69108454D01*
X243200028Y-69108454D02*
X243295846Y-69108454D01*
X243462500Y-69107963D02*
X243199537Y-69107963D01*
X170320514Y-72244388D02*
X174552619Y-72244388D01*
X156454247Y-57448432D02*
X159226827Y-60221012D01*
X159226827Y-61792075D02*
X170133151Y-72698399D01*
X174740676Y-72698399D02*
X175810627Y-71628448D01*
X159226827Y-60221012D02*
X159226827Y-61792075D01*
X243076342Y-69561974D02*
X234824588Y-69561974D01*
X234810057Y-69547443D02*
X236082718Y-69547443D01*
X243559368Y-70045000D02*
X243076342Y-69561974D01*
X170133151Y-72698399D02*
X174740676Y-72698399D01*
X190142701Y-71628448D02*
X192223706Y-69547443D01*
X192223706Y-69547443D02*
X234810057Y-69547443D01*
X234824588Y-69561974D02*
X234810057Y-69547443D01*
X175810627Y-71628448D02*
X190142701Y-71628448D01*
X216868954Y-70001454D02*
X217144848Y-70001454D01*
X192411763Y-70001454D02*
X216868954Y-70001454D01*
X174928733Y-73152410D02*
X175998684Y-72082459D01*
X216868954Y-70001454D02*
X224368954Y-70001454D01*
X224368954Y-70001454D02*
X224562500Y-70195000D01*
X169945788Y-73152410D02*
X174928733Y-73152410D01*
X175998684Y-72082459D02*
X190330758Y-72082459D01*
X190330758Y-72082459D02*
X192411763Y-70001454D01*
X159100380Y-62307002D02*
X169945788Y-73152410D01*
X156454247Y-59988432D02*
X158772817Y-62307002D01*
X158772817Y-62307002D02*
X159100380Y-62307002D01*
X197837500Y-70520000D02*
X198209383Y-70520000D01*
X175116790Y-73606421D02*
X176122631Y-72600580D01*
X176122631Y-72600580D02*
X190616920Y-72600580D01*
X205504546Y-70520000D02*
X205612500Y-70627954D01*
X192697500Y-70520000D02*
X197837500Y-70520000D01*
X169758425Y-73606421D02*
X175116790Y-73606421D01*
X158318807Y-64392992D02*
X160544996Y-64392992D01*
X190616920Y-72600580D02*
X192697500Y-70520000D01*
X197837500Y-70520000D02*
X205504546Y-70520000D01*
X160544996Y-64392992D02*
X169758425Y-73606421D01*
X156454247Y-62528432D02*
X158318807Y-64392992D01*
X169591061Y-74080431D02*
X160579062Y-65068432D01*
X175284848Y-74080431D02*
X169591061Y-74080431D01*
X160579062Y-65068432D02*
X156454247Y-65068432D01*
X176304847Y-73060432D02*
X175284848Y-74080431D01*
X186395852Y-73060432D02*
X176304847Y-73060432D01*
X186562500Y-73227080D02*
X186395852Y-73060432D01*
D26*
X143030511Y-73149281D02*
X141918500Y-74261292D01*
X145862500Y-65420000D02*
X145137500Y-66145000D01*
X145137500Y-66145000D02*
X144012500Y-66145000D01*
X143030511Y-67126989D02*
X143030511Y-73149281D01*
X141918500Y-74261292D02*
X141918500Y-77168000D01*
X145862500Y-45980600D02*
X145862500Y-65420000D01*
X144503900Y-44622000D02*
X145862500Y-45980600D01*
X144012500Y-66145000D02*
X143030511Y-67126989D01*
X143416900Y-43169000D02*
X127836500Y-43169000D01*
X144503900Y-42082000D02*
X143416900Y-43169000D01*
X127836500Y-43169000D02*
X126262500Y-41595000D01*
D28*
X157666247Y-51040432D02*
X174257932Y-51040432D01*
X156454247Y-49828432D02*
X157666247Y-51040432D01*
X174257932Y-51040432D02*
X174762500Y-51545000D01*
D29*
X164340932Y-44748432D02*
X169134247Y-44748432D01*
X163812500Y-70895000D02*
X165512500Y-72595000D01*
D28*
X162962500Y-81045000D02*
X162962500Y-80955000D01*
X174319068Y-47288432D02*
X174687500Y-46920000D01*
D29*
X159047279Y-70895000D02*
X163812500Y-70895000D01*
D28*
X166607500Y-77310000D02*
X166607500Y-73690000D01*
D29*
X169134247Y-44748432D02*
X171674247Y-47288432D01*
D28*
X164337500Y-44751864D02*
X164340932Y-44748432D01*
D29*
X156374847Y-73567432D02*
X159047279Y-70895000D01*
D28*
X166607500Y-73690000D02*
X165512500Y-72595000D01*
X162962500Y-80955000D02*
X166607500Y-77310000D01*
X160537500Y-81045000D02*
X162962500Y-81045000D01*
X171674247Y-47288432D02*
X174319068Y-47288432D01*
D29*
X156454247Y-44748432D02*
X164340932Y-44748432D01*
D26*
X174225932Y-42208432D02*
X174612500Y-42595000D01*
X171674247Y-42208432D02*
X174225932Y-42208432D01*
D28*
X158012500Y-80945000D02*
X160112500Y-83045000D01*
X158012500Y-74795000D02*
X160212500Y-72595000D01*
X158012500Y-78395000D02*
X158012500Y-74795000D01*
X160212500Y-72595000D02*
X162972500Y-72595000D01*
X158012500Y-84070000D02*
X158012500Y-80945000D01*
X160387500Y-86445000D02*
X158012500Y-84070000D01*
X158012500Y-80045000D02*
X158012500Y-78395000D01*
X160112500Y-83045000D02*
X160537500Y-83045000D01*
X158012500Y-80945000D02*
X158012500Y-80045000D01*
M02*
