G04 #@! TF.GenerationSoftware,KiCad,Pcbnew,(6.0.10)*
G04 #@! TF.CreationDate,2022-12-31T14:29:49-08:00*
G04 #@! TF.ProjectId,corne-ultralight,636f726e-652d-4756-9c74-72616c696768,2.0*
G04 #@! TF.SameCoordinates,Original*
G04 #@! TF.FileFunction,Paste,Bot*
G04 #@! TF.FilePolarity,Positive*
%FSLAX46Y46*%
G04 Gerber Fmt 4.6, Leading zero omitted, Abs format (unit mm)*
G04 Created by KiCad (PCBNEW (6.0.10)) date 2022-12-31 14:29:49*
%MOMM*%
%LPD*%
G01*
G04 APERTURE LIST*
%ADD10R,1.300000X1.400000*%
G04 APERTURE END LIST*
D10*
X270684847Y-85695432D03*
X270684847Y-82145432D03*
X232684847Y-80695432D03*
X232684847Y-77145432D03*
X229684847Y-80690432D03*
X229684847Y-77140432D03*
X194684847Y-80695432D03*
X194684847Y-77145432D03*
X191684847Y-80695432D03*
X191684847Y-77145432D03*
X220184847Y-100705432D03*
X220184847Y-97155432D03*
X204194847Y-100690432D03*
X204194847Y-97140432D03*
X201194847Y-100690432D03*
X201194847Y-97140432D03*
X270684847Y-47695432D03*
X270684847Y-44145432D03*
X267684847Y-47695432D03*
X267684847Y-44145432D03*
X232684847Y-42695432D03*
X232684847Y-39145432D03*
X229684847Y-42690432D03*
X229684847Y-39140432D03*
X194684847Y-42695432D03*
X194684847Y-39145432D03*
X191684847Y-42695432D03*
X191684847Y-39145432D03*
X270684847Y-66695432D03*
X270684847Y-63145432D03*
X267684847Y-66695432D03*
X267684847Y-63145432D03*
X232684847Y-61695432D03*
X232684847Y-58145432D03*
X229684847Y-61690432D03*
X229684847Y-58140432D03*
X194684847Y-61695432D03*
X194684847Y-58145432D03*
X33187500Y-85695000D03*
X33187500Y-82145000D03*
X33187500Y-66695000D03*
X33187500Y-63145000D03*
X33187500Y-47695000D03*
X33187500Y-44145000D03*
X191684847Y-61695432D03*
X191684847Y-58145432D03*
X99687500Y-100680000D03*
X99687500Y-97130000D03*
X96687500Y-100680000D03*
X96687500Y-97130000D03*
X80507500Y-100685000D03*
X80507500Y-97135000D03*
X109187500Y-80695000D03*
X109187500Y-77145000D03*
X106187500Y-80695000D03*
X106187500Y-77145000D03*
X71187500Y-80690000D03*
X71187500Y-77140000D03*
X68187500Y-80695000D03*
X68187500Y-77145000D03*
X30187500Y-85691875D03*
X30187500Y-82141875D03*
X109187500Y-61695000D03*
X109187500Y-58145000D03*
X106187500Y-61695000D03*
X106187500Y-58145000D03*
X71187500Y-61690000D03*
X71187500Y-58140000D03*
X68187500Y-61695000D03*
X68187500Y-58145000D03*
X30187500Y-66691875D03*
X30187500Y-63141875D03*
X109187500Y-42695000D03*
X109187500Y-39145000D03*
X106187500Y-42695000D03*
X106187500Y-39145000D03*
X71187500Y-42690000D03*
X71187500Y-39140000D03*
X68187500Y-42695000D03*
X68187500Y-39145000D03*
X30187500Y-47691875D03*
X30187500Y-44141875D03*
X267684847Y-85695432D03*
X267684847Y-82145432D03*
M02*
