G04 #@! TF.GenerationSoftware,KiCad,Pcbnew,(6.0.10)*
G04 #@! TF.CreationDate,2022-12-31T14:29:49-08:00*
G04 #@! TF.ProjectId,corne-ultralight,636f726e-652d-4756-9c74-72616c696768,2.0*
G04 #@! TF.SameCoordinates,Original*
G04 #@! TF.FileFunction,Soldermask,Bot*
G04 #@! TF.FilePolarity,Negative*
%FSLAX46Y46*%
G04 Gerber Fmt 4.6, Leading zero omitted, Abs format (unit mm)*
G04 Created by KiCad (PCBNEW (6.0.10)) date 2022-12-31 14:29:49*
%MOMM*%
%LPD*%
G01*
G04 APERTURE LIST*
G04 Aperture macros list*
%AMRoundRect*
0 Rectangle with rounded corners*
0 $1 Rounding radius*
0 $2 $3 $4 $5 $6 $7 $8 $9 X,Y pos of 4 corners*
0 Add a 4 corners polygon primitive as box body*
4,1,4,$2,$3,$4,$5,$6,$7,$8,$9,$2,$3,0*
0 Add four circle primitives for the rounded corners*
1,1,$1+$1,$2,$3*
1,1,$1+$1,$4,$5*
1,1,$1+$1,$6,$7*
1,1,$1+$1,$8,$9*
0 Add four rect primitives between the rounded corners*
20,1,$1+$1,$2,$3,$4,$5,0*
20,1,$1+$1,$4,$5,$6,$7,0*
20,1,$1+$1,$6,$7,$8,$9,0*
20,1,$1+$1,$8,$9,$2,$3,0*%
G04 Aperture macros list end*
%ADD10C,2.000000*%
%ADD11C,5.000000*%
%ADD12C,1.701800*%
%ADD13C,0.990600*%
%ADD14C,2.500000*%
%ADD15C,2.286000*%
%ADD16C,1.524000*%
%ADD17C,2.300000*%
%ADD18O,1.397000X1.778000*%
%ADD19C,0.300000*%
%ADD20C,0.900000*%
%ADD21RoundRect,0.250000X0.625000X-0.350000X0.625000X0.350000X-0.625000X0.350000X-0.625000X-0.350000X0*%
%ADD22O,1.750000X1.200000*%
%ADD23R,1.700000X1.700000*%
%ADD24O,1.700000X1.700000*%
%ADD25RoundRect,0.250000X-0.625000X0.350000X-0.625000X-0.350000X0.625000X-0.350000X0.625000X0.350000X0*%
%ADD26R,1.300000X1.400000*%
%ADD27C,4.300000*%
%ADD28C,1.500000*%
G04 APERTURE END LIST*
D10*
X156012500Y-80067432D03*
X156012500Y-73567432D03*
D11*
X278684847Y-45920432D03*
D12*
X273184847Y-45920432D03*
D13*
X283904847Y-41720432D03*
D12*
X284184847Y-45920432D03*
D14*
X278684847Y-51820432D03*
X282494847Y-48460432D03*
X281284847Y-51670432D03*
D15*
X276144847Y-51000432D03*
D14*
X274284847Y-50620432D03*
X273684847Y-49720432D03*
D12*
X254184847Y-45920432D03*
X265184847Y-45920432D03*
D13*
X264904847Y-41720432D03*
D11*
X259684847Y-45920432D03*
D14*
X259684847Y-51820432D03*
X263494847Y-48460432D03*
X262284847Y-51670432D03*
X255284847Y-50620432D03*
X254684847Y-49720432D03*
D15*
X257144847Y-51000432D03*
D11*
X240684847Y-41170432D03*
D12*
X235184847Y-41170432D03*
D13*
X245904847Y-36970432D03*
D12*
X246184847Y-41170432D03*
D14*
X243284847Y-46920432D03*
X244494847Y-43710432D03*
X240684847Y-47070432D03*
X235684847Y-44970432D03*
D15*
X238144847Y-46250432D03*
D14*
X236284847Y-45870432D03*
D12*
X227184847Y-38795432D03*
D13*
X226904847Y-34595432D03*
D12*
X216184847Y-38795432D03*
D11*
X221684847Y-38795432D03*
D14*
X225494847Y-41335432D03*
X221684847Y-44695432D03*
X224284847Y-44545432D03*
D15*
X219144847Y-43875432D03*
D14*
X217284847Y-43495432D03*
X216684847Y-42595432D03*
D12*
X197184847Y-41170432D03*
D13*
X207904847Y-36970432D03*
D11*
X202684847Y-41170432D03*
D12*
X208184847Y-41170432D03*
D14*
X202684847Y-47070432D03*
X205284847Y-46920432D03*
X206494847Y-43710432D03*
D15*
X200144847Y-46250432D03*
D14*
X198284847Y-45870432D03*
X197684847Y-44970432D03*
D11*
X183684847Y-43545432D03*
D13*
X188904847Y-39345432D03*
D12*
X178184847Y-43545432D03*
X189184847Y-43545432D03*
D14*
X187494847Y-46085432D03*
X183684847Y-49445432D03*
X186284847Y-49295432D03*
D15*
X181144847Y-48625432D03*
D14*
X179284847Y-48245432D03*
X178684847Y-47345432D03*
D12*
X284184847Y-64920432D03*
X273184847Y-64920432D03*
D13*
X283904847Y-60720432D03*
D11*
X278684847Y-64920432D03*
D14*
X278684847Y-70820432D03*
X281284847Y-70670432D03*
X282494847Y-67460432D03*
X274284847Y-69620432D03*
X273684847Y-68720432D03*
D15*
X276144847Y-70000432D03*
D12*
X265184847Y-64920432D03*
X254184847Y-64920432D03*
D13*
X264904847Y-60720432D03*
D11*
X259684847Y-64920432D03*
D14*
X263494847Y-67460432D03*
X259684847Y-70820432D03*
X262284847Y-70670432D03*
X254684847Y-68720432D03*
X255284847Y-69620432D03*
D15*
X257144847Y-70000432D03*
D12*
X235184847Y-60170432D03*
D11*
X240684847Y-60170432D03*
D13*
X245904847Y-55970432D03*
D12*
X246184847Y-60170432D03*
D14*
X244494847Y-62710432D03*
X240684847Y-66070432D03*
X243284847Y-65920432D03*
X235684847Y-63970432D03*
D15*
X238144847Y-65250432D03*
D14*
X236284847Y-64870432D03*
D12*
X227184847Y-57795432D03*
D11*
X221684847Y-57795432D03*
D12*
X216184847Y-57795432D03*
D13*
X226904847Y-53595432D03*
D14*
X221684847Y-63695432D03*
X225494847Y-60335432D03*
X224284847Y-63545432D03*
D15*
X219144847Y-62875432D03*
D14*
X217284847Y-62495432D03*
X216684847Y-61595432D03*
D11*
X202684847Y-60170432D03*
D13*
X207904847Y-55970432D03*
D12*
X208184847Y-60170432D03*
X197184847Y-60170432D03*
D14*
X202684847Y-66070432D03*
X205284847Y-65920432D03*
X206494847Y-62710432D03*
X198284847Y-64870432D03*
X197684847Y-63970432D03*
D15*
X200144847Y-65250432D03*
D12*
X189184847Y-62545432D03*
D11*
X183684847Y-62545432D03*
D13*
X188904847Y-58345432D03*
D12*
X178184847Y-62545432D03*
D14*
X186284847Y-68295432D03*
X187494847Y-65085432D03*
X183684847Y-68445432D03*
D15*
X181144847Y-67625432D03*
D14*
X178684847Y-66345432D03*
X179284847Y-67245432D03*
D13*
X283904847Y-79720432D03*
D12*
X273184847Y-83920432D03*
X284184847Y-83920432D03*
D11*
X278684847Y-83920432D03*
D14*
X282494847Y-86460432D03*
X281284847Y-89670432D03*
X278684847Y-89820432D03*
D15*
X276144847Y-89000432D03*
D14*
X273684847Y-87720432D03*
X274284847Y-88620432D03*
D12*
X254184847Y-83920432D03*
D11*
X259684847Y-83920432D03*
D13*
X264904847Y-79720432D03*
D12*
X265184847Y-83920432D03*
D14*
X263494847Y-86460432D03*
X262284847Y-89670432D03*
X259684847Y-89820432D03*
D15*
X257144847Y-89000432D03*
D14*
X254684847Y-87720432D03*
X255284847Y-88620432D03*
D13*
X245904847Y-74970432D03*
D11*
X240684847Y-79170432D03*
D12*
X235184847Y-79170432D03*
X246184847Y-79170432D03*
D14*
X244494847Y-81710432D03*
X240684847Y-85070432D03*
X243284847Y-84920432D03*
X236284847Y-83870432D03*
X235684847Y-82970432D03*
D15*
X238144847Y-84250432D03*
D13*
X226904847Y-72595432D03*
D11*
X221684847Y-76795432D03*
D12*
X216184847Y-76795432D03*
X227184847Y-76795432D03*
D14*
X225494847Y-79335432D03*
X224284847Y-82545432D03*
X221684847Y-82695432D03*
X216684847Y-80595432D03*
D15*
X219144847Y-81875432D03*
D14*
X217284847Y-81495432D03*
D12*
X197184847Y-79170432D03*
D11*
X202684847Y-79170432D03*
D12*
X208184847Y-79170432D03*
D13*
X207904847Y-74970432D03*
D14*
X205284847Y-84920432D03*
X206494847Y-81710432D03*
X202684847Y-85070432D03*
X197684847Y-82970432D03*
X198284847Y-83870432D03*
D15*
X200144847Y-84250432D03*
D11*
X212184847Y-98795432D03*
D12*
X217684847Y-98795432D03*
X206684847Y-98795432D03*
D13*
X217404847Y-94595432D03*
D14*
X215994847Y-101335432D03*
X214784847Y-104545432D03*
X212184847Y-104695432D03*
X207184847Y-102595432D03*
D15*
X209644847Y-103875432D03*
D14*
X207784847Y-103495432D03*
D11*
X191184847Y-101545432D03*
D13*
X195139940Y-96137508D03*
D12*
X196497439Y-100121927D03*
X185872255Y-102968937D03*
D14*
X195522425Y-103012783D03*
X195184464Y-106426576D03*
X192711879Y-107244394D03*
X188151223Y-107224087D03*
D15*
X190046196Y-107109736D03*
D14*
X187338730Y-106510045D03*
D11*
X183684847Y-81545432D03*
D13*
X188904847Y-77345432D03*
D12*
X189184847Y-81545432D03*
X178184847Y-81545432D03*
D14*
X187494847Y-84085432D03*
X186284847Y-87295432D03*
X183684847Y-87445432D03*
D15*
X181144847Y-86625432D03*
D14*
X178684847Y-85345432D03*
X179284847Y-86245432D03*
D16*
X144503900Y-42082000D03*
X144503900Y-44622000D03*
X144503900Y-47162000D03*
X144503900Y-49702000D03*
X144503900Y-52242000D03*
X144503900Y-54782000D03*
X144503900Y-57322000D03*
X144503900Y-59862000D03*
X144503900Y-62402000D03*
X144503900Y-64942000D03*
X144503900Y-67482000D03*
X144503900Y-70022000D03*
X129283900Y-70022000D03*
X129283900Y-67482000D03*
X129283900Y-64942000D03*
X129283900Y-62402000D03*
X129283900Y-59862000D03*
X129283900Y-57322000D03*
X129283900Y-54782000D03*
X129283900Y-52242000D03*
X129283900Y-49702000D03*
X129283900Y-47162000D03*
X129283900Y-44622000D03*
X129283900Y-42082000D03*
X171674247Y-42208432D03*
X171674247Y-44748432D03*
X171674247Y-47288432D03*
X171674247Y-49828432D03*
X171674247Y-52368432D03*
X171674247Y-54908432D03*
X171674247Y-57448432D03*
X171674247Y-59988432D03*
X171674247Y-62528432D03*
X171674247Y-65068432D03*
X171674247Y-67608432D03*
X171674247Y-70148432D03*
X156454247Y-70148432D03*
X156454247Y-67608432D03*
X156454247Y-65068432D03*
X156454247Y-62528432D03*
X156454247Y-59988432D03*
X156454247Y-57448432D03*
X156454247Y-54908432D03*
X156454247Y-52368432D03*
X156454247Y-49828432D03*
X156454247Y-47288432D03*
X156454247Y-44748432D03*
X156454247Y-42208432D03*
D13*
X122407500Y-39345000D03*
D11*
X117187500Y-43545000D03*
D12*
X122687500Y-43545000D03*
X111687500Y-43545000D03*
D14*
X117187500Y-49445000D03*
X119787500Y-49295000D03*
X120997500Y-46085000D03*
D15*
X114647500Y-48625000D03*
D14*
X112187500Y-47345000D03*
X112787500Y-48245000D03*
D12*
X92687500Y-41170000D03*
D11*
X98187500Y-41170000D03*
D13*
X103407500Y-36970000D03*
D12*
X103687500Y-41170000D03*
D14*
X100787500Y-46920000D03*
X101997500Y-43710000D03*
X98187500Y-47070000D03*
X93187500Y-44970000D03*
X93787500Y-45870000D03*
D15*
X95647500Y-46250000D03*
D12*
X73687500Y-38795000D03*
D13*
X84407500Y-34595000D03*
D12*
X84687500Y-38795000D03*
D11*
X79187500Y-38795000D03*
D14*
X82997500Y-41335000D03*
X81787500Y-44545000D03*
X79187500Y-44695000D03*
X74187500Y-42595000D03*
D15*
X76647500Y-43875000D03*
D14*
X74787500Y-43495000D03*
D12*
X65687500Y-41170000D03*
D11*
X60187500Y-41170000D03*
D13*
X65407500Y-36970000D03*
D12*
X54687500Y-41170000D03*
D14*
X60187500Y-47070000D03*
X63997500Y-43710000D03*
X62787500Y-46920000D03*
X55787500Y-45870000D03*
D15*
X57647500Y-46250000D03*
D14*
X55187500Y-44970000D03*
D13*
X46407500Y-41720000D03*
D12*
X35687500Y-45920000D03*
D11*
X41187500Y-45920000D03*
D12*
X46687500Y-45920000D03*
D14*
X41187500Y-51820000D03*
X44997500Y-48460000D03*
X43787500Y-51670000D03*
X36787500Y-50620000D03*
X36187500Y-49720000D03*
D15*
X38647500Y-51000000D03*
D13*
X122407500Y-77345000D03*
D11*
X117187500Y-81545000D03*
D12*
X111687500Y-81545000D03*
X122687500Y-81545000D03*
D14*
X117187500Y-87445000D03*
X119787500Y-87295000D03*
X120997500Y-84085000D03*
D15*
X114647500Y-86625000D03*
D14*
X112187500Y-85345000D03*
X112787500Y-86245000D03*
D11*
X131937500Y-105295000D03*
D13*
X130910193Y-98674347D03*
D12*
X134687500Y-100531860D03*
X129187500Y-110058140D03*
D14*
X136042205Y-103265443D03*
X138217146Y-105918334D03*
X137047050Y-108245000D03*
D15*
X135066909Y-110034705D03*
D14*
X133807819Y-111455512D03*
X132728397Y-111525127D03*
D11*
X22187500Y-83920000D03*
D12*
X27687500Y-83920000D03*
D13*
X27407500Y-79720000D03*
D12*
X16687500Y-83920000D03*
D14*
X24787500Y-89670000D03*
X25997500Y-86460000D03*
X22187500Y-89820000D03*
X17787500Y-88620000D03*
D15*
X19647500Y-89000000D03*
D14*
X17187500Y-87720000D03*
D11*
X109687500Y-101545000D03*
D12*
X115000092Y-102968505D03*
D13*
X115816673Y-98839147D03*
D12*
X104374908Y-100121495D03*
D14*
X110710698Y-107772003D03*
X112710277Y-104984552D03*
X108160468Y-107243962D03*
X104220977Y-104946048D03*
X103874358Y-103921423D03*
D15*
X105919248Y-105794503D03*
D12*
X83187500Y-98795000D03*
D13*
X93907500Y-94595000D03*
D11*
X88687500Y-98795000D03*
D12*
X94187500Y-98795000D03*
D14*
X88687500Y-104695000D03*
X91287500Y-104545000D03*
X92497500Y-101335000D03*
D15*
X86147500Y-103875000D03*
D14*
X83687500Y-102595000D03*
X84287500Y-103495000D03*
D13*
X103407500Y-74970000D03*
D12*
X92687500Y-79170000D03*
D11*
X98187500Y-79170000D03*
D12*
X103687500Y-79170000D03*
D14*
X101997500Y-81710000D03*
X98187500Y-85070000D03*
X100787500Y-84920000D03*
X93787500Y-83870000D03*
D15*
X95647500Y-84250000D03*
D14*
X93187500Y-82970000D03*
D11*
X79187500Y-76795000D03*
D13*
X84407500Y-72595000D03*
D12*
X84687500Y-76795000D03*
X73687500Y-76795000D03*
D14*
X79187500Y-82695000D03*
X82997500Y-79335000D03*
X81787500Y-82545000D03*
X74187500Y-80595000D03*
D15*
X76647500Y-81875000D03*
D14*
X74787500Y-81495000D03*
D12*
X54687500Y-79170000D03*
D11*
X60187500Y-79170000D03*
D13*
X65407500Y-74970000D03*
D12*
X65687500Y-79170000D03*
D14*
X60187500Y-85070000D03*
X63997500Y-81710000D03*
X62787500Y-84920000D03*
X55787500Y-83870000D03*
X55187500Y-82970000D03*
D15*
X57647500Y-84250000D03*
D11*
X41187500Y-83920000D03*
D13*
X46407500Y-79720000D03*
D12*
X35687500Y-83920000D03*
X46687500Y-83920000D03*
D14*
X43787500Y-89670000D03*
X41187500Y-89820000D03*
X44997500Y-86460000D03*
X36787500Y-88620000D03*
D15*
X38647500Y-89000000D03*
D14*
X36187500Y-87720000D03*
D12*
X111687500Y-62545000D03*
X122687500Y-62545000D03*
D11*
X117187500Y-62545000D03*
D13*
X122407500Y-58345000D03*
D14*
X117187500Y-68445000D03*
X120997500Y-65085000D03*
X119787500Y-68295000D03*
X112187500Y-66345000D03*
X112787500Y-67245000D03*
D15*
X114647500Y-67625000D03*
D13*
X103407500Y-55970000D03*
D12*
X103687500Y-60170000D03*
D11*
X98187500Y-60170000D03*
D12*
X92687500Y-60170000D03*
D14*
X98187500Y-66070000D03*
X100787500Y-65920000D03*
X101997500Y-62710000D03*
X93187500Y-63970000D03*
D15*
X95647500Y-65250000D03*
D14*
X93787500Y-64870000D03*
D13*
X84407500Y-53595000D03*
D12*
X73687500Y-57795000D03*
X84687500Y-57795000D03*
D11*
X79187500Y-57795000D03*
D14*
X82997500Y-60335000D03*
X79187500Y-63695000D03*
X81787500Y-63545000D03*
X74187500Y-61595000D03*
X74787500Y-62495000D03*
D15*
X76647500Y-62875000D03*
D11*
X60187500Y-60170000D03*
D13*
X65407500Y-55970000D03*
D12*
X54687500Y-60170000D03*
X65687500Y-60170000D03*
D14*
X62787500Y-65920000D03*
X60187500Y-66070000D03*
X63997500Y-62710000D03*
X55787500Y-64870000D03*
D15*
X57647500Y-65250000D03*
D14*
X55187500Y-63970000D03*
D12*
X46687500Y-64920000D03*
D13*
X46407500Y-60720000D03*
D12*
X35687500Y-64920000D03*
D11*
X41187500Y-64920000D03*
D14*
X41187500Y-70820000D03*
X43787500Y-70670000D03*
X44997500Y-67460000D03*
X36187500Y-68720000D03*
X36787500Y-69620000D03*
D15*
X38647500Y-70000000D03*
D12*
X27687500Y-64920000D03*
D11*
X22187500Y-64920000D03*
D12*
X16687500Y-64920000D03*
D13*
X27407500Y-60720000D03*
D14*
X22187500Y-70820000D03*
X24787500Y-70670000D03*
X25997500Y-67460000D03*
X17787500Y-69620000D03*
X17187500Y-68720000D03*
D15*
X19647500Y-70000000D03*
D13*
X27407500Y-41720000D03*
D12*
X27687500Y-45920000D03*
D11*
X22187500Y-45920000D03*
D12*
X16687500Y-45920000D03*
D14*
X22187500Y-51820000D03*
X25997500Y-48460000D03*
X24787500Y-51670000D03*
D15*
X19647500Y-51000000D03*
D14*
X17787500Y-50620000D03*
X17187500Y-49720000D03*
D17*
X156330847Y-93085432D03*
X170889847Y-84542432D03*
D12*
X171684847Y-110058572D03*
D13*
X175182154Y-107716085D03*
D11*
X168934847Y-105295432D03*
D12*
X166184847Y-100532292D03*
D14*
X163825297Y-108245432D03*
X168640142Y-109864989D03*
X165255201Y-110422098D03*
X162664528Y-103834920D03*
X163143950Y-102865305D03*
D15*
X163265438Y-105635727D03*
D18*
X131758500Y-77168000D03*
X134298500Y-77168000D03*
X136838500Y-77168000D03*
X139378500Y-77168000D03*
X141918500Y-77168000D03*
D10*
X144862500Y-79921000D03*
X144862500Y-73421000D03*
D19*
X24571250Y-93380000D03*
X22790000Y-93380000D03*
X19821250Y-93380000D03*
X23383750Y-93380000D03*
X21602500Y-93380000D03*
X22196250Y-93380000D03*
X20415000Y-93380000D03*
X23977500Y-93380000D03*
X21008750Y-93380000D03*
X58997000Y-93380000D03*
X62559500Y-93380000D03*
X57809500Y-93380000D03*
X61372000Y-93380000D03*
X59590750Y-93380000D03*
X58403250Y-93380000D03*
X60778250Y-93380000D03*
X61965750Y-93380000D03*
X60184500Y-93380000D03*
X57912500Y-31970000D03*
X58506250Y-31970000D03*
X61475000Y-31970000D03*
X62662500Y-31970000D03*
X59100000Y-31970000D03*
X60287500Y-31970000D03*
X60881250Y-31970000D03*
X62068750Y-31970000D03*
X59693750Y-31970000D03*
X96476250Y-31970000D03*
X99445000Y-31970000D03*
X100632500Y-31970000D03*
X95882500Y-31970000D03*
X100038750Y-31970000D03*
X98851250Y-31970000D03*
X97070000Y-31970000D03*
X98257500Y-31970000D03*
X97663750Y-31970000D03*
X202183750Y-31980000D03*
X200402500Y-31980000D03*
X203965000Y-31980000D03*
X200996250Y-31980000D03*
X202777500Y-31980000D03*
X204558750Y-31980000D03*
X203371250Y-31980000D03*
X205152500Y-31980000D03*
X201590000Y-31980000D03*
X242578750Y-31970000D03*
X238422500Y-31970000D03*
X239610000Y-31970000D03*
X240203750Y-31970000D03*
X240797500Y-31970000D03*
X243172500Y-31970000D03*
X241391250Y-31970000D03*
X239016250Y-31970000D03*
X241985000Y-31970000D03*
X278827500Y-93390000D03*
X280608750Y-93390000D03*
X281202500Y-93390000D03*
X280015000Y-93390000D03*
X276452500Y-93390000D03*
X277046250Y-93390000D03*
X277640000Y-93390000D03*
X279421250Y-93390000D03*
X278233750Y-93390000D03*
X243202500Y-93390000D03*
X239640000Y-93390000D03*
X240827500Y-93390000D03*
X241421250Y-93390000D03*
X238452500Y-93390000D03*
X242015000Y-93390000D03*
X240233750Y-93390000D03*
X242608750Y-93390000D03*
X239046250Y-93390000D03*
D18*
X158987500Y-77310000D03*
X161527500Y-77310000D03*
X164067500Y-77310000D03*
X166607500Y-77310000D03*
X169147500Y-77310000D03*
D20*
X155802500Y-87245000D03*
X155802500Y-84245000D03*
D21*
X160537500Y-83045000D03*
D22*
X160537500Y-81045000D03*
D23*
X165512500Y-72595000D03*
D24*
X162972500Y-72595000D03*
D23*
X135472500Y-72595000D03*
D24*
X138012500Y-72595000D03*
D20*
X145117500Y-84245000D03*
X145117500Y-87245000D03*
D25*
X140387500Y-80845000D03*
D22*
X140387500Y-82845000D03*
D26*
X270684847Y-85695432D03*
X270684847Y-82145432D03*
X232684847Y-80695432D03*
X232684847Y-77145432D03*
X229684847Y-80690432D03*
X229684847Y-77140432D03*
X194684847Y-80695432D03*
X194684847Y-77145432D03*
X191684847Y-80695432D03*
X191684847Y-77145432D03*
X220184847Y-100705432D03*
X220184847Y-97155432D03*
X204194847Y-100690432D03*
X204194847Y-97140432D03*
X201194847Y-100690432D03*
X201194847Y-97140432D03*
X270684847Y-47695432D03*
X270684847Y-44145432D03*
X267684847Y-47695432D03*
X267684847Y-44145432D03*
X232684847Y-42695432D03*
X232684847Y-39145432D03*
X229684847Y-42690432D03*
X229684847Y-39140432D03*
X194684847Y-42695432D03*
X194684847Y-39145432D03*
X191684847Y-42695432D03*
X191684847Y-39145432D03*
X270684847Y-66695432D03*
X270684847Y-63145432D03*
X267684847Y-66695432D03*
X267684847Y-63145432D03*
X232684847Y-61695432D03*
X232684847Y-58145432D03*
X229684847Y-61690432D03*
X229684847Y-58140432D03*
X194684847Y-61695432D03*
X194684847Y-58145432D03*
X33187500Y-85695000D03*
X33187500Y-82145000D03*
X33187500Y-66695000D03*
X33187500Y-63145000D03*
X33187500Y-47695000D03*
X33187500Y-44145000D03*
X191684847Y-61695432D03*
X191684847Y-58145432D03*
X99687500Y-100680000D03*
X99687500Y-97130000D03*
X96687500Y-100680000D03*
X96687500Y-97130000D03*
X80507500Y-100685000D03*
X80507500Y-97135000D03*
X109187500Y-80695000D03*
X109187500Y-77145000D03*
X106187500Y-80695000D03*
X106187500Y-77145000D03*
X71187500Y-80690000D03*
X71187500Y-77140000D03*
X68187500Y-80695000D03*
X68187500Y-77145000D03*
X30187500Y-85691875D03*
X30187500Y-82141875D03*
X109187500Y-61695000D03*
X109187500Y-58145000D03*
X106187500Y-61695000D03*
X106187500Y-58145000D03*
X71187500Y-61690000D03*
X71187500Y-58140000D03*
X68187500Y-61695000D03*
X68187500Y-58145000D03*
X30187500Y-66691875D03*
X30187500Y-63141875D03*
X109187500Y-42695000D03*
X109187500Y-39145000D03*
X106187500Y-42695000D03*
X106187500Y-39145000D03*
X71187500Y-42690000D03*
X71187500Y-39140000D03*
X68187500Y-42695000D03*
X68187500Y-39145000D03*
X30187500Y-47691875D03*
X30187500Y-44141875D03*
X267684847Y-85695432D03*
X267684847Y-82145432D03*
D27*
X31695500Y-74420500D03*
X107650500Y-51930500D03*
X31695500Y-55420500D03*
X74839500Y-91685500D03*
X121405500Y-99300000D03*
D17*
X129944500Y-84419000D03*
X144376500Y-92940000D03*
D27*
X193235847Y-51936932D03*
X179485847Y-99446932D03*
X226055847Y-91696932D03*
X269195847Y-55426932D03*
X269195847Y-74426932D03*
X50712500Y-74445000D03*
X50712500Y-55445000D03*
X250212500Y-74426932D03*
X250212500Y-55426932D03*
D28*
X126237500Y-50545000D03*
X174762500Y-51545000D03*
X174612500Y-42595000D03*
X174687500Y-46920000D03*
X126262500Y-41595000D03*
X126262500Y-45920000D03*
M02*
